SplineFontDB: 3.2
FontName: Reijima-Italic
FullName: Reijima Italic
FamilyName: Reijima
Weight: Book
Copyright: Copyright (c) 2019 by Coji Morishita. All rights reserved.
Version: 1.000
ItalicAngle: -9
UnderlinePosition: -100
UnderlineWidth: 50
Ascent: 860
Descent: 140
InvalidEm: 0
LayerCount: 2
Layer: 0 0 "Back" 1
Layer: 1 0 "Fore" 0
FSType: 8
OS2Version: 0
OS2_WeightWidthSlopeOnly: 0
OS2_UseTypoMetrics: 0
CreationTime: 1707357827
ModificationTime: 1707357827
OS2TypoAscent: 0
OS2TypoAOffset: 1
OS2TypoDescent: 0
OS2TypoDOffset: 1
OS2TypoLinegap: 0
OS2WinAscent: 0
OS2WinAOffset: 1
OS2WinDescent: 0
OS2WinDOffset: 1
HheadAscent: 0
HheadAOffset: 1
HheadDescent: 0
HheadDOffset: 1
OS2Vendor: 'PfEd'
DEI: 91125
Encoding: UnicodeFull
Compacted: 1
UnicodeInterp: none
NameList: AGL For New Fonts
DisplaySize: -48
AntiAlias: 1
FitToEm: 0
WinInfo: 0 27 9
BeginPrivate: 3
BlueValues 24 [-10 0 520 530 730 750 ]
OtherBlues 12 [-220 -220 ]
BlueShift 2 20
EndPrivate
BeginChars: 1114125 955

StartChar: .notdef
Encoding: 1114112 -1 0
Width: 477
LayerCount: 2
Fore
SplineSet
328 -140 m 1
 17 -140 l 1
 176 860 l 1
 487 860 l 1
 328 -140 l 1
239 793 m 1
 234 760 l 1
 297 760 l 1
 291 723 l 1
 227 723 l 1
 221 690 l 1
 384 690 l 1
 389 723 l 1
 325 723 l 1
 331 760 l 1
 395 760 l 1
 400 793 l 1
 239 793 l 1
217 664 m 1
 201 560 l 1
 364 560 l 1
 369 594 l 1
 304 594 l 1
 315 664 l 1
 217 664 l 1
271 594 m 1
 239 594 l 1
 244 630 l 1
 277 630 l 1
 271 594 l 1
197 533 m 1
 191 500 l 1
 256 500 l 1
 250 463 l 1
 185 463 l 1
 180 430 l 1
 278 430 l 1
 289 500 l 1
 354 500 l 1
 359 533 l 1
 197 533 l 1
317 473 m 1
 307 407 l 1
 177 407 l 1
 171 373 l 1
 334 373 l 1
 350 473 l 1
 317 473 l 1
232 351 m 1
 224 295 l 1
 257 295 l 1
 261 318 l 1
 293 318 l 1
 285 271 l 1
 187 271 l 1
 200 351 l 1
 168 351 l 1
 150 238 l 1
 313 238 l 1
 330 351 l 1
 232 351 l 1
140 178 m 1
 122 65 l 1
 285 65 l 1
 303 178 l 1
 140 178 l 1
258 98 m 1
 160 98 l 1
 167 145 l 1
 265 145 l 1
 258 98 l 1
119 42 m 1
 114 9 l 1
 182 9 l 1
 106 -38 l 1
 101 -71 l 1
 264 -71 l 1
 269 -38 l 1
 169 -38 l 1
 245 9 l 1
 276 9 l 1
 281 42 l 1
 119 42 l 1
EndSplineSet
EndChar

StartChar: A
Encoding: 65 65 2
Width: 649
Flags: W
LayerCount: 2
Fore
SplineSet
506 0 m 1
 469 201 l 1
 154 201 l 1
 54 0 l 1
 -32 0 l 1
 342 730 l 1
 450 730 l 1
 592 0 l 1
 506 0 l 1
190 274 m 1
 456 274 l 1
 386 661 l 1
 384 661 l 1
 190 274 l 1
EndSplineSet
EndChar

StartChar: Aacute
Encoding: 193 193 3
Width: 665
Flags: W
LayerCount: 2
Fore
SplineSet
506 0 m 1
 469 201 l 1
 154 201 l 1
 54 0 l 1
 -32 0 l 1
 342 730 l 1
 450 730 l 1
 592 0 l 1
 506 0 l 1
190 274 m 1
 456 274 l 1
 386 661 l 1
 384 661 l 1
 190 274 l 1
419 770 m 1
 339 770 l 1
 474 980 l 1
 573 980 l 1
 419 770 l 1
EndSplineSet
EndChar

StartChar: Abreve
Encoding: 258 258 4
Width: 665
Flags: W
LayerCount: 2
Fore
SplineSet
506 0 m 1
 469 201 l 1
 154 201 l 1
 54 0 l 1
 -32 0 l 1
 342 730 l 1
 450 730 l 1
 592 0 l 1
 506 0 l 1
190 274 m 1
 456 274 l 1
 386 661 l 1
 384 661 l 1
 190 274 l 1
272 833 m 0
 243 862 230 899 233 944 c 1
 316 944 l 1
 315 915 323 893 338 878 c 0
 354 863 376 855 405 855 c 0
 434 855 458 863 478 878 c 0
 498 893 512 915 521 944 c 1
 604 944 l 1
 593 899 568 862 529 833 c 0
 490 804 446 790 395 790 c 0
 343 790 302 804 272 833 c 0
EndSplineSet
EndChar

StartChar: uni1EAE
Encoding: 7854 7854 5
Width: 665
Flags: W
LayerCount: 2
Fore
SplineSet
506 0 m 1
 469 201 l 1
 154 201 l 1
 54 0 l 1
 -32 0 l 1
 342 730 l 1
 450 730 l 1
 592 0 l 1
 506 0 l 1
190 274 m 1
 456 274 l 1
 386 661 l 1
 384 661 l 1
 190 274 l 1
272 833 m 0
 243 862 230 899 233 944 c 1
 316 944 l 1
 315 915 323 893 338 878 c 0
 354 863 376 855 405 855 c 0
 434 855 458 863 478 878 c 0
 498 893 512 915 521 944 c 1
 604 944 l 1
 593 899 568 862 529 833 c 0
 490 804 446 790 395 790 c 0
 343 790 302 804 272 833 c 0
445 930 m 1
 365 930 l 1
 500 1140 l 1
 599 1140 l 1
 445 930 l 1
EndSplineSet
EndChar

StartChar: uni1EB6
Encoding: 7862 7862 6
Width: 665
Flags: W
LayerCount: 2
Fore
SplineSet
506 0 m 1
 469 201 l 1
 154 201 l 1
 54 0 l 1
 -32 0 l 1
 342 730 l 1
 450 730 l 1
 592 0 l 1
 506 0 l 1
190 274 m 1
 456 274 l 1
 386 661 l 1
 384 661 l 1
 190 274 l 1
232 -93 m 1
 334 -93 l 1
 318 -197 l 1
 216 -197 l 1
 232 -93 l 1
272 833 m 0
 243 862 230 899 233 944 c 1
 316 944 l 1
 315 915 323 893 338 878 c 0
 354 863 376 855 405 855 c 0
 434 855 458 863 478 878 c 0
 498 893 512 915 521 944 c 1
 604 944 l 1
 593 899 568 862 529 833 c 0
 490 804 446 790 395 790 c 0
 343 790 302 804 272 833 c 0
EndSplineSet
EndChar

StartChar: uni1EB0
Encoding: 7856 7856 7
Width: 665
Flags: W
LayerCount: 2
Fore
SplineSet
506 0 m 1
 469 201 l 1
 154 201 l 1
 54 0 l 1
 -32 0 l 1
 342 730 l 1
 450 730 l 1
 592 0 l 1
 506 0 l 1
190 274 m 1
 456 274 l 1
 386 661 l 1
 384 661 l 1
 190 274 l 1
272 833 m 0
 243 862 230 899 233 944 c 1
 316 944 l 1
 315 915 323 893 338 878 c 0
 354 863 376 855 405 855 c 0
 434 855 458 863 478 878 c 0
 498 893 512 915 521 944 c 1
 604 944 l 1
 593 899 568 862 529 833 c 0
 490 804 446 790 395 790 c 0
 343 790 302 804 272 833 c 0
297 1140 m 1
 396 1140 l 1
 464 930 l 1
 384 930 l 1
 297 1140 l 1
EndSplineSet
EndChar

StartChar: uni1EB2
Encoding: 7858 7858 8
Width: 649
Flags: W
LayerCount: 2
Fore
SplineSet
485 876 m 0
 504 889 519 909 528 934 c 1
 476 934 l 1
 481 944 487 956 492 971 c 0
 497 986 501 998 503 1008 c 0
 506 1025 502 1036 492 1042 c 0
 481 1047 461 1050 431 1050 c 0
 390 1050 349 1044 308 1033 c 1
 310 1097 l 1
 356 1108 405 1114 458 1114 c 0
 495 1114 524 1112 544 1107 c 0
 563 1102 576 1094 584 1083 c 0
 590 1072 592 1056 589 1035 c 0
 587 1022 583 1007 578 990 c 0
 573 973 567 958 560 944 c 1
 615 944 l 1
 604 899 579 862 540 833 c 0
 501 804 456 790 405 790 c 0
 354 790 313 804 284 833 c 0
 254 862 241 899 244 944 c 1
 327 944 l 1
 326 915 334 893 350 878 c 0
 365 863 387 855 416 855 c 0
 443 855 466 862 485 876 c 0
506 0 m 1
 469 201 l 1
 154 201 l 1
 54 0 l 1
 -32 0 l 1
 342 730 l 1
 450 730 l 1
 592 0 l 1
 506 0 l 1
190 274 m 1
 456 274 l 1
 386 661 l 1
 384 661 l 1
 190 274 l 1
EndSplineSet
EndChar

StartChar: uni1EB4
Encoding: 7860 7860 9
Width: 665
Flags: W
LayerCount: 2
Fore
SplineSet
506 0 m 1
 469 201 l 1
 154 201 l 1
 54 0 l 1
 -32 0 l 1
 342 730 l 1
 450 730 l 1
 592 0 l 1
 506 0 l 1
190 274 m 1
 456 274 l 1
 386 661 l 1
 384 661 l 1
 190 274 l 1
272 833 m 0
 243 862 230 899 233 944 c 1
 316 944 l 1
 315 915 323 893 338 878 c 0
 354 863 376 855 405 855 c 0
 434 855 458 863 478 878 c 0
 498 893 512 915 521 944 c 1
 604 944 l 1
 593 899 568 862 529 833 c 0
 490 804 446 790 395 790 c 0
 343 790 302 804 272 833 c 0
423 1040 m 0
 396 1062 374 1073 357 1073 c 0
 346 1073 338 1068 332 1057 c 0
 325 1046 320 1028 316 1003 c 1
 243 1003 l 1
 251 1053 264 1090 282 1114 c 0
 300 1139 324 1151 354 1151 c 0
 385 1151 419 1135 457 1104 c 0
 483 1082 505 1071 522 1071 c 0
 533 1071 541 1076 548 1087 c 0
 555 1098 560 1116 564 1141 c 1
 636 1141 l 1
 628 1091 615 1054 598 1030 c 0
 580 1005 556 993 527 993 c 0
 497 993 462 1009 423 1040 c 0
EndSplineSet
EndChar

StartChar: Acircumflex
Encoding: 194 194 10
Width: 665
Flags: W
LayerCount: 2
Fore
SplineSet
506 0 m 1
 469 201 l 1
 154 201 l 1
 54 0 l 1
 -32 0 l 1
 342 730 l 1
 450 730 l 1
 592 0 l 1
 506 0 l 1
190 274 m 1
 456 274 l 1
 386 661 l 1
 384 661 l 1
 190 274 l 1
360 980 m 1
 496 980 l 1
 596 770 l 1
 503 770 l 1
 423 942 l 1
 421 942 l 1
 287 770 l 1
 194 770 l 1
 360 980 l 1
EndSplineSet
EndChar

StartChar: uni1EA4
Encoding: 7844 7844 11
Width: 665
Flags: W
LayerCount: 2
Fore
SplineSet
506 0 m 1
 469 201 l 1
 154 201 l 1
 54 0 l 1
 -32 0 l 1
 342 730 l 1
 450 730 l 1
 592 0 l 1
 506 0 l 1
190 274 m 1
 456 274 l 1
 386 661 l 1
 384 661 l 1
 190 274 l 1
360 980 m 1
 496 980 l 1
 596 770 l 1
 503 770 l 1
 423 942 l 1
 421 942 l 1
 287 770 l 1
 194 770 l 1
 360 980 l 1
645 950 m 1
 565 950 l 1
 700 1160 l 1
 799 1160 l 1
 645 950 l 1
EndSplineSet
EndChar

StartChar: uni1EAC
Encoding: 7852 7852 12
Width: 665
Flags: W
LayerCount: 2
Fore
SplineSet
506 0 m 1
 469 201 l 1
 154 201 l 1
 54 0 l 1
 -32 0 l 1
 342 730 l 1
 450 730 l 1
 592 0 l 1
 506 0 l 1
190 274 m 1
 456 274 l 1
 386 661 l 1
 384 661 l 1
 190 274 l 1
232 -93 m 1
 334 -93 l 1
 318 -197 l 1
 216 -197 l 1
 232 -93 l 1
360 980 m 1
 496 980 l 1
 596 770 l 1
 503 770 l 1
 423 942 l 1
 421 942 l 1
 287 770 l 1
 194 770 l 1
 360 980 l 1
EndSplineSet
EndChar

StartChar: uni1EA6
Encoding: 7846 7846 13
Width: 665
Flags: W
LayerCount: 2
Fore
SplineSet
506 0 m 1
 469 201 l 1
 154 201 l 1
 54 0 l 1
 -32 0 l 1
 342 730 l 1
 450 730 l 1
 592 0 l 1
 506 0 l 1
190 274 m 1
 456 274 l 1
 386 661 l 1
 384 661 l 1
 190 274 l 1
360 980 m 1
 496 980 l 1
 596 770 l 1
 503 770 l 1
 423 942 l 1
 421 942 l 1
 287 770 l 1
 194 770 l 1
 360 980 l 1
103 1160 m 1
 202 1160 l 1
 270 950 l 1
 190 950 l 1
 103 1160 l 1
EndSplineSet
EndChar

StartChar: uni1EA8
Encoding: 7848 7848 14
Width: 665
Flags: W
LayerCount: 2
Fore
SplineSet
506 0 m 1
 469 201 l 1
 154 201 l 1
 54 0 l 1
 -32 0 l 1
 342 730 l 1
 450 730 l 1
 592 0 l 1
 506 0 l 1
190 274 m 1
 456 274 l 1
 386 661 l 1
 384 661 l 1
 190 274 l 1
360 980 m 1
 496 980 l 1
 596 770 l 1
 503 770 l 1
 423 942 l 1
 421 942 l 1
 287 770 l 1
 194 770 l 1
 360 980 l 1
599 967 m 0
 604 982 608 994 609 1004 c 0
 612 1021 608 1032 598 1038 c 0
 587 1043 567 1046 537 1046 c 0
 496 1046 455 1040 414 1029 c 1
 416 1093 l 1
 462 1104 511 1110 564 1110 c 0
 601 1110 630 1108 650 1103 c 0
 669 1098 683 1090 690 1079 c 0
 697 1068 699 1052 696 1031 c 0
 694 1016 690 999 683 980 c 0
 676 961 669 944 662 930 c 1
 583 930 l 1
 588 940 594 952 599 967 c 0
EndSplineSet
EndChar

StartChar: uni1EAA
Encoding: 7850 7850 15
Width: 665
Flags: W
LayerCount: 2
Fore
SplineSet
506 0 m 1
 469 201 l 1
 154 201 l 1
 54 0 l 1
 -32 0 l 1
 342 730 l 1
 450 730 l 1
 592 0 l 1
 506 0 l 1
190 274 m 1
 456 274 l 1
 386 661 l 1
 384 661 l 1
 190 274 l 1
360 980 m 1
 496 980 l 1
 596 770 l 1
 503 770 l 1
 423 942 l 1
 421 942 l 1
 287 770 l 1
 194 770 l 1
 360 980 l 1
423 1040 m 0
 396 1062 374 1073 357 1073 c 0
 346 1073 338 1068 332 1057 c 0
 325 1046 320 1028 316 1003 c 1
 243 1003 l 1
 251 1053 264 1090 282 1114 c 0
 300 1139 324 1151 354 1151 c 0
 385 1151 419 1135 457 1104 c 0
 483 1082 505 1071 522 1071 c 0
 533 1071 541 1076 548 1087 c 0
 555 1098 560 1116 564 1141 c 1
 636 1141 l 1
 628 1091 615 1054 598 1030 c 0
 580 1005 556 993 527 993 c 0
 497 993 462 1009 423 1040 c 0
EndSplineSet
EndChar

StartChar: uni0200
Encoding: 512 512 16
Width: 665
Flags: W
LayerCount: 2
Fore
SplineSet
506 0 m 1
 469 201 l 1
 154 201 l 1
 54 0 l 1
 -32 0 l 1
 342 730 l 1
 450 730 l 1
 592 0 l 1
 506 0 l 1
190 274 m 1
 456 274 l 1
 386 661 l 1
 384 661 l 1
 190 274 l 1
183 980 m 1
 282 980 l 1
 350 770 l 1
 270 770 l 1
 183 980 l 1
389 980 m 1
 488 980 l 1
 556 770 l 1
 476 770 l 1
 389 980 l 1
EndSplineSet
EndChar

StartChar: Adieresis
Encoding: 196 196 17
Width: 665
Flags: W
LayerCount: 2
Fore
SplineSet
506 0 m 1
 469 201 l 1
 154 201 l 1
 54 0 l 1
 -32 0 l 1
 342 730 l 1
 450 730 l 1
 592 0 l 1
 506 0 l 1
190 274 m 1
 456 274 l 1
 386 661 l 1
 384 661 l 1
 190 274 l 1
242 927 m 1
 344 927 l 1
 327 823 l 1
 225 823 l 1
 242 927 l 1
486 927 m 1
 588 927 l 1
 571 823 l 1
 469 823 l 1
 486 927 l 1
EndSplineSet
EndChar

StartChar: uni1EA0
Encoding: 7840 7840 18
Width: 665
Flags: W
LayerCount: 2
Fore
SplineSet
506 0 m 1
 469 201 l 1
 154 201 l 1
 54 0 l 1
 -32 0 l 1
 342 730 l 1
 450 730 l 1
 592 0 l 1
 506 0 l 1
190 274 m 1
 456 274 l 1
 386 661 l 1
 384 661 l 1
 190 274 l 1
232 -93 m 1
 334 -93 l 1
 318 -197 l 1
 216 -197 l 1
 232 -93 l 1
EndSplineSet
EndChar

StartChar: Agrave
Encoding: 192 192 19
Width: 665
Flags: W
LayerCount: 2
Fore
SplineSet
506 0 m 1
 469 201 l 1
 154 201 l 1
 54 0 l 1
 -32 0 l 1
 342 730 l 1
 450 730 l 1
 592 0 l 1
 506 0 l 1
190 274 m 1
 456 274 l 1
 386 661 l 1
 384 661 l 1
 190 274 l 1
271 980 m 1
 370 980 l 1
 438 770 l 1
 358 770 l 1
 271 980 l 1
EndSplineSet
EndChar

StartChar: uni1EA2
Encoding: 7842 7842 20
Width: 665
Flags: W
LayerCount: 2
Fore
SplineSet
506 0 m 1
 469 201 l 1
 154 201 l 1
 54 0 l 1
 -32 0 l 1
 342 730 l 1
 450 730 l 1
 592 0 l 1
 506 0 l 1
190 274 m 1
 456 274 l 1
 386 661 l 1
 384 661 l 1
 190 274 l 1
504 837 m 0
 509 852 513 864 514 874 c 0
 517 891 513 902 502 908 c 0
 492 913 472 916 442 916 c 0
 401 916 360 910 319 899 c 1
 321 963 l 1
 367 974 416 980 469 980 c 0
 506 980 535 978 554 973 c 0
 574 968 588 960 595 949 c 0
 602 938 604 922 601 901 c 0
 599 886 595 869 588 850 c 0
 581 831 574 814 567 800 c 1
 488 800 l 1
 493 810 499 822 504 837 c 0
EndSplineSet
EndChar

StartChar: uni0202
Encoding: 514 514 21
Width: 665
Flags: W
LayerCount: 2
Fore
SplineSet
506 0 m 1
 469 201 l 1
 154 201 l 1
 54 0 l 1
 -32 0 l 1
 342 730 l 1
 450 730 l 1
 592 0 l 1
 506 0 l 1
190 274 m 1
 456 274 l 1
 386 661 l 1
 384 661 l 1
 190 274 l 1
532 917 m 0
 562 888 575 851 572 806 c 1
 489 806 l 1
 490 835 482 857 467 872 c 0
 452 887 430 895 401 895 c 0
 372 895 348 887 328 872 c 0
 307 857 293 835 284 806 c 1
 201 806 l 1
 212 851 237 888 276 917 c 0
 315 946 360 960 412 960 c 0
 463 960 503 946 532 917 c 0
EndSplineSet
EndChar

StartChar: Amacron
Encoding: 256 256 22
Width: 665
Flags: W
LayerCount: 2
Fore
SplineSet
506 0 m 1
 469 201 l 1
 154 201 l 1
 54 0 l 1
 -32 0 l 1
 342 730 l 1
 450 730 l 1
 592 0 l 1
 506 0 l 1
190 274 m 1
 456 274 l 1
 386 661 l 1
 384 661 l 1
 190 274 l 1
285 907 m 1
 640 907 l 1
 630 843 l 1
 274 843 l 1
 285 907 l 1
EndSplineSet
EndChar

StartChar: Aogonek
Encoding: 260 260 23
Width: 655
Flags: W
LayerCount: 2
Fore
SplineSet
648 -197 m 1
 615 -211 577 -218 536 -218 c 0
 487 -218 451 -209 430 -191 c 0
 408 -173 399 -149 404 -120 c 0
 411 -75 445 -33 505 7 c 1
 469 201 l 1
 154 201 l 1
 54 0 l 1
 -32 0 l 1
 342 730 l 1
 450 730 l 1
 592 0 l 1
 559 -18 532 -36 513 -54 c 0
 494 -73 483 -90 480 -107 c 0
 477 -123 483 -135 496 -142 c 0
 509 -149 528 -153 552 -153 c 0
 585 -153 615 -147 644 -134 c 1
 648 -197 l 1
190 274 m 1
 456 274 l 1
 386 661 l 1
 384 661 l 1
 190 274 l 1
EndSplineSet
EndChar

StartChar: Aring
Encoding: 197 197 24
Width: 649
Flags: W
LayerCount: 2
Fore
SplineSet
469 201 m 1
 154 201 l 1
 54 0 l 1
 -32 0 l 1
 335 717 l 1
 313 728 296 746 286 768 c 0
 274 792 271 817 276 845 c 0
 280 870 290 894 306 916 c 0
 322 938 342 955 364 968 c 0
 388 981 412 987 438 987 c 0
 463 987 485 981 504 968 c 0
 523 955 537 938 546 916 c 0
 555 894 557 870 553 845 c 0
 548 817 537 792 519 768 c 0
 501 746 479 728 453 716 c 1
 592 0 l 1
 506 0 l 1
 469 201 l 1
368 903 m 0
 349 887 338 868 335 845 c 0
 332 822 336 803 350 787 c 0
 362 771 380 763 402 763 c 0
 424 763 444 771 462 787 c 0
 480 803 491 822 495 845 c 0
 498 868 494 887 480 903 c 0
 468 919 450 927 428 927 c 0
 406 927 386 919 368 903 c 0
190 274 m 1
 456 274 l 1
 386 661 l 1
 384 661 l 1
 190 274 l 1
EndSplineSet
EndChar

StartChar: Aringacute
Encoding: 506 506 25
Width: 649
Flags: W
LayerCount: 2
Fore
SplineSet
469 201 m 1
 154 201 l 1
 54 0 l 1
 -32 0 l 1
 335 717 l 1
 313 728 296 746 286 768 c 0
 274 792 271 817 276 845 c 0
 279 867 287 888 300 908 c 0
 313 927 328 944 347 957 c 1
 476 1158 l 1
 575 1158 l 1
 449 987 l 1
 484 984 511 968 532 941 c 0
 552 914 559 882 553 845 c 0
 548 817 537 792 519 768 c 0
 501 746 479 728 453 716 c 1
 592 0 l 1
 506 0 l 1
 469 201 l 1
368 903 m 0
 349 887 338 868 335 845 c 0
 332 822 336 803 350 787 c 0
 362 771 380 763 402 763 c 0
 424 763 444 771 462 787 c 0
 480 803 491 822 495 845 c 0
 498 868 494 887 480 903 c 0
 468 919 450 927 428 927 c 0
 406 927 386 919 368 903 c 0
190 274 m 1
 456 274 l 1
 386 661 l 1
 384 661 l 1
 190 274 l 1
EndSplineSet
EndChar

StartChar: Atilde
Encoding: 195 195 26
Width: 665
Flags: W
LayerCount: 2
Fore
SplineSet
506 0 m 1
 469 201 l 1
 154 201 l 1
 54 0 l 1
 -32 0 l 1
 342 730 l 1
 450 730 l 1
 592 0 l 1
 506 0 l 1
190 274 m 1
 456 274 l 1
 386 661 l 1
 384 661 l 1
 190 274 l 1
392 843 m 0
 365 865 343 876 326 876 c 0
 315 876 307 871 300 860 c 0
 294 849 289 831 285 806 c 1
 212 806 l 1
 220 856 233 893 251 918 c 0
 269 942 293 954 323 954 c 0
 354 954 388 938 426 907 c 0
 452 885 474 874 491 874 c 0
 502 874 510 879 517 890 c 0
 524 901 529 919 533 944 c 1
 605 944 l 1
 597 894 584 857 566 832 c 0
 549 808 525 796 496 796 c 0
 466 796 431 812 392 843 c 0
EndSplineSet
EndChar

StartChar: AE
Encoding: 198 198 27
Width: 817
Flags: W
LayerCount: 2
Fore
SplineSet
817 658 m 1
 538 658 l 1
 501 420 l 1
 759 420 l 1
 748 350 l 1
 490 350 l 1
 446 72 l 1
 724 72 l 1
 713 0 l 1
 356 0 l 1
 388 201 l 1
 171 201 l 1
 55 0 l 1
 -32 0 l 1
 399 730 l 1
 828 730 l 1
 817 658 l 1
213 274 m 1
 399 274 l 1
 461 663 l 1
 438 663 l 1
 213 274 l 1
EndSplineSet
EndChar

StartChar: AEacute
Encoding: 508 508 28
Width: 840
Flags: W
LayerCount: 2
Fore
SplineSet
817 658 m 1
 538 658 l 1
 501 420 l 1
 759 420 l 1
 748 350 l 1
 490 350 l 1
 446 72 l 1
 724 72 l 1
 713 0 l 1
 356 0 l 1
 388 201 l 1
 171 201 l 1
 55 0 l 1
 -32 0 l 1
 399 730 l 1
 828 730 l 1
 817 658 l 1
213 274 m 1
 399 274 l 1
 461 663 l 1
 438 663 l 1
 213 274 l 1
540 770 m 1
 460 770 l 1
 595 980 l 1
 694 980 l 1
 540 770 l 1
EndSplineSet
EndChar

StartChar: B
Encoding: 66 66 29
Width: 613
Flags: W
LayerCount: 2
Fore
SplineSet
567 203 m 0
 556 134 524 83 469 50 c 0
 414 17 336 0 235 0 c 2
 32 0 l 1
 148 730 l 1
 347 730 l 2
 438 730 503 716 544 686 c 0
 585 658 600 613 590 554 c 0
 583 510 566 474 538 446 c 0
 511 418 474 399 428 390 c 1
 428 388 l 1
 537 370 584 308 567 203 c 0
215 658 m 1
 177 420 l 1
 302 420 l 2
 367 420 416 430 450 450 c 0
 483 469 503 500 510 541 c 0
 517 582 506 611 478 630 c 0
 451 649 404 658 339 658 c 2
 215 658 l 1
419 106 m 0
 458 128 482 163 489 211 c 0
 496 259 484 294 452 316 c 0
 420 339 366 350 291 350 c 2
 166 350 l 1
 122 72 l 1
 247 72 l 2
 322 72 380 83 419 106 c 0
EndSplineSet
EndChar

StartChar: C
Encoding: 67 67 30
Width: 668
Flags: W
LayerCount: 2
Fore
SplineSet
164 36 m 0
 115 66 81 109 62 166 c 0
 43 222 39 288 51 365 c 0
 63 442 88 508 125 564 c 0
 162 621 210 664 268 694 c 0
 326 725 391 740 464 740 c 0
 552 740 625 718 684 674 c 1
 639 609 l 1
 586 648 525 667 456 667 c 0
 400 667 349 655 303 630 c 0
 257 606 219 571 190 526 c 0
 161 480 141 426 131 365 c 0
 121 304 124 250 139 204 c 0
 154 159 181 124 219 100 c 0
 257 75 304 63 360 63 c 0
 430 63 497 82 562 121 c 1
 586 56 l 1
 514 12 434 -10 345 -10 c 0
 273 -10 213 5 164 36 c 0
EndSplineSet
EndChar

StartChar: Cacute
Encoding: 262 262 31
Width: 689
Flags: W
LayerCount: 2
Fore
SplineSet
164 36 m 0
 115 66 81 109 62 166 c 0
 43 222 39 288 51 365 c 0
 63 442 88 508 125 564 c 0
 162 621 210 664 268 694 c 0
 326 725 391 740 464 740 c 0
 552 740 625 718 684 674 c 1
 639 609 l 1
 586 648 525 667 456 667 c 0
 400 667 349 655 303 630 c 0
 257 606 219 571 190 526 c 0
 161 480 141 426 131 365 c 0
 121 304 124 250 139 204 c 0
 154 159 181 124 219 100 c 0
 257 75 304 63 360 63 c 0
 430 63 497 82 562 121 c 1
 586 56 l 1
 514 12 434 -10 345 -10 c 0
 273 -10 213 5 164 36 c 0
467 770 m 1
 387 770 l 1
 522 980 l 1
 621 980 l 1
 467 770 l 1
EndSplineSet
EndChar

StartChar: Ccaron
Encoding: 268 268 32
Width: 689
Flags: W
LayerCount: 2
Fore
SplineSet
164 36 m 0
 115 66 81 109 62 166 c 0
 43 222 39 288 51 365 c 0
 63 442 88 508 125 564 c 0
 162 621 210 664 268 694 c 0
 326 725 391 740 464 740 c 0
 552 740 625 718 684 674 c 1
 639 609 l 1
 586 648 525 667 456 667 c 0
 400 667 349 655 303 630 c 0
 257 606 219 571 190 526 c 0
 161 480 141 426 131 365 c 0
 121 304 124 250 139 204 c 0
 154 159 181 124 219 100 c 0
 257 75 304 63 360 63 c 0
 430 63 497 82 562 121 c 1
 586 56 l 1
 514 12 434 -10 345 -10 c 0
 273 -10 213 5 164 36 c 0
275 980 m 1
 368 980 l 1
 448 808 l 1
 450 808 l 1
 584 980 l 1
 677 980 l 1
 510 770 l 1
 375 770 l 1
 275 980 l 1
EndSplineSet
EndChar

StartChar: Ccedilla
Encoding: 199 199 33
Width: 668
Flags: W
LayerCount: 2
Fore
SplineSet
586 56 m 1
 525 19 460 -2 390 -8 c 1
 425 -44 439 -81 433 -120 c 0
 428 -149 412 -173 385 -191 c 0
 358 -209 319 -218 270 -218 c 0
 229 -218 195 -211 166 -197 c 1
 189 -135 l 1
 215 -148 244 -154 275 -154 c 0
 299 -154 319 -150 334 -142 c 0
 350 -135 359 -123 361 -107 c 0
 366 -76 343 -43 294 -7 c 1
 233 0 182 19 142 51 c 0
 101 83 73 126 58 179 c 0
 42 232 40 294 51 365 c 0
 63 442 88 508 125 564 c 0
 162 621 210 664 268 694 c 0
 326 725 391 740 464 740 c 0
 552 740 625 718 684 674 c 1
 639 609 l 1
 586 648 525 667 456 667 c 0
 400 667 349 655 303 630 c 0
 257 606 219 571 190 526 c 0
 161 480 141 426 131 365 c 0
 121 304 124 250 139 204 c 0
 154 159 181 124 219 100 c 0
 257 75 304 63 360 63 c 0
 430 63 497 82 562 121 c 1
 586 56 l 1
EndSplineSet
EndChar

StartChar: Ccircumflex
Encoding: 264 264 34
Width: 689
Flags: W
LayerCount: 2
Fore
SplineSet
164 36 m 0
 115 66 81 109 62 166 c 0
 43 222 39 288 51 365 c 0
 63 442 88 508 125 564 c 0
 162 621 210 664 268 694 c 0
 326 725 391 740 464 740 c 0
 552 740 625 718 684 674 c 1
 639 609 l 1
 586 648 525 667 456 667 c 0
 400 667 349 655 303 630 c 0
 257 606 219 571 190 526 c 0
 161 480 141 426 131 365 c 0
 121 304 124 250 139 204 c 0
 154 159 181 124 219 100 c 0
 257 75 304 63 360 63 c 0
 430 63 497 82 562 121 c 1
 586 56 l 1
 514 12 434 -10 345 -10 c 0
 273 -10 213 5 164 36 c 0
407 980 m 1
 543 980 l 1
 643 770 l 1
 550 770 l 1
 470 942 l 1
 468 942 l 1
 334 770 l 1
 241 770 l 1
 407 980 l 1
EndSplineSet
EndChar

StartChar: Cdotaccent
Encoding: 266 266 35
Width: 689
Flags: W
LayerCount: 2
Fore
SplineSet
164 36 m 0
 115 66 81 109 62 166 c 0
 43 222 39 288 51 365 c 0
 63 442 88 508 125 564 c 0
 162 621 210 664 268 694 c 0
 326 725 391 740 464 740 c 0
 552 740 625 718 684 674 c 1
 639 609 l 1
 586 648 525 667 456 667 c 0
 400 667 349 655 303 630 c 0
 257 606 219 571 190 526 c 0
 161 480 141 426 131 365 c 0
 121 304 124 250 139 204 c 0
 154 159 181 124 219 100 c 0
 257 75 304 63 360 63 c 0
 430 63 497 82 562 121 c 1
 586 56 l 1
 514 12 434 -10 345 -10 c 0
 273 -10 213 5 164 36 c 0
441 927 m 1
 543 927 l 1
 527 823 l 1
 425 823 l 1
 441 927 l 1
EndSplineSet
EndChar

StartChar: D
Encoding: 68 68 36
Width: 658
Flags: W
LayerCount: 2
Fore
SplineSet
327 730 m 2
 448 730 534 700 585 640 c 0
 636 579 651 488 632 365 c 0
 613 242 568 151 498 90 c 0
 429 30 333 0 212 0 c 2
 32 0 l 1
 148 730 l 1
 327 730 l 2
450 144 m 0
 503 190 537 264 553 365 c 0
 569 466 558 540 520 586 c 0
 483 634 416 657 321 657 c 2
 215 657 l 1
 122 73 l 1
 228 73 l 2
 323 73 397 96 450 144 c 0
EndSplineSet
EndChar

StartChar: uni01C4
Encoding: 452 452 37
Width: 1274
Flags: W
LayerCount: 2
Fore
SplineSet
327 730 m 2
 448 730 534 700 585 640 c 0
 636 579 651 488 632 365 c 0
 613 242 568 151 498 90 c 0
 429 30 333 0 212 0 c 2
 32 0 l 1
 148 730 l 1
 327 730 l 2
450 144 m 0
 503 190 537 264 553 365 c 0
 569 466 558 540 520 586 c 0
 483 634 416 657 321 657 c 2
 215 657 l 1
 122 73 l 1
 228 73 l 2
 323 73 397 96 450 144 c 0
666 73 m 1
 1152 655 l 1
 1152 657 l 1
 759 657 l 1
 771 730 l 1
 1261 730 l 1
 1249 657 l 1
 764 75 l 1
 763 73 l 1
 1156 73 l 1
 1145 0 l 1
 655 0 l 1
 666 73 l 1
851 980 m 1
 944 980 l 1
 1024 808 l 1
 1026 808 l 1
 1160 980 l 1
 1253 980 l 1
 1086 770 l 1
 951 770 l 1
 851 980 l 1
EndSplineSet
EndChar

StartChar: Eth
Encoding: 208 208 38
Width: 712
Flags: W
LayerCount: 2
Fore
SplineSet
640 640 m 0
 691 579 706 488 687 365 c 0
 668 242 623 151 554 90 c 0
 484 30 388 0 267 0 c 2
 86 0 l 1
 139 332 l 1
 33 332 l 1
 44 398 l 1
 149 398 l 1
 202 730 l 1
 382 730 l 2
 504 730 590 700 640 640 c 0
504 144 m 0
 557 190 591 264 607 365 c 0
 623 466 612 540 575 586 c 0
 538 634 471 657 375 657 c 2
 269 657 l 1
 228 398 l 1
 450 398 l 1
 440 332 l 1
 217 332 l 1
 176 73 l 1
 282 73 l 2
 378 73 452 96 504 144 c 0
EndSplineSet
EndChar

StartChar: Dcaron
Encoding: 270 270 39
Width: 681
Flags: W
LayerCount: 2
Fore
SplineSet
327 730 m 2
 448 730 534 700 585 640 c 0
 636 579 651 488 632 365 c 0
 613 242 568 151 498 90 c 0
 429 30 333 0 212 0 c 2
 32 0 l 1
 148 730 l 1
 327 730 l 2
450 144 m 0
 503 190 537 264 553 365 c 0
 569 466 558 540 520 586 c 0
 483 634 416 657 321 657 c 2
 215 657 l 1
 122 73 l 1
 228 73 l 2
 323 73 397 96 450 144 c 0
235 980 m 1
 328 980 l 1
 408 808 l 1
 410 808 l 1
 544 980 l 1
 637 980 l 1
 470 770 l 1
 335 770 l 1
 235 980 l 1
EndSplineSet
EndChar

StartChar: Dcroat
Encoding: 272 272 40
Width: 732
Flags: W
LayerCount: 2
Fore
SplineSet
640 640 m 0
 691 579 706 488 687 365 c 0
 668 242 623 151 554 90 c 0
 484 30 388 0 267 0 c 2
 86 0 l 1
 139 332 l 1
 33 332 l 1
 44 398 l 1
 149 398 l 1
 202 730 l 1
 382 730 l 2
 504 730 590 700 640 640 c 0
504 144 m 0
 557 190 591 264 607 365 c 0
 623 466 612 540 575 586 c 0
 538 634 471 657 375 657 c 2
 269 657 l 1
 228 398 l 1
 450 398 l 1
 440 332 l 1
 217 332 l 1
 176 73 l 1
 282 73 l 2
 378 73 452 96 504 144 c 0
EndSplineSet
EndChar

StartChar: uni01C5
Encoding: 453 453 41
Width: 1180
Flags: W
LayerCount: 2
Fore
SplineSet
327 730 m 2
 448 730 534 700 585 640 c 0
 636 579 651 488 632 365 c 0
 613 242 568 151 498 90 c 0
 429 30 333 0 212 0 c 2
 32 0 l 1
 148 730 l 1
 327 730 l 2
450 144 m 0
 503 190 537 264 553 365 c 0
 569 466 558 540 520 586 c 0
 483 634 416 657 321 657 c 2
 215 657 l 1
 122 73 l 1
 228 73 l 2
 323 73 397 96 450 144 c 0
685 67 m 1
 1034 451 l 1
 1035 453 l 1
 746 453 l 1
 757 520 l 1
 1139 520 l 1
 1129 453 l 1
 779 69 l 1
 779 67 l 1
 1068 67 l 1
 1057 0 l 1
 674 0 l 1
 685 67 l 1
787 770 m 1
 880 770 l 1
 960 598 l 1
 962 598 l 1
 1096 770 l 1
 1189 770 l 1
 1022 560 l 1
 887 560 l 1
 787 770 l 1
EndSplineSet
EndChar

StartChar: E
Encoding: 69 69 42
Width: 572
Flags: W
LayerCount: 2
Fore
SplineSet
148 730 m 1
 582 730 l 1
 571 658 l 1
 215 658 l 1
 177 420 l 1
 513 420 l 1
 502 350 l 1
 166 350 l 1
 122 72 l 1
 478 72 l 1
 466 0 l 1
 32 0 l 1
 148 730 l 1
EndSplineSet
EndChar

StartChar: Eacute
Encoding: 201 201 43
Width: 595
Flags: W
LayerCount: 2
Fore
SplineSet
148 730 m 1
 582 730 l 1
 571 658 l 1
 215 658 l 1
 177 420 l 1
 513 420 l 1
 502 350 l 1
 166 350 l 1
 122 72 l 1
 478 72 l 1
 466 0 l 1
 32 0 l 1
 148 730 l 1
397 770 m 1
 317 770 l 1
 452 980 l 1
 551 980 l 1
 397 770 l 1
EndSplineSet
EndChar

StartChar: Ebreve
Encoding: 276 276 44
Width: 595
Flags: W
LayerCount: 2
Fore
SplineSet
148 730 m 1
 582 730 l 1
 571 658 l 1
 215 658 l 1
 177 420 l 1
 513 420 l 1
 502 350 l 1
 166 350 l 1
 122 72 l 1
 478 72 l 1
 466 0 l 1
 32 0 l 1
 148 730 l 1
250 833 m 0
 220 862 207 899 210 944 c 1
 293 944 l 1
 292 915 300 893 316 878 c 0
 331 863 353 855 382 855 c 0
 411 855 435 863 455 878 c 0
 475 893 489 915 498 944 c 1
 581 944 l 1
 570 899 545 862 506 833 c 0
 467 804 423 790 372 790 c 0
 320 790 279 804 250 833 c 0
EndSplineSet
EndChar

StartChar: Ecaron
Encoding: 282 282 45
Width: 595
Flags: W
LayerCount: 2
Fore
SplineSet
148 730 m 1
 582 730 l 1
 571 658 l 1
 215 658 l 1
 177 420 l 1
 513 420 l 1
 502 350 l 1
 166 350 l 1
 122 72 l 1
 478 72 l 1
 466 0 l 1
 32 0 l 1
 148 730 l 1
205 980 m 1
 298 980 l 1
 378 808 l 1
 380 808 l 1
 514 980 l 1
 607 980 l 1
 440 770 l 1
 305 770 l 1
 205 980 l 1
EndSplineSet
EndChar

StartChar: Ecircumflex
Encoding: 202 202 46
Width: 595
Flags: W
LayerCount: 2
Fore
SplineSet
148 730 m 1
 582 730 l 1
 571 658 l 1
 215 658 l 1
 177 420 l 1
 513 420 l 1
 502 350 l 1
 166 350 l 1
 122 72 l 1
 478 72 l 1
 466 0 l 1
 32 0 l 1
 148 730 l 1
337 980 m 1
 473 980 l 1
 573 770 l 1
 480 770 l 1
 400 942 l 1
 398 942 l 1
 264 770 l 1
 171 770 l 1
 337 980 l 1
EndSplineSet
EndChar

StartChar: uni1EBE
Encoding: 7870 7870 47
Width: 595
Flags: W
LayerCount: 2
Fore
SplineSet
148 730 m 1
 582 730 l 1
 571 658 l 1
 215 658 l 1
 177 420 l 1
 513 420 l 1
 502 350 l 1
 166 350 l 1
 122 72 l 1
 478 72 l 1
 466 0 l 1
 32 0 l 1
 148 730 l 1
337 980 m 1
 473 980 l 1
 573 770 l 1
 480 770 l 1
 400 942 l 1
 398 942 l 1
 264 770 l 1
 171 770 l 1
 337 980 l 1
623 950 m 1
 543 950 l 1
 678 1160 l 1
 777 1160 l 1
 623 950 l 1
EndSplineSet
EndChar

StartChar: uni1EC6
Encoding: 7878 7878 48
Width: 595
Flags: W
LayerCount: 2
Fore
SplineSet
148 730 m 1
 582 730 l 1
 571 658 l 1
 215 658 l 1
 177 420 l 1
 513 420 l 1
 502 350 l 1
 166 350 l 1
 122 72 l 1
 478 72 l 1
 466 0 l 1
 32 0 l 1
 148 730 l 1
209 -93 m 1
 311 -93 l 1
 295 -197 l 1
 193 -197 l 1
 209 -93 l 1
337 980 m 1
 473 980 l 1
 573 770 l 1
 480 770 l 1
 400 942 l 1
 398 942 l 1
 264 770 l 1
 171 770 l 1
 337 980 l 1
EndSplineSet
EndChar

StartChar: uni1EC0
Encoding: 7872 7872 49
Width: 595
Flags: W
LayerCount: 2
Fore
SplineSet
148 730 m 1
 582 730 l 1
 571 658 l 1
 215 658 l 1
 177 420 l 1
 513 420 l 1
 502 350 l 1
 166 350 l 1
 122 72 l 1
 478 72 l 1
 466 0 l 1
 32 0 l 1
 148 730 l 1
337 980 m 1
 473 980 l 1
 573 770 l 1
 480 770 l 1
 400 942 l 1
 398 942 l 1
 264 770 l 1
 171 770 l 1
 337 980 l 1
80 1160 m 1
 179 1160 l 1
 247 950 l 1
 167 950 l 1
 80 1160 l 1
EndSplineSet
EndChar

StartChar: uni1EC2
Encoding: 7874 7874 50
Width: 595
Flags: W
LayerCount: 2
Fore
SplineSet
148 730 m 1
 582 730 l 1
 571 658 l 1
 215 658 l 1
 177 420 l 1
 513 420 l 1
 502 350 l 1
 166 350 l 1
 122 72 l 1
 478 72 l 1
 466 0 l 1
 32 0 l 1
 148 730 l 1
337 980 m 1
 473 980 l 1
 573 770 l 1
 480 770 l 1
 400 942 l 1
 398 942 l 1
 264 770 l 1
 171 770 l 1
 337 980 l 1
576 967 m 0
 581 982 585 994 586 1004 c 0
 589 1021 585 1032 574 1038 c 0
 564 1043 544 1046 514 1046 c 0
 473 1046 432 1040 391 1029 c 1
 393 1093 l 1
 439 1104 488 1110 541 1110 c 0
 578 1110 607 1108 626 1103 c 0
 646 1098 660 1090 667 1079 c 0
 674 1068 676 1052 673 1031 c 0
 671 1016 667 999 660 980 c 0
 653 961 646 944 639 930 c 1
 560 930 l 1
 565 940 571 952 576 967 c 0
EndSplineSet
EndChar

StartChar: uni1EC4
Encoding: 7876 7876 51
Width: 595
Flags: W
LayerCount: 2
Fore
SplineSet
148 730 m 1
 582 730 l 1
 571 658 l 1
 215 658 l 1
 177 420 l 1
 513 420 l 1
 502 350 l 1
 166 350 l 1
 122 72 l 1
 478 72 l 1
 466 0 l 1
 32 0 l 1
 148 730 l 1
337 980 m 1
 473 980 l 1
 573 770 l 1
 480 770 l 1
 400 942 l 1
 398 942 l 1
 264 770 l 1
 171 770 l 1
 337 980 l 1
400 1040 m 0
 373 1062 351 1073 334 1073 c 0
 323 1073 315 1068 308 1057 c 0
 302 1046 297 1028 293 1003 c 1
 220 1003 l 1
 228 1053 241 1090 259 1114 c 0
 277 1139 301 1151 331 1151 c 0
 362 1151 396 1135 434 1104 c 0
 460 1082 482 1071 499 1071 c 0
 510 1071 518 1076 525 1087 c 0
 532 1098 537 1116 541 1141 c 1
 613 1141 l 1
 605 1091 592 1054 574 1030 c 0
 557 1005 533 993 504 993 c 0
 474 993 439 1009 400 1040 c 0
EndSplineSet
EndChar

StartChar: uni0204
Encoding: 516 516 52
Width: 595
Flags: W
LayerCount: 2
Fore
SplineSet
148 730 m 1
 582 730 l 1
 571 658 l 1
 215 658 l 1
 177 420 l 1
 513 420 l 1
 502 350 l 1
 166 350 l 1
 122 72 l 1
 478 72 l 1
 466 0 l 1
 32 0 l 1
 148 730 l 1
160 980 m 1
 259 980 l 1
 327 770 l 1
 247 770 l 1
 160 980 l 1
366 980 m 1
 465 980 l 1
 533 770 l 1
 453 770 l 1
 366 980 l 1
EndSplineSet
EndChar

StartChar: Edieresis
Encoding: 203 203 53
Width: 595
Flags: W
LayerCount: 2
Fore
SplineSet
148 730 m 1
 582 730 l 1
 571 658 l 1
 215 658 l 1
 177 420 l 1
 513 420 l 1
 502 350 l 1
 166 350 l 1
 122 72 l 1
 478 72 l 1
 466 0 l 1
 32 0 l 1
 148 730 l 1
219 927 m 1
 321 927 l 1
 304 823 l 1
 202 823 l 1
 219 927 l 1
463 927 m 1
 565 927 l 1
 548 823 l 1
 446 823 l 1
 463 927 l 1
EndSplineSet
EndChar

StartChar: Edotaccent
Encoding: 278 278 54
Width: 595
Flags: W
LayerCount: 2
Fore
SplineSet
148 730 m 1
 582 730 l 1
 571 658 l 1
 215 658 l 1
 177 420 l 1
 513 420 l 1
 502 350 l 1
 166 350 l 1
 122 72 l 1
 478 72 l 1
 466 0 l 1
 32 0 l 1
 148 730 l 1
371 927 m 1
 473 927 l 1
 457 823 l 1
 355 823 l 1
 371 927 l 1
EndSplineSet
EndChar

StartChar: uni1EB8
Encoding: 7864 7864 55
Width: 595
Flags: W
LayerCount: 2
Fore
SplineSet
148 730 m 1
 582 730 l 1
 571 658 l 1
 215 658 l 1
 177 420 l 1
 513 420 l 1
 502 350 l 1
 166 350 l 1
 122 72 l 1
 478 72 l 1
 466 0 l 1
 32 0 l 1
 148 730 l 1
209 -93 m 1
 311 -93 l 1
 295 -197 l 1
 193 -197 l 1
 209 -93 l 1
EndSplineSet
EndChar

StartChar: Egrave
Encoding: 200 200 56
Width: 595
Flags: W
LayerCount: 2
Fore
SplineSet
148 730 m 1
 582 730 l 1
 571 658 l 1
 215 658 l 1
 177 420 l 1
 513 420 l 1
 502 350 l 1
 166 350 l 1
 122 72 l 1
 478 72 l 1
 466 0 l 1
 32 0 l 1
 148 730 l 1
248 980 m 1
 347 980 l 1
 415 770 l 1
 335 770 l 1
 248 980 l 1
EndSplineSet
EndChar

StartChar: uni1EBA
Encoding: 7866 7866 57
Width: 595
Flags: W
LayerCount: 2
Fore
SplineSet
148 730 m 1
 582 730 l 1
 571 658 l 1
 215 658 l 1
 177 420 l 1
 513 420 l 1
 502 350 l 1
 166 350 l 1
 122 72 l 1
 478 72 l 1
 466 0 l 1
 32 0 l 1
 148 730 l 1
481 837 m 0
 486 852 490 864 491 874 c 0
 494 891 490 902 480 908 c 0
 469 913 449 916 419 916 c 0
 378 916 337 910 296 899 c 1
 298 963 l 1
 344 974 393 980 446 980 c 0
 483 980 512 978 532 973 c 0
 551 968 565 960 572 949 c 0
 579 938 581 922 578 901 c 0
 576 886 572 869 565 850 c 0
 558 831 551 814 544 800 c 1
 465 800 l 1
 470 810 476 822 481 837 c 0
EndSplineSet
EndChar

StartChar: uni0206
Encoding: 518 518 58
Width: 595
Flags: W
LayerCount: 2
Fore
SplineSet
148 730 m 1
 582 730 l 1
 571 658 l 1
 215 658 l 1
 177 420 l 1
 513 420 l 1
 502 350 l 1
 166 350 l 1
 122 72 l 1
 478 72 l 1
 466 0 l 1
 32 0 l 1
 148 730 l 1
510 917 m 0
 539 888 552 851 549 806 c 1
 466 806 l 1
 467 835 459 857 444 872 c 0
 429 887 407 895 378 895 c 0
 349 895 325 887 304 872 c 0
 284 857 270 835 261 806 c 1
 178 806 l 1
 189 851 214 888 253 917 c 0
 292 946 337 960 389 960 c 0
 440 960 480 946 510 917 c 0
EndSplineSet
EndChar

StartChar: Emacron
Encoding: 274 274 59
Width: 595
Flags: W
LayerCount: 2
Fore
SplineSet
148 730 m 1
 582 730 l 1
 571 658 l 1
 215 658 l 1
 177 420 l 1
 513 420 l 1
 502 350 l 1
 166 350 l 1
 122 72 l 1
 478 72 l 1
 466 0 l 1
 32 0 l 1
 148 730 l 1
262 907 m 1
 617 907 l 1
 607 843 l 1
 251 843 l 1
 262 907 l 1
EndSplineSet
EndChar

StartChar: Eogonek
Encoding: 280 280 60
Width: 578
Flags: W
LayerCount: 2
Fore
SplineSet
523 -197 m 1
 490 -211 452 -218 410 -218 c 0
 361 -218 325 -209 304 -191 c 0
 283 -173 274 -149 279 -120 c 0
 286 -77 316 -37 369 0 c 1
 32 0 l 1
 148 730 l 1
 582 730 l 1
 571 658 l 1
 215 658 l 1
 177 420 l 1
 513 420 l 1
 502 350 l 1
 166 350 l 1
 122 72 l 1
 478 72 l 1
 466 0 l 1
 433 -18 406 -36 387 -54 c 0
 368 -73 357 -90 354 -107 c 0
 351 -123 357 -135 370 -142 c 0
 383 -149 402 -153 427 -153 c 0
 460 -153 490 -147 519 -134 c 1
 523 -197 l 1
EndSplineSet
EndChar

StartChar: uni1EBC
Encoding: 7868 7868 61
Width: 595
Flags: W
LayerCount: 2
Fore
SplineSet
148 730 m 1
 582 730 l 1
 571 658 l 1
 215 658 l 1
 177 420 l 1
 513 420 l 1
 502 350 l 1
 166 350 l 1
 122 72 l 1
 478 72 l 1
 466 0 l 1
 32 0 l 1
 148 730 l 1
369 843 m 0
 342 865 320 876 303 876 c 0
 292 876 284 871 278 860 c 0
 271 849 266 831 262 806 c 1
 189 806 l 1
 197 856 210 893 228 918 c 0
 246 942 270 954 300 954 c 0
 331 954 365 938 403 907 c 0
 429 885 451 874 468 874 c 0
 479 874 487 879 494 890 c 0
 501 901 506 919 510 944 c 1
 582 944 l 1
 574 894 561 857 544 832 c 0
 526 808 502 796 473 796 c 0
 443 796 408 812 369 843 c 0
EndSplineSet
EndChar

StartChar: F
Encoding: 70 70 62
Width: 558
Flags: W
LayerCount: 2
Fore
SplineSet
148 730 m 1
 582 730 l 1
 571 657 l 1
 215 657 l 1
 176 410 l 1
 512 410 l 1
 500 338 l 1
 164 338 l 1
 111 0 l 1
 32 0 l 1
 148 730 l 1
EndSplineSet
EndChar

StartChar: G
Encoding: 71 71 63
Width: 751
Flags: W
LayerCount: 2
Fore
SplineSet
706 418 m 1
 647 46 l 1
 609 29 566 15 517 5 c 0
 468 -5 421 -10 374 -10 c 0
 295 -10 229 5 176 35 c 0
 124 65 87 108 65 164 c 0
 43 220 38 287 51 365 c 0
 64 443 90 510 129 566 c 0
 168 622 219 665 281 695 c 0
 343 725 414 740 493 740 c 0
 586 740 663 719 722 678 c 1
 680 615 l 1
 625 650 559 668 481 668 c 0
 385 668 306 642 246 589 c 0
 184 536 146 462 131 365 c 0
 116 268 130 194 174 141 c 0
 219 88 289 62 385 62 c 0
 416 62 449 65 483 71 c 0
 517 77 548 85 577 96 c 1
 617 348 l 1
 362 348 l 1
 373 418 l 1
 706 418 l 1
EndSplineSet
EndChar

StartChar: Gbreve
Encoding: 286 286 64
Width: 775
Flags: W
LayerCount: 2
Fore
SplineSet
706 418 m 1
 647 46 l 1
 609 29 566 15 517 5 c 0
 468 -5 421 -10 374 -10 c 0
 295 -10 229 5 176 35 c 0
 124 65 87 108 65 164 c 0
 43 220 38 287 51 365 c 0
 64 443 90 510 129 566 c 0
 168 622 219 665 281 695 c 0
 343 725 414 740 493 740 c 0
 586 740 663 719 722 678 c 1
 680 615 l 1
 625 650 559 668 481 668 c 0
 385 668 306 642 246 589 c 0
 184 536 146 462 131 365 c 0
 116 268 130 194 174 141 c 0
 219 88 289 62 385 62 c 0
 416 62 449 65 483 71 c 0
 517 77 548 85 577 96 c 1
 617 348 l 1
 362 348 l 1
 373 418 l 1
 706 418 l 1
346 833 m 0
 317 862 304 899 307 944 c 1
 390 944 l 1
 389 915 397 893 412 878 c 0
 428 863 450 855 479 855 c 0
 508 855 532 863 552 878 c 0
 572 893 586 915 595 944 c 1
 678 944 l 1
 667 899 642 862 603 833 c 0
 564 804 520 790 469 790 c 0
 417 790 376 804 346 833 c 0
EndSplineSet
EndChar

StartChar: Gcaron
Encoding: 486 486 65
Width: 775
Flags: W
LayerCount: 2
Fore
SplineSet
706 418 m 1
 647 46 l 1
 609 29 566 15 517 5 c 0
 468 -5 421 -10 374 -10 c 0
 295 -10 229 5 176 35 c 0
 124 65 87 108 65 164 c 0
 43 220 38 287 51 365 c 0
 64 443 90 510 129 566 c 0
 168 622 219 665 281 695 c 0
 343 725 414 740 493 740 c 0
 586 740 663 719 722 678 c 1
 680 615 l 1
 625 650 559 668 481 668 c 0
 385 668 306 642 246 589 c 0
 184 536 146 462 131 365 c 0
 116 268 130 194 174 141 c 0
 219 88 289 62 385 62 c 0
 416 62 449 65 483 71 c 0
 517 77 548 85 577 96 c 1
 617 348 l 1
 362 348 l 1
 373 418 l 1
 706 418 l 1
301 980 m 1
 394 980 l 1
 474 808 l 1
 476 808 l 1
 610 980 l 1
 703 980 l 1
 536 770 l 1
 401 770 l 1
 301 980 l 1
EndSplineSet
EndChar

StartChar: Gcircumflex
Encoding: 284 284 66
Width: 775
Flags: W
LayerCount: 2
Fore
SplineSet
706 418 m 1
 647 46 l 1
 609 29 566 15 517 5 c 0
 468 -5 421 -10 374 -10 c 0
 295 -10 229 5 176 35 c 0
 124 65 87 108 65 164 c 0
 43 220 38 287 51 365 c 0
 64 443 90 510 129 566 c 0
 168 622 219 665 281 695 c 0
 343 725 414 740 493 740 c 0
 586 740 663 719 722 678 c 1
 680 615 l 1
 625 650 559 668 481 668 c 0
 385 668 306 642 246 589 c 0
 184 536 146 462 131 365 c 0
 116 268 130 194 174 141 c 0
 219 88 289 62 385 62 c 0
 416 62 449 65 483 71 c 0
 517 77 548 85 577 96 c 1
 617 348 l 1
 362 348 l 1
 373 418 l 1
 706 418 l 1
434 980 m 1
 570 980 l 1
 670 770 l 1
 577 770 l 1
 497 942 l 1
 495 942 l 1
 361 770 l 1
 268 770 l 1
 434 980 l 1
EndSplineSet
EndChar

StartChar: uni0122
Encoding: 290 290 67
Width: 775
Flags: W
LayerCount: 2
Fore
SplineSet
706 418 m 1
 647 46 l 1
 609 29 566 15 517 5 c 0
 468 -5 421 -10 374 -10 c 0
 295 -10 229 5 176 35 c 0
 124 65 87 108 65 164 c 0
 43 220 38 287 51 365 c 0
 64 443 90 510 129 566 c 0
 168 622 219 665 281 695 c 0
 343 725 414 740 493 740 c 0
 586 740 663 719 722 678 c 1
 680 615 l 1
 625 650 559 668 481 668 c 0
 385 668 306 642 246 589 c 0
 184 536 146 462 131 365 c 0
 116 268 130 194 174 141 c 0
 219 88 289 62 385 62 c 0
 416 62 449 65 483 71 c 0
 517 77 548 85 577 96 c 1
 617 348 l 1
 362 348 l 1
 373 418 l 1
 706 418 l 1
239 -250 m 1
 160 -250 l 1
 294 -40 l 1
 393 -40 l 1
 239 -250 l 1
EndSplineSet
EndChar

StartChar: Gdotaccent
Encoding: 288 288 68
Width: 775
Flags: W
LayerCount: 2
Fore
SplineSet
706 418 m 1
 647 46 l 1
 609 29 566 15 517 5 c 0
 468 -5 421 -10 374 -10 c 0
 295 -10 229 5 176 35 c 0
 124 65 87 108 65 164 c 0
 43 220 38 287 51 365 c 0
 64 443 90 510 129 566 c 0
 168 622 219 665 281 695 c 0
 343 725 414 740 493 740 c 0
 586 740 663 719 722 678 c 1
 680 615 l 1
 625 650 559 668 481 668 c 0
 385 668 306 642 246 589 c 0
 184 536 146 462 131 365 c 0
 116 268 130 194 174 141 c 0
 219 88 289 62 385 62 c 0
 416 62 449 65 483 71 c 0
 517 77 548 85 577 96 c 1
 617 348 l 1
 362 348 l 1
 373 418 l 1
 706 418 l 1
468 927 m 1
 570 927 l 1
 554 823 l 1
 452 823 l 1
 468 927 l 1
EndSplineSet
EndChar

StartChar: H
Encoding: 72 72 69
Width: 683
Flags: W
LayerCount: 2
Fore
SplineSet
599 730 m 1
 677 730 l 1
 562 0 l 1
 483 0 l 1
 539 350 l 1
 166 350 l 1
 111 0 l 1
 32 0 l 1
 148 730 l 1
 226 730 l 1
 178 423 l 1
 550 423 l 1
 599 730 l 1
EndSplineSet
EndChar

StartChar: Hbar
Encoding: 294 294 70
Width: 764
Flags: W
LayerCount: 2
Fore
SplineSet
792 629 m 1
 782 563 l 1
 691 563 l 1
 602 0 l 1
 523 0 l 1
 579 350 l 1
 206 350 l 1
 151 0 l 1
 73 0 l 1
 162 563 l 1
 71 563 l 1
 81 629 l 1
 172 629 l 1
 188 730 l 1
 267 730 l 1
 251 629 l 1
 623 629 l 1
 639 730 l 1
 717 730 l 1
 701 629 l 1
 792 629 l 1
590 423 m 1
 613 563 l 1
 240 563 l 1
 218 423 l 1
 590 423 l 1
EndSplineSet
EndChar

StartChar: Hcircumflex
Encoding: 292 292 71
Width: 710
Flags: W
LayerCount: 2
Fore
SplineSet
599 730 m 1
 677 730 l 1
 562 0 l 1
 483 0 l 1
 539 350 l 1
 166 350 l 1
 111 0 l 1
 32 0 l 1
 148 730 l 1
 226 730 l 1
 178 423 l 1
 550 423 l 1
 599 730 l 1
382 980 m 1
 518 980 l 1
 618 770 l 1
 525 770 l 1
 445 942 l 1
 443 942 l 1
 309 770 l 1
 216 770 l 1
 382 980 l 1
EndSplineSet
EndChar

StartChar: I
Encoding: 73 73 72
Width: 251
Flags: W
LayerCount: 2
Fore
SplineSet
156 730 m 1
 237 730 l 1
 121 0 l 1
 41 0 l 1
 156 730 l 1
EndSplineSet
EndChar

StartChar: Iacute
Encoding: 205 205 73
Width: 270
Flags: W
LayerCount: 2
Fore
SplineSet
156 730 m 1
 237 730 l 1
 121 0 l 1
 41 0 l 1
 156 730 l 1
222 770 m 1
 142 770 l 1
 277 980 l 1
 376 980 l 1
 222 770 l 1
EndSplineSet
EndChar

StartChar: Ibreve
Encoding: 300 300 74
Width: 270
Flags: W
LayerCount: 2
Fore
SplineSet
156 730 m 1
 237 730 l 1
 121 0 l 1
 41 0 l 1
 156 730 l 1
74 833 m 0
 45 862 32 899 35 944 c 1
 118 944 l 1
 117 915 125 893 140 878 c 0
 156 863 178 855 207 855 c 0
 236 855 260 863 280 878 c 0
 300 893 314 915 323 944 c 1
 406 944 l 1
 395 899 370 862 331 833 c 0
 292 804 248 790 197 790 c 0
 145 790 104 804 74 833 c 0
EndSplineSet
EndChar

StartChar: Icircumflex
Encoding: 206 206 75
Width: 270
Flags: W
LayerCount: 2
Fore
SplineSet
156 730 m 1
 237 730 l 1
 121 0 l 1
 41 0 l 1
 156 730 l 1
162 980 m 1
 298 980 l 1
 398 770 l 1
 305 770 l 1
 225 942 l 1
 223 942 l 1
 89 770 l 1
 -4 770 l 1
 162 980 l 1
EndSplineSet
EndChar

StartChar: uni0208
Encoding: 520 520 76
Width: 270
Flags: W
LayerCount: 2
Fore
SplineSet
156 730 m 1
 237 730 l 1
 121 0 l 1
 41 0 l 1
 156 730 l 1
-15 980 m 1
 84 980 l 1
 152 770 l 1
 72 770 l 1
 -15 980 l 1
191 980 m 1
 290 980 l 1
 358 770 l 1
 278 770 l 1
 191 980 l 1
EndSplineSet
EndChar

StartChar: Idieresis
Encoding: 207 207 77
Width: 270
Flags: W
LayerCount: 2
Fore
SplineSet
156 730 m 1
 237 730 l 1
 121 0 l 1
 41 0 l 1
 156 730 l 1
44 927 m 1
 146 927 l 1
 129 823 l 1
 27 823 l 1
 44 927 l 1
288 927 m 1
 390 927 l 1
 373 823 l 1
 271 823 l 1
 288 927 l 1
EndSplineSet
EndChar

StartChar: Idotaccent
Encoding: 304 304 78
Width: 270
Flags: W
LayerCount: 2
Fore
SplineSet
156 730 m 1
 237 730 l 1
 121 0 l 1
 41 0 l 1
 156 730 l 1
196 927 m 1
 298 927 l 1
 282 823 l 1
 180 823 l 1
 196 927 l 1
EndSplineSet
EndChar

StartChar: uni1ECA
Encoding: 7882 7882 79
Width: 270
Flags: W
LayerCount: 2
Fore
SplineSet
156 730 m 1
 237 730 l 1
 121 0 l 1
 41 0 l 1
 156 730 l 1
34 -93 m 1
 136 -93 l 1
 120 -197 l 1
 18 -197 l 1
 34 -93 l 1
EndSplineSet
EndChar

StartChar: Igrave
Encoding: 204 204 80
Width: 270
Flags: W
LayerCount: 2
Fore
SplineSet
156 730 m 1
 237 730 l 1
 121 0 l 1
 41 0 l 1
 156 730 l 1
73 980 m 1
 172 980 l 1
 240 770 l 1
 160 770 l 1
 73 980 l 1
EndSplineSet
EndChar

StartChar: uni1EC8
Encoding: 7880 7880 81
Width: 270
Flags: W
LayerCount: 2
Fore
SplineSet
156 730 m 1
 237 730 l 1
 121 0 l 1
 41 0 l 1
 156 730 l 1
306 837 m 0
 311 852 315 864 316 874 c 0
 319 891 315 902 304 908 c 0
 294 913 274 916 244 916 c 0
 203 916 162 910 121 899 c 1
 123 963 l 1
 169 974 218 980 271 980 c 0
 308 980 337 978 356 973 c 0
 376 968 390 960 397 949 c 0
 404 938 406 922 403 901 c 0
 401 886 397 869 390 850 c 0
 383 831 376 814 369 800 c 1
 290 800 l 1
 295 810 301 822 306 837 c 0
EndSplineSet
EndChar

StartChar: uni020A
Encoding: 522 522 82
Width: 270
Flags: W
LayerCount: 2
Fore
SplineSet
156 730 m 1
 237 730 l 1
 121 0 l 1
 41 0 l 1
 156 730 l 1
334 917 m 0
 364 888 377 851 374 806 c 1
 291 806 l 1
 292 835 284 857 269 872 c 0
 254 887 232 895 203 895 c 0
 174 895 150 887 130 872 c 0
 109 857 95 835 86 806 c 1
 3 806 l 1
 14 851 39 888 78 917 c 0
 117 946 162 960 214 960 c 0
 265 960 305 946 334 917 c 0
EndSplineSet
EndChar

StartChar: Imacron
Encoding: 298 298 83
Width: 270
Flags: W
LayerCount: 2
Fore
SplineSet
156 730 m 1
 237 730 l 1
 121 0 l 1
 41 0 l 1
 156 730 l 1
87 907 m 1
 442 907 l 1
 432 843 l 1
 76 843 l 1
 87 907 l 1
EndSplineSet
EndChar

StartChar: Iogonek
Encoding: 302 302 84
Width: 263
Flags: W
LayerCount: 2
Fore
SplineSet
183 -197 m 1
 150 -211 112 -218 71 -218 c 0
 22 -218 -14 -209 -35 -191 c 0
 -56 -173 -65 -149 -60 -120 c 0
 -53 -74 -16 -30 49 13 c 1
 162 730 l 1
 243 730 l 1
 127 0 l 1
 94 -18 67 -36 48 -54 c 0
 29 -73 18 -90 15 -107 c 0
 12 -123 18 -135 31 -142 c 0
 44 -149 63 -153 87 -153 c 0
 120 -153 150 -147 179 -134 c 1
 183 -197 l 1
EndSplineSet
EndChar

StartChar: Itilde
Encoding: 296 296 85
Width: 270
Flags: W
LayerCount: 2
Fore
SplineSet
156 730 m 1
 237 730 l 1
 121 0 l 1
 41 0 l 1
 156 730 l 1
194 843 m 0
 167 865 145 876 128 876 c 0
 117 876 109 871 102 860 c 0
 96 849 91 831 87 806 c 1
 14 806 l 1
 22 856 35 893 53 918 c 0
 71 942 95 954 125 954 c 0
 156 954 190 938 228 907 c 0
 254 885 276 874 293 874 c 0
 304 874 312 879 319 890 c 0
 326 901 331 919 335 944 c 1
 407 944 l 1
 399 894 386 857 368 832 c 0
 351 808 327 796 298 796 c 0
 268 796 233 812 194 843 c 0
EndSplineSet
EndChar

StartChar: J
Encoding: 74 74 86
Width: 543
Flags: W
LayerCount: 2
Fore
SplineSet
64 4 m 0
 30 14 -1 28 -28 47 c 1
 11 114 l 1
 36 98 63 86 92 76 c 0
 121 68 151 63 182 63 c 0
 242 63 289 81 324 116 c 0
 359 151 382 206 394 280 c 2
 465 730 l 1
 545 730 l 1
 474 280 l 2
 459 181 427 108 378 61 c 0
 329 14 262 -10 177 -10 c 0
 137 -10 100 -5 64 4 c 0
EndSplineSet
EndChar

StartChar: Jcircumflex
Encoding: 308 308 87
Width: 561
Flags: W
LayerCount: 2
Fore
SplineSet
64 4 m 0
 30 14 -1 28 -28 47 c 1
 11 114 l 1
 36 98 63 86 92 76 c 0
 121 68 151 63 182 63 c 0
 242 63 289 81 324 116 c 0
 359 151 382 206 394 280 c 2
 465 730 l 1
 545 730 l 1
 474 280 l 2
 459 181 427 108 378 61 c 0
 329 14 262 -10 177 -10 c 0
 137 -10 100 -5 64 4 c 0
308 980 m 1
 444 980 l 1
 544 770 l 1
 451 770 l 1
 371 942 l 1
 369 942 l 1
 235 770 l 1
 142 770 l 1
 308 980 l 1
EndSplineSet
EndChar

StartChar: K
Encoding: 75 75 88
Width: 617
Flags: W
LayerCount: 2
Fore
SplineSet
148 730 m 1
 226 730 l 1
 176 415 l 1
 178 415 l 1
 558 730 l 1
 658 730 l 1
 245 387 l 1
 552 0 l 1
 453 0 l 1
 170 359 l 1
 168 359 l 1
 111 0 l 1
 32 0 l 1
 148 730 l 1
EndSplineSet
EndChar

StartChar: uni0136
Encoding: 310 310 89
Width: 638
Flags: W
LayerCount: 2
Fore
SplineSet
148 730 m 1
 226 730 l 1
 176 415 l 1
 178 415 l 1
 558 730 l 1
 658 730 l 1
 245 387 l 1
 552 0 l 1
 453 0 l 1
 170 359 l 1
 168 359 l 1
 111 0 l 1
 32 0 l 1
 148 730 l 1
133 -250 m 1
 54 -250 l 1
 188 -40 l 1
 287 -40 l 1
 133 -250 l 1
EndSplineSet
EndChar

StartChar: L
Encoding: 76 76 90
Width: 564
Flags: W
LayerCount: 2
Fore
SplineSet
148 730 m 1
 228 730 l 1
 124 73 l 1
 495 73 l 1
 483 0 l 1
 32 0 l 1
 148 730 l 1
EndSplineSet
EndChar

StartChar: uni01C7
Encoding: 455 455 91
Width: 1166
Flags: W
LayerCount: 2
Fore
SplineSet
148 730 m 1
 228 730 l 1
 124 73 l 1
 495 73 l 1
 483 0 l 1
 32 0 l 1
 148 730 l 1
670 4 m 0
 634 14 604 28 577 47 c 1
 616 114 l 1
 641 98 668 86 697 76 c 0
 726 68 756 63 787 63 c 0
 847 63 894 81 929 116 c 0
 964 151 987 206 999 280 c 2
 1070 730 l 1
 1150 730 l 1
 1079 280 l 2
 1064 181 1032 108 983 61 c 0
 934 14 867 -10 782 -10 c 0
 742 -10 704 -5 670 4 c 0
EndSplineSet
EndChar

StartChar: Lacute
Encoding: 313 313 92
Width: 585
Flags: W
LayerCount: 2
Fore
SplineSet
148 730 m 1
 228 730 l 1
 124 73 l 1
 495 73 l 1
 483 0 l 1
 32 0 l 1
 148 730 l 1
379 770 m 1
 299 770 l 1
 434 980 l 1
 533 980 l 1
 379 770 l 1
EndSplineSet
EndChar

StartChar: Lcaron
Encoding: 317 317 93
Width: 609
Flags: W
LayerCount: 2
Fore
SplineSet
148 730 m 1
 228 730 l 1
 124 73 l 1
 495 73 l 1
 483 0 l 1
 32 0 l 1
 148 730 l 1
547 770 m 1
 639 770 l 1
 481 470 l 1
 409 470 l 1
 547 770 l 1
EndSplineSet
EndChar

StartChar: uni013B
Encoding: 315 315 94
Width: 585
Flags: W
LayerCount: 2
Fore
SplineSet
148 730 m 1
 228 730 l 1
 124 73 l 1
 495 73 l 1
 483 0 l 1
 32 0 l 1
 148 730 l 1
125 -250 m 1
 46 -250 l 1
 180 -40 l 1
 279 -40 l 1
 125 -250 l 1
EndSplineSet
EndChar

StartChar: Ldot
Encoding: 319 319 95
Width: 618
Flags: W
LayerCount: 2
Fore
SplineSet
148 730 m 1
 228 730 l 1
 124 73 l 1
 495 73 l 1
 483 0 l 1
 32 0 l 1
 148 730 l 1
426 429 m 1
 530 429 l 1
 513 322 l 1
 410 322 l 1
 426 429 l 1
EndSplineSet
EndChar

StartChar: uni01C8
Encoding: 456 456 96
Width: 902
Flags: W
LayerCount: 2
Fore
SplineSet
148 730 m 1
 228 730 l 1
 124 73 l 1
 495 73 l 1
 483 0 l 1
 32 0 l 1
 148 730 l 1
792 737 m 1
 880 737 l 1
 865 643 l 1
 777 643 l 1
 792 737 l 1
585 -150 m 0
 614 -140 636 -124 650 -100 c 0
 664 -75 675 -38 683 13 c 2
 764 520 l 1
 839 520 l 1
 759 13 l 2
 749 -52 733 -101 712 -136 c 0
 690 -170 658 -194 617 -208 c 0
 576 -223 518 -230 445 -230 c 1
 452 -163 l 1
 511 -163 556 -158 585 -150 c 0
EndSplineSet
EndChar

StartChar: Lslash
Encoding: 321 321 97
Width: 654
Flags: W
LayerCount: 2
Fore
SplineSet
215 73 m 1
 585 73 l 1
 574 0 l 1
 123 0 l 1
 172 310 l 1
 32 253 l 1
 16 315 l 1
 184 384 l 1
 238 730 l 1
 319 730 l 1
 269 419 l 1
 411 477 l 1
 427 415 l 1
 258 346 l 1
 215 73 l 1
EndSplineSet
EndChar

StartChar: M
Encoding: 77 77 98
Width: 833
Flags: W
LayerCount: 2
Fore
SplineSet
148 730 m 1
 250 730 l 1
 411 247 l 1
 413 247 l 1
 726 730 l 1
 827 730 l 1
 711 0 l 1
 633 0 l 1
 729 606 l 1
 727 606 l 1
 434 155 l 1
 359 155 l 1
 209 606 l 1
 207 606 l 1
 111 0 l 1
 32 0 l 1
 148 730 l 1
EndSplineSet
EndChar

StartChar: N
Encoding: 78 78 99
Width: 693
Flags: W
LayerCount: 2
Fore
SplineSet
148 730 m 1
 237 730 l 1
 511 127 l 1
 513 127 l 1
 609 730 l 1
 687 730 l 1
 571 0 l 1
 482 0 l 1
 208 603 l 1
 206 603 l 1
 111 0 l 1
 32 0 l 1
 148 730 l 1
EndSplineSet
EndChar

StartChar: uni01CA
Encoding: 458 458 100
Width: 1281
Flags: W
LayerCount: 2
Fore
SplineSet
148 730 m 1
 237 730 l 1
 511 127 l 1
 513 127 l 1
 609 730 l 1
 687 730 l 1
 571 0 l 1
 482 0 l 1
 208 603 l 1
 206 603 l 1
 111 0 l 1
 32 0 l 1
 148 730 l 1
784 4 m 0
 750 14 719 28 692 47 c 1
 731 114 l 1
 756 98 783 86 812 76 c 0
 841 68 871 63 902 63 c 0
 962 63 1009 81 1044 116 c 0
 1079 151 1102 206 1114 280 c 2
 1185 730 l 1
 1265 730 l 1
 1194 280 l 2
 1179 181 1147 108 1098 61 c 0
 1049 14 982 -10 897 -10 c 0
 857 -10 820 -5 784 4 c 0
EndSplineSet
EndChar

StartChar: Nacute
Encoding: 323 323 101
Width: 720
Flags: W
LayerCount: 2
Fore
SplineSet
148 730 m 1
 237 730 l 1
 511 127 l 1
 513 127 l 1
 609 730 l 1
 687 730 l 1
 571 0 l 1
 482 0 l 1
 208 603 l 1
 206 603 l 1
 111 0 l 1
 32 0 l 1
 148 730 l 1
447 770 m 1
 367 770 l 1
 502 980 l 1
 601 980 l 1
 447 770 l 1
EndSplineSet
EndChar

StartChar: Ncaron
Encoding: 327 327 102
Width: 720
Flags: W
LayerCount: 2
Fore
SplineSet
148 730 m 1
 237 730 l 1
 511 127 l 1
 513 127 l 1
 609 730 l 1
 687 730 l 1
 571 0 l 1
 482 0 l 1
 208 603 l 1
 206 603 l 1
 111 0 l 1
 32 0 l 1
 148 730 l 1
255 980 m 1
 348 980 l 1
 428 808 l 1
 430 808 l 1
 564 980 l 1
 657 980 l 1
 490 770 l 1
 355 770 l 1
 255 980 l 1
EndSplineSet
EndChar

StartChar: uni0145
Encoding: 325 325 103
Width: 720
Flags: W
LayerCount: 2
Fore
SplineSet
148 730 m 1
 237 730 l 1
 511 127 l 1
 513 127 l 1
 609 730 l 1
 687 730 l 1
 571 0 l 1
 482 0 l 1
 208 603 l 1
 206 603 l 1
 111 0 l 1
 32 0 l 1
 148 730 l 1
193 -250 m 1
 114 -250 l 1
 248 -40 l 1
 347 -40 l 1
 193 -250 l 1
EndSplineSet
EndChar

StartChar: Eng
Encoding: 330 330 104
Width: 693
Flags: W
LayerCount: 2
Fore
SplineSet
687 730 m 1
 565 -38 l 2
 555 -101 535 -146 505 -175 c 0
 475 -204 432 -218 376 -218 c 0
 344 -218 311 -213 278 -202 c 1
 302 -135 l 1
 325 -144 348 -148 372 -148 c 0
 407 -148 433 -140 452 -122 c 0
 470 -106 482 -77 488 -38 c 2
 491 -19 l 1
 207 596 l 1
 205 596 l 1
 111 0 l 1
 32 0 l 1
 148 730 l 1
 237 730 l 1
 512 134 l 1
 514 134 l 1
 609 730 l 1
 687 730 l 1
EndSplineSet
EndChar

StartChar: uni01CB
Encoding: 459 459 105
Width: 1037
Flags: W
LayerCount: 2
Fore
SplineSet
148 730 m 1
 237 730 l 1
 511 127 l 1
 513 127 l 1
 609 730 l 1
 687 730 l 1
 571 0 l 1
 482 0 l 1
 208 603 l 1
 206 603 l 1
 111 0 l 1
 32 0 l 1
 148 730 l 1
927 737 m 1
 1015 737 l 1
 1000 643 l 1
 912 643 l 1
 927 737 l 1
720 -150 m 0
 749 -140 771 -124 785 -100 c 0
 799 -75 810 -38 818 13 c 2
 899 520 l 1
 974 520 l 1
 894 13 l 2
 884 -52 868 -101 846 -136 c 0
 825 -170 793 -194 752 -208 c 0
 711 -223 653 -230 580 -230 c 1
 587 -163 l 1
 646 -163 691 -158 720 -150 c 0
EndSplineSet
EndChar

StartChar: Ntilde
Encoding: 209 209 106
Width: 720
Flags: W
LayerCount: 2
Fore
SplineSet
148 730 m 1
 237 730 l 1
 511 127 l 1
 513 127 l 1
 609 730 l 1
 687 730 l 1
 571 0 l 1
 482 0 l 1
 208 603 l 1
 206 603 l 1
 111 0 l 1
 32 0 l 1
 148 730 l 1
420 843 m 0
 393 865 371 876 354 876 c 0
 343 876 335 871 328 860 c 0
 322 849 317 831 313 806 c 1
 240 806 l 1
 248 856 261 893 279 918 c 0
 297 942 321 954 351 954 c 0
 382 954 416 938 454 907 c 0
 480 885 502 874 519 874 c 0
 530 874 538 879 545 890 c 0
 552 901 557 919 561 944 c 1
 633 944 l 1
 625 894 612 857 594 832 c 0
 577 808 553 796 524 796 c 0
 494 796 459 812 420 843 c 0
EndSplineSet
EndChar

StartChar: O
Encoding: 79 79 107
Width: 780
Flags: W
LayerCount: 2
Fore
SplineSet
165 36 m 0
 116 67 82 110 62 167 c 0
 43 224 39 290 51 365 c 0
 63 440 88 506 126 563 c 0
 163 620 211 663 269 694 c 0
 327 725 391 740 462 740 c 0
 533 740 592 725 640 694 c 0
 689 663 723 620 743 563 c 0
 763 506 767 440 755 365 c 0
 743 290 718 224 680 167 c 0
 643 110 595 67 536 36 c 0
 478 5 414 -10 343 -10 c 0
 273 -10 214 5 165 36 c 0
504 100 m 0
 549 124 586 159 616 204 c 0
 645 250 665 304 674 365 c 0
 684 426 682 480 666 526 c 0
 652 571 626 606 588 630 c 0
 552 655 506 667 451 667 c 0
 396 667 346 655 302 630 c 0
 256 606 219 571 190 526 c 0
 161 480 141 426 131 365 c 0
 121 304 124 250 139 204 c 0
 154 159 180 124 218 100 c 0
 254 75 300 63 355 63 c 0
 410 63 459 75 504 100 c 0
EndSplineSet
EndChar

StartChar: Oacute
Encoding: 211 211 108
Width: 802
Flags: W
LayerCount: 2
Fore
SplineSet
165 36 m 0
 116 67 82 110 62 167 c 0
 43 224 39 290 51 365 c 0
 63 440 88 506 126 563 c 0
 163 620 211 663 269 694 c 0
 327 725 391 740 462 740 c 0
 533 740 592 725 640 694 c 0
 689 663 723 620 743 563 c 0
 763 506 767 440 755 365 c 0
 743 290 718 224 680 167 c 0
 643 110 595 67 536 36 c 0
 478 5 414 -10 343 -10 c 0
 273 -10 214 5 165 36 c 0
504 100 m 0
 549 124 586 159 616 204 c 0
 645 250 665 304 674 365 c 0
 684 426 682 480 666 526 c 0
 652 571 626 606 588 630 c 0
 552 655 506 667 451 667 c 0
 396 667 346 655 302 630 c 0
 256 606 219 571 190 526 c 0
 161 480 141 426 131 365 c 0
 121 304 124 250 139 204 c 0
 154 159 180 124 218 100 c 0
 254 75 300 63 355 63 c 0
 410 63 459 75 504 100 c 0
488 770 m 1
 408 770 l 1
 543 980 l 1
 642 980 l 1
 488 770 l 1
EndSplineSet
EndChar

StartChar: Obreve
Encoding: 334 334 109
Width: 802
Flags: W
LayerCount: 2
Fore
SplineSet
165 36 m 0
 116 67 82 110 62 167 c 0
 43 224 39 290 51 365 c 0
 63 440 88 506 126 563 c 0
 163 620 211 663 269 694 c 0
 327 725 391 740 462 740 c 0
 533 740 592 725 640 694 c 0
 689 663 723 620 743 563 c 0
 763 506 767 440 755 365 c 0
 743 290 718 224 680 167 c 0
 643 110 595 67 536 36 c 0
 478 5 414 -10 343 -10 c 0
 273 -10 214 5 165 36 c 0
504 100 m 0
 549 124 586 159 616 204 c 0
 645 250 665 304 674 365 c 0
 684 426 682 480 666 526 c 0
 652 571 626 606 588 630 c 0
 552 655 506 667 451 667 c 0
 396 667 346 655 302 630 c 0
 256 606 219 571 190 526 c 0
 161 480 141 426 131 365 c 0
 121 304 124 250 139 204 c 0
 154 159 180 124 218 100 c 0
 254 75 300 63 355 63 c 0
 410 63 459 75 504 100 c 0
340 833 m 0
 311 862 298 899 301 944 c 1
 384 944 l 1
 383 915 391 893 406 878 c 0
 422 863 444 855 473 855 c 0
 502 855 526 863 546 878 c 0
 566 893 580 915 589 944 c 1
 672 944 l 1
 661 899 636 862 597 833 c 0
 558 804 514 790 463 790 c 0
 411 790 370 804 340 833 c 0
EndSplineSet
EndChar

StartChar: Ocircumflex
Encoding: 212 212 110
Width: 802
Flags: W
LayerCount: 2
Fore
SplineSet
165 36 m 0
 116 67 82 110 62 167 c 0
 43 224 39 290 51 365 c 0
 63 440 88 506 126 563 c 0
 163 620 211 663 269 694 c 0
 327 725 391 740 462 740 c 0
 533 740 592 725 640 694 c 0
 689 663 723 620 743 563 c 0
 763 506 767 440 755 365 c 0
 743 290 718 224 680 167 c 0
 643 110 595 67 536 36 c 0
 478 5 414 -10 343 -10 c 0
 273 -10 214 5 165 36 c 0
504 100 m 0
 549 124 586 159 616 204 c 0
 645 250 665 304 674 365 c 0
 684 426 682 480 666 526 c 0
 652 571 626 606 588 630 c 0
 552 655 506 667 451 667 c 0
 396 667 346 655 302 630 c 0
 256 606 219 571 190 526 c 0
 161 480 141 426 131 365 c 0
 121 304 124 250 139 204 c 0
 154 159 180 124 218 100 c 0
 254 75 300 63 355 63 c 0
 410 63 459 75 504 100 c 0
428 980 m 1
 564 980 l 1
 664 770 l 1
 571 770 l 1
 491 942 l 1
 489 942 l 1
 355 770 l 1
 262 770 l 1
 428 980 l 1
EndSplineSet
EndChar

StartChar: uni1ED0
Encoding: 7888 7888 111
Width: 802
Flags: W
LayerCount: 2
Fore
SplineSet
165 36 m 0
 116 67 82 110 62 167 c 0
 43 224 39 290 51 365 c 0
 63 440 88 506 126 563 c 0
 163 620 211 663 269 694 c 0
 327 725 391 740 462 740 c 0
 533 740 592 725 640 694 c 0
 689 663 723 620 743 563 c 0
 763 506 767 440 755 365 c 0
 743 290 718 224 680 167 c 0
 643 110 595 67 536 36 c 0
 478 5 414 -10 343 -10 c 0
 273 -10 214 5 165 36 c 0
504 100 m 0
 549 124 586 159 616 204 c 0
 645 250 665 304 674 365 c 0
 684 426 682 480 666 526 c 0
 652 571 626 606 588 630 c 0
 552 655 506 667 451 667 c 0
 396 667 346 655 302 630 c 0
 256 606 219 571 190 526 c 0
 161 480 141 426 131 365 c 0
 121 304 124 250 139 204 c 0
 154 159 180 124 218 100 c 0
 254 75 300 63 355 63 c 0
 410 63 459 75 504 100 c 0
428 980 m 1
 564 980 l 1
 664 770 l 1
 571 770 l 1
 491 942 l 1
 489 942 l 1
 355 770 l 1
 262 770 l 1
 428 980 l 1
714 950 m 1
 634 950 l 1
 769 1160 l 1
 868 1160 l 1
 714 950 l 1
EndSplineSet
EndChar

StartChar: uni1ED8
Encoding: 7896 7896 112
Width: 802
Flags: W
LayerCount: 2
Fore
SplineSet
165 36 m 0
 116 67 82 110 62 167 c 0
 43 224 39 290 51 365 c 0
 63 440 88 506 126 563 c 0
 163 620 211 663 269 694 c 0
 327 725 391 740 462 740 c 0
 533 740 592 725 640 694 c 0
 689 663 723 620 743 563 c 0
 763 506 767 440 755 365 c 0
 743 290 718 224 680 167 c 0
 643 110 595 67 536 36 c 0
 478 5 414 -10 343 -10 c 0
 273 -10 214 5 165 36 c 0
504 100 m 0
 549 124 586 159 616 204 c 0
 645 250 665 304 674 365 c 0
 684 426 682 480 666 526 c 0
 652 571 626 606 588 630 c 0
 552 655 506 667 451 667 c 0
 396 667 346 655 302 630 c 0
 256 606 219 571 190 526 c 0
 161 480 141 426 131 365 c 0
 121 304 124 250 139 204 c 0
 154 159 180 124 218 100 c 0
 254 75 300 63 355 63 c 0
 410 63 459 75 504 100 c 0
300 -93 m 1
 402 -93 l 1
 386 -197 l 1
 284 -197 l 1
 300 -93 l 1
428 980 m 1
 564 980 l 1
 664 770 l 1
 571 770 l 1
 491 942 l 1
 489 942 l 1
 355 770 l 1
 262 770 l 1
 428 980 l 1
EndSplineSet
EndChar

StartChar: uni1ED2
Encoding: 7890 7890 113
Width: 802
Flags: W
LayerCount: 2
Fore
SplineSet
165 36 m 0
 116 67 82 110 62 167 c 0
 43 224 39 290 51 365 c 0
 63 440 88 506 126 563 c 0
 163 620 211 663 269 694 c 0
 327 725 391 740 462 740 c 0
 533 740 592 725 640 694 c 0
 689 663 723 620 743 563 c 0
 763 506 767 440 755 365 c 0
 743 290 718 224 680 167 c 0
 643 110 595 67 536 36 c 0
 478 5 414 -10 343 -10 c 0
 273 -10 214 5 165 36 c 0
504 100 m 0
 549 124 586 159 616 204 c 0
 645 250 665 304 674 365 c 0
 684 426 682 480 666 526 c 0
 652 571 626 606 588 630 c 0
 552 655 506 667 451 667 c 0
 396 667 346 655 302 630 c 0
 256 606 219 571 190 526 c 0
 161 480 141 426 131 365 c 0
 121 304 124 250 139 204 c 0
 154 159 180 124 218 100 c 0
 254 75 300 63 355 63 c 0
 410 63 459 75 504 100 c 0
428 980 m 1
 564 980 l 1
 664 770 l 1
 571 770 l 1
 491 942 l 1
 489 942 l 1
 355 770 l 1
 262 770 l 1
 428 980 l 1
171 1160 m 1
 270 1160 l 1
 338 950 l 1
 258 950 l 1
 171 1160 l 1
EndSplineSet
EndChar

StartChar: uni1ED4
Encoding: 7892 7892 114
Width: 802
Flags: W
LayerCount: 2
Fore
SplineSet
165 36 m 0
 116 67 82 110 62 167 c 0
 43 224 39 290 51 365 c 0
 63 440 88 506 126 563 c 0
 163 620 211 663 269 694 c 0
 327 725 391 740 462 740 c 0
 533 740 592 725 640 694 c 0
 689 663 723 620 743 563 c 0
 763 506 767 440 755 365 c 0
 743 290 718 224 680 167 c 0
 643 110 595 67 536 36 c 0
 478 5 414 -10 343 -10 c 0
 273 -10 214 5 165 36 c 0
504 100 m 0
 549 124 586 159 616 204 c 0
 645 250 665 304 674 365 c 0
 684 426 682 480 666 526 c 0
 652 571 626 606 588 630 c 0
 552 655 506 667 451 667 c 0
 396 667 346 655 302 630 c 0
 256 606 219 571 190 526 c 0
 161 480 141 426 131 365 c 0
 121 304 124 250 139 204 c 0
 154 159 180 124 218 100 c 0
 254 75 300 63 355 63 c 0
 410 63 459 75 504 100 c 0
428 980 m 1
 564 980 l 1
 664 770 l 1
 571 770 l 1
 491 942 l 1
 489 942 l 1
 355 770 l 1
 262 770 l 1
 428 980 l 1
667 967 m 0
 672 982 676 994 677 1004 c 0
 680 1021 676 1032 666 1038 c 0
 655 1043 635 1046 605 1046 c 0
 564 1046 523 1040 482 1029 c 1
 484 1093 l 1
 530 1104 579 1110 632 1110 c 0
 669 1110 698 1108 718 1103 c 0
 737 1098 751 1090 758 1079 c 0
 765 1068 767 1052 764 1031 c 0
 762 1016 758 999 751 980 c 0
 744 961 737 944 730 930 c 1
 651 930 l 1
 656 940 662 952 667 967 c 0
EndSplineSet
EndChar

StartChar: uni1ED6
Encoding: 7894 7894 115
Width: 802
Flags: W
LayerCount: 2
Fore
SplineSet
165 36 m 0
 116 67 82 110 62 167 c 0
 43 224 39 290 51 365 c 0
 63 440 88 506 126 563 c 0
 163 620 211 663 269 694 c 0
 327 725 391 740 462 740 c 0
 533 740 592 725 640 694 c 0
 689 663 723 620 743 563 c 0
 763 506 767 440 755 365 c 0
 743 290 718 224 680 167 c 0
 643 110 595 67 536 36 c 0
 478 5 414 -10 343 -10 c 0
 273 -10 214 5 165 36 c 0
504 100 m 0
 549 124 586 159 616 204 c 0
 645 250 665 304 674 365 c 0
 684 426 682 480 666 526 c 0
 652 571 626 606 588 630 c 0
 552 655 506 667 451 667 c 0
 396 667 346 655 302 630 c 0
 256 606 219 571 190 526 c 0
 161 480 141 426 131 365 c 0
 121 304 124 250 139 204 c 0
 154 159 180 124 218 100 c 0
 254 75 300 63 355 63 c 0
 410 63 459 75 504 100 c 0
428 980 m 1
 564 980 l 1
 664 770 l 1
 571 770 l 1
 491 942 l 1
 489 942 l 1
 355 770 l 1
 262 770 l 1
 428 980 l 1
491 1040 m 0
 464 1062 442 1073 425 1073 c 0
 414 1073 406 1068 400 1057 c 0
 393 1046 388 1028 384 1003 c 1
 311 1003 l 1
 319 1053 332 1090 350 1114 c 0
 368 1139 392 1151 422 1151 c 0
 453 1151 487 1135 525 1104 c 0
 551 1082 573 1071 590 1071 c 0
 601 1071 609 1076 616 1087 c 0
 623 1098 628 1116 632 1141 c 1
 704 1141 l 1
 696 1091 683 1054 666 1030 c 0
 648 1005 624 993 595 993 c 0
 565 993 530 1009 491 1040 c 0
EndSplineSet
EndChar

StartChar: uni020C
Encoding: 524 524 116
Width: 802
Flags: W
LayerCount: 2
Fore
SplineSet
165 36 m 0
 116 67 82 110 62 167 c 0
 43 224 39 290 51 365 c 0
 63 440 88 506 126 563 c 0
 163 620 211 663 269 694 c 0
 327 725 391 740 462 740 c 0
 533 740 592 725 640 694 c 0
 689 663 723 620 743 563 c 0
 763 506 767 440 755 365 c 0
 743 290 718 224 680 167 c 0
 643 110 595 67 536 36 c 0
 478 5 414 -10 343 -10 c 0
 273 -10 214 5 165 36 c 0
504 100 m 0
 549 124 586 159 616 204 c 0
 645 250 665 304 674 365 c 0
 684 426 682 480 666 526 c 0
 652 571 626 606 588 630 c 0
 552 655 506 667 451 667 c 0
 396 667 346 655 302 630 c 0
 256 606 219 571 190 526 c 0
 161 480 141 426 131 365 c 0
 121 304 124 250 139 204 c 0
 154 159 180 124 218 100 c 0
 254 75 300 63 355 63 c 0
 410 63 459 75 504 100 c 0
251 980 m 1
 350 980 l 1
 418 770 l 1
 338 770 l 1
 251 980 l 1
457 980 m 1
 556 980 l 1
 624 770 l 1
 544 770 l 1
 457 980 l 1
EndSplineSet
EndChar

StartChar: Odieresis
Encoding: 214 214 117
Width: 802
Flags: W
LayerCount: 2
Fore
SplineSet
165 36 m 0
 116 67 82 110 62 167 c 0
 43 224 39 290 51 365 c 0
 63 440 88 506 126 563 c 0
 163 620 211 663 269 694 c 0
 327 725 391 740 462 740 c 0
 533 740 592 725 640 694 c 0
 689 663 723 620 743 563 c 0
 763 506 767 440 755 365 c 0
 743 290 718 224 680 167 c 0
 643 110 595 67 536 36 c 0
 478 5 414 -10 343 -10 c 0
 273 -10 214 5 165 36 c 0
504 100 m 0
 549 124 586 159 616 204 c 0
 645 250 665 304 674 365 c 0
 684 426 682 480 666 526 c 0
 652 571 626 606 588 630 c 0
 552 655 506 667 451 667 c 0
 396 667 346 655 302 630 c 0
 256 606 219 571 190 526 c 0
 161 480 141 426 131 365 c 0
 121 304 124 250 139 204 c 0
 154 159 180 124 218 100 c 0
 254 75 300 63 355 63 c 0
 410 63 459 75 504 100 c 0
310 927 m 1
 412 927 l 1
 395 823 l 1
 293 823 l 1
 310 927 l 1
554 927 m 1
 656 927 l 1
 639 823 l 1
 537 823 l 1
 554 927 l 1
EndSplineSet
EndChar

StartChar: uni022A
Encoding: 554 554 118
Width: 802
Flags: W
LayerCount: 2
Fore
SplineSet
165 36 m 0
 116 67 82 110 62 167 c 0
 43 224 39 290 51 365 c 0
 63 440 88 506 126 563 c 0
 163 620 211 663 269 694 c 0
 327 725 391 740 462 740 c 0
 533 740 592 725 640 694 c 0
 689 663 723 620 743 563 c 0
 763 506 767 440 755 365 c 0
 743 290 718 224 680 167 c 0
 643 110 595 67 536 36 c 0
 478 5 414 -10 343 -10 c 0
 273 -10 214 5 165 36 c 0
504 100 m 0
 549 124 586 159 616 204 c 0
 645 250 665 304 674 365 c 0
 684 426 682 480 666 526 c 0
 652 571 626 606 588 630 c 0
 552 655 506 667 451 667 c 0
 396 667 346 655 302 630 c 0
 256 606 219 571 190 526 c 0
 161 480 141 426 131 365 c 0
 121 304 124 250 139 204 c 0
 154 159 180 124 218 100 c 0
 254 75 300 63 355 63 c 0
 410 63 459 75 504 100 c 0
310 927 m 1
 412 927 l 1
 395 823 l 1
 293 823 l 1
 310 927 l 1
554 927 m 1
 656 927 l 1
 639 823 l 1
 537 823 l 1
 554 927 l 1
384 1104 m 1
 739 1104 l 1
 729 1040 l 1
 373 1040 l 1
 384 1104 l 1
EndSplineSet
EndChar

StartChar: uni0230
Encoding: 560 560 119
Width: 802
Flags: W
LayerCount: 2
Fore
SplineSet
165 36 m 0
 116 67 82 110 62 167 c 0
 43 224 39 290 51 365 c 0
 63 440 88 506 126 563 c 0
 163 620 211 663 269 694 c 0
 327 725 391 740 462 740 c 0
 533 740 592 725 640 694 c 0
 689 663 723 620 743 563 c 0
 763 506 767 440 755 365 c 0
 743 290 718 224 680 167 c 0
 643 110 595 67 536 36 c 0
 478 5 414 -10 343 -10 c 0
 273 -10 214 5 165 36 c 0
504 100 m 0
 549 124 586 159 616 204 c 0
 645 250 665 304 674 365 c 0
 684 426 682 480 666 526 c 0
 652 571 626 606 588 630 c 0
 552 655 506 667 451 667 c 0
 396 667 346 655 302 630 c 0
 256 606 219 571 190 526 c 0
 161 480 141 426 131 365 c 0
 121 304 124 250 139 204 c 0
 154 159 180 124 218 100 c 0
 254 75 300 63 355 63 c 0
 410 63 459 75 504 100 c 0
462 927 m 1
 564 927 l 1
 548 823 l 1
 446 823 l 1
 462 927 l 1
384 1104 m 1
 739 1104 l 1
 729 1040 l 1
 373 1040 l 1
 384 1104 l 1
EndSplineSet
EndChar

StartChar: uni1ECC
Encoding: 7884 7884 120
Width: 802
Flags: W
LayerCount: 2
Fore
SplineSet
165 36 m 0
 116 67 82 110 62 167 c 0
 43 224 39 290 51 365 c 0
 63 440 88 506 126 563 c 0
 163 620 211 663 269 694 c 0
 327 725 391 740 462 740 c 0
 533 740 592 725 640 694 c 0
 689 663 723 620 743 563 c 0
 763 506 767 440 755 365 c 0
 743 290 718 224 680 167 c 0
 643 110 595 67 536 36 c 0
 478 5 414 -10 343 -10 c 0
 273 -10 214 5 165 36 c 0
504 100 m 0
 549 124 586 159 616 204 c 0
 645 250 665 304 674 365 c 0
 684 426 682 480 666 526 c 0
 652 571 626 606 588 630 c 0
 552 655 506 667 451 667 c 0
 396 667 346 655 302 630 c 0
 256 606 219 571 190 526 c 0
 161 480 141 426 131 365 c 0
 121 304 124 250 139 204 c 0
 154 159 180 124 218 100 c 0
 254 75 300 63 355 63 c 0
 410 63 459 75 504 100 c 0
300 -93 m 1
 402 -93 l 1
 386 -197 l 1
 284 -197 l 1
 300 -93 l 1
EndSplineSet
EndChar

StartChar: Ograve
Encoding: 210 210 121
Width: 802
Flags: W
LayerCount: 2
Fore
SplineSet
165 36 m 0
 116 67 82 110 62 167 c 0
 43 224 39 290 51 365 c 0
 63 440 88 506 126 563 c 0
 163 620 211 663 269 694 c 0
 327 725 391 740 462 740 c 0
 533 740 592 725 640 694 c 0
 689 663 723 620 743 563 c 0
 763 506 767 440 755 365 c 0
 743 290 718 224 680 167 c 0
 643 110 595 67 536 36 c 0
 478 5 414 -10 343 -10 c 0
 273 -10 214 5 165 36 c 0
504 100 m 0
 549 124 586 159 616 204 c 0
 645 250 665 304 674 365 c 0
 684 426 682 480 666 526 c 0
 652 571 626 606 588 630 c 0
 552 655 506 667 451 667 c 0
 396 667 346 655 302 630 c 0
 256 606 219 571 190 526 c 0
 161 480 141 426 131 365 c 0
 121 304 124 250 139 204 c 0
 154 159 180 124 218 100 c 0
 254 75 300 63 355 63 c 0
 410 63 459 75 504 100 c 0
339 980 m 1
 438 980 l 1
 506 770 l 1
 426 770 l 1
 339 980 l 1
EndSplineSet
EndChar

StartChar: uni1ECE
Encoding: 7886 7886 122
Width: 802
Flags: W
LayerCount: 2
Fore
SplineSet
165 36 m 0
 116 67 82 110 62 167 c 0
 43 224 39 290 51 365 c 0
 63 440 88 506 126 563 c 0
 163 620 211 663 269 694 c 0
 327 725 391 740 462 740 c 0
 533 740 592 725 640 694 c 0
 689 663 723 620 743 563 c 0
 763 506 767 440 755 365 c 0
 743 290 718 224 680 167 c 0
 643 110 595 67 536 36 c 0
 478 5 414 -10 343 -10 c 0
 273 -10 214 5 165 36 c 0
504 100 m 0
 549 124 586 159 616 204 c 0
 645 250 665 304 674 365 c 0
 684 426 682 480 666 526 c 0
 652 571 626 606 588 630 c 0
 552 655 506 667 451 667 c 0
 396 667 346 655 302 630 c 0
 256 606 219 571 190 526 c 0
 161 480 141 426 131 365 c 0
 121 304 124 250 139 204 c 0
 154 159 180 124 218 100 c 0
 254 75 300 63 355 63 c 0
 410 63 459 75 504 100 c 0
572 837 m 0
 577 852 581 864 582 874 c 0
 585 891 581 902 570 908 c 0
 560 913 540 916 510 916 c 0
 469 916 428 910 387 899 c 1
 389 963 l 1
 435 974 484 980 537 980 c 0
 574 980 603 978 622 973 c 0
 642 968 656 960 663 949 c 0
 670 938 672 922 669 901 c 0
 667 886 663 869 656 850 c 0
 649 831 642 814 635 800 c 1
 556 800 l 1
 561 810 567 822 572 837 c 0
EndSplineSet
EndChar

StartChar: Ohorn
Encoding: 416 416 123
Width: 797
Flags: W
LayerCount: 2
Fore
SplineSet
798 643 m 0
 780 621 755 608 725 603 c 1
 760 538 770 459 755 365 c 0
 743 290 718 224 680 167 c 0
 643 110 595 67 536 36 c 0
 478 5 414 -10 343 -10 c 0
 272 -10 213 5 164 36 c 0
 116 67 82 110 62 167 c 0
 43 224 39 290 51 365 c 0
 63 440 88 506 126 563 c 0
 163 620 211 663 269 694 c 0
 327 725 391 740 462 740 c 0
 546 740 614 718 667 674 c 0
 674 672 681 671 689 671 c 0
 708 671 723 677 735 689 c 0
 747 701 755 718 758 741 c 0
 761 756 762 774 761 794 c 0
 760 813 758 829 755 842 c 1
 835 842 l 1
 842 804 842 767 836 731 c 0
 830 694 818 665 798 643 c 0
504 100 m 0
 549 124 586 159 616 204 c 0
 645 250 665 304 674 365 c 0
 684 426 682 480 666 526 c 0
 652 571 626 606 588 630 c 0
 552 655 506 667 451 667 c 0
 396 667 346 655 302 630 c 0
 256 606 219 571 190 526 c 0
 161 480 141 426 131 365 c 0
 121 304 124 250 139 204 c 0
 154 159 180 124 218 100 c 0
 254 75 300 63 355 63 c 0
 410 63 459 75 504 100 c 0
EndSplineSet
EndChar

StartChar: uni1EDA
Encoding: 7898 7898 124
Width: 819
Flags: W
LayerCount: 2
Fore
SplineSet
798 643 m 0
 780 621 755 608 725 603 c 1
 760 538 770 459 755 365 c 0
 743 290 718 224 680 167 c 0
 643 110 595 67 536 36 c 0
 478 5 414 -10 343 -10 c 0
 272 -10 213 5 164 36 c 0
 116 67 82 110 62 167 c 0
 43 224 39 290 51 365 c 0
 63 440 88 506 126 563 c 0
 163 620 211 663 269 694 c 0
 327 725 391 740 462 740 c 0
 546 740 614 718 667 674 c 0
 674 672 681 671 689 671 c 0
 708 671 723 677 735 689 c 0
 747 701 755 718 758 741 c 0
 761 756 762 774 761 794 c 0
 760 813 758 829 755 842 c 1
 835 842 l 1
 842 804 842 767 836 731 c 0
 830 694 818 665 798 643 c 0
504 100 m 0
 549 124 586 159 616 204 c 0
 645 250 665 304 674 365 c 0
 684 426 682 480 666 526 c 0
 652 571 626 606 588 630 c 0
 552 655 506 667 451 667 c 0
 396 667 346 655 302 630 c 0
 256 606 219 571 190 526 c 0
 161 480 141 426 131 365 c 0
 121 304 124 250 139 204 c 0
 154 159 180 124 218 100 c 0
 254 75 300 63 355 63 c 0
 410 63 459 75 504 100 c 0
488 770 m 1
 408 770 l 1
 543 980 l 1
 642 980 l 1
 488 770 l 1
EndSplineSet
EndChar

StartChar: uni1EE2
Encoding: 7906 7906 125
Width: 819
Flags: W
LayerCount: 2
Fore
SplineSet
798 643 m 0
 780 621 755 608 725 603 c 1
 760 538 770 459 755 365 c 0
 743 290 718 224 680 167 c 0
 643 110 595 67 536 36 c 0
 478 5 414 -10 343 -10 c 0
 272 -10 213 5 164 36 c 0
 116 67 82 110 62 167 c 0
 43 224 39 290 51 365 c 0
 63 440 88 506 126 563 c 0
 163 620 211 663 269 694 c 0
 327 725 391 740 462 740 c 0
 546 740 614 718 667 674 c 0
 674 672 681 671 689 671 c 0
 708 671 723 677 735 689 c 0
 747 701 755 718 758 741 c 0
 761 756 762 774 761 794 c 0
 760 813 758 829 755 842 c 1
 835 842 l 1
 842 804 842 767 836 731 c 0
 830 694 818 665 798 643 c 0
504 100 m 0
 549 124 586 159 616 204 c 0
 645 250 665 304 674 365 c 0
 684 426 682 480 666 526 c 0
 652 571 626 606 588 630 c 0
 552 655 506 667 451 667 c 0
 396 667 346 655 302 630 c 0
 256 606 219 571 190 526 c 0
 161 480 141 426 131 365 c 0
 121 304 124 250 139 204 c 0
 154 159 180 124 218 100 c 0
 254 75 300 63 355 63 c 0
 410 63 459 75 504 100 c 0
300 -93 m 1
 402 -93 l 1
 386 -197 l 1
 284 -197 l 1
 300 -93 l 1
EndSplineSet
EndChar

StartChar: uni1EDC
Encoding: 7900 7900 126
Width: 819
Flags: W
LayerCount: 2
Fore
SplineSet
798 643 m 0
 780 621 755 608 725 603 c 1
 760 538 770 459 755 365 c 0
 743 290 718 224 680 167 c 0
 643 110 595 67 536 36 c 0
 478 5 414 -10 343 -10 c 0
 272 -10 213 5 164 36 c 0
 116 67 82 110 62 167 c 0
 43 224 39 290 51 365 c 0
 63 440 88 506 126 563 c 0
 163 620 211 663 269 694 c 0
 327 725 391 740 462 740 c 0
 546 740 614 718 667 674 c 0
 674 672 681 671 689 671 c 0
 708 671 723 677 735 689 c 0
 747 701 755 718 758 741 c 0
 761 756 762 774 761 794 c 0
 760 813 758 829 755 842 c 1
 835 842 l 1
 842 804 842 767 836 731 c 0
 830 694 818 665 798 643 c 0
504 100 m 0
 549 124 586 159 616 204 c 0
 645 250 665 304 674 365 c 0
 684 426 682 480 666 526 c 0
 652 571 626 606 588 630 c 0
 552 655 506 667 451 667 c 0
 396 667 346 655 302 630 c 0
 256 606 219 571 190 526 c 0
 161 480 141 426 131 365 c 0
 121 304 124 250 139 204 c 0
 154 159 180 124 218 100 c 0
 254 75 300 63 355 63 c 0
 410 63 459 75 504 100 c 0
339 980 m 1
 438 980 l 1
 506 770 l 1
 426 770 l 1
 339 980 l 1
EndSplineSet
EndChar

StartChar: uni1EDE
Encoding: 7902 7902 127
Width: 819
Flags: W
LayerCount: 2
Fore
SplineSet
798 643 m 0
 780 621 755 608 725 603 c 1
 760 538 770 459 755 365 c 0
 743 290 718 224 680 167 c 0
 643 110 595 67 536 36 c 0
 478 5 414 -10 343 -10 c 0
 272 -10 213 5 164 36 c 0
 116 67 82 110 62 167 c 0
 43 224 39 290 51 365 c 0
 63 440 88 506 126 563 c 0
 163 620 211 663 269 694 c 0
 327 725 391 740 462 740 c 0
 546 740 614 718 667 674 c 0
 674 672 681 671 689 671 c 0
 708 671 723 677 735 689 c 0
 747 701 755 718 758 741 c 0
 761 756 762 774 761 794 c 0
 760 813 758 829 755 842 c 1
 835 842 l 1
 842 804 842 767 836 731 c 0
 830 694 818 665 798 643 c 0
504 100 m 0
 549 124 586 159 616 204 c 0
 645 250 665 304 674 365 c 0
 684 426 682 480 666 526 c 0
 652 571 626 606 588 630 c 0
 552 655 506 667 451 667 c 0
 396 667 346 655 302 630 c 0
 256 606 219 571 190 526 c 0
 161 480 141 426 131 365 c 0
 121 304 124 250 139 204 c 0
 154 159 180 124 218 100 c 0
 254 75 300 63 355 63 c 0
 410 63 459 75 504 100 c 0
572 837 m 0
 577 852 581 864 582 874 c 0
 585 891 581 902 570 908 c 0
 560 913 540 916 510 916 c 0
 469 916 428 910 387 899 c 1
 389 963 l 1
 435 974 484 980 537 980 c 0
 574 980 603 978 622 973 c 0
 642 968 656 960 663 949 c 0
 670 938 672 922 669 901 c 0
 667 886 663 869 656 850 c 0
 649 831 642 814 635 800 c 1
 556 800 l 1
 561 810 567 822 572 837 c 0
EndSplineSet
EndChar

StartChar: uni1EE0
Encoding: 7904 7904 128
Width: 819
Flags: W
LayerCount: 2
Fore
SplineSet
798 643 m 0
 780 621 755 608 725 603 c 1
 760 538 770 459 755 365 c 0
 743 290 718 224 680 167 c 0
 643 110 595 67 536 36 c 0
 478 5 414 -10 343 -10 c 0
 272 -10 213 5 164 36 c 0
 116 67 82 110 62 167 c 0
 43 224 39 290 51 365 c 0
 63 440 88 506 126 563 c 0
 163 620 211 663 269 694 c 0
 327 725 391 740 462 740 c 0
 546 740 614 718 667 674 c 0
 674 672 681 671 689 671 c 0
 708 671 723 677 735 689 c 0
 747 701 755 718 758 741 c 0
 761 756 762 774 761 794 c 0
 760 813 758 829 755 842 c 1
 835 842 l 1
 842 804 842 767 836 731 c 0
 830 694 818 665 798 643 c 0
504 100 m 0
 549 124 586 159 616 204 c 0
 645 250 665 304 674 365 c 0
 684 426 682 480 666 526 c 0
 652 571 626 606 588 630 c 0
 552 655 506 667 451 667 c 0
 396 667 346 655 302 630 c 0
 256 606 219 571 190 526 c 0
 161 480 141 426 131 365 c 0
 121 304 124 250 139 204 c 0
 154 159 180 124 218 100 c 0
 254 75 300 63 355 63 c 0
 410 63 459 75 504 100 c 0
460 843 m 0
 433 865 411 876 394 876 c 0
 383 876 375 871 368 860 c 0
 362 849 357 831 353 806 c 1
 280 806 l 1
 288 856 301 893 319 918 c 0
 337 942 361 954 391 954 c 0
 422 954 456 938 494 907 c 0
 520 885 542 874 559 874 c 0
 570 874 578 879 585 890 c 0
 592 901 597 919 601 944 c 1
 673 944 l 1
 665 894 652 857 634 832 c 0
 617 808 593 796 564 796 c 0
 534 796 499 812 460 843 c 0
EndSplineSet
EndChar

StartChar: Ohungarumlaut
Encoding: 336 336 129
Width: 802
Flags: W
LayerCount: 2
Fore
SplineSet
165 36 m 0
 116 67 82 110 62 167 c 0
 43 224 39 290 51 365 c 0
 63 440 88 506 126 563 c 0
 163 620 211 663 269 694 c 0
 327 725 391 740 462 740 c 0
 533 740 592 725 640 694 c 0
 689 663 723 620 743 563 c 0
 763 506 767 440 755 365 c 0
 743 290 718 224 680 167 c 0
 643 110 595 67 536 36 c 0
 478 5 414 -10 343 -10 c 0
 273 -10 214 5 165 36 c 0
504 100 m 0
 549 124 586 159 616 204 c 0
 645 250 665 304 674 365 c 0
 684 426 682 480 666 526 c 0
 652 571 626 606 588 630 c 0
 552 655 506 667 451 667 c 0
 396 667 346 655 302 630 c 0
 256 606 219 571 190 526 c 0
 161 480 141 426 131 365 c 0
 121 304 124 250 139 204 c 0
 154 159 180 124 218 100 c 0
 254 75 300 63 355 63 c 0
 410 63 459 75 504 100 c 0
388 770 m 1
 308 770 l 1
 443 980 l 1
 542 980 l 1
 388 770 l 1
598 770 m 1
 518 770 l 1
 653 980 l 1
 752 980 l 1
 598 770 l 1
EndSplineSet
EndChar

StartChar: uni020E
Encoding: 526 526 130
Width: 802
Flags: W
LayerCount: 2
Fore
SplineSet
165 36 m 0
 116 67 82 110 62 167 c 0
 43 224 39 290 51 365 c 0
 63 440 88 506 126 563 c 0
 163 620 211 663 269 694 c 0
 327 725 391 740 462 740 c 0
 533 740 592 725 640 694 c 0
 689 663 723 620 743 563 c 0
 763 506 767 440 755 365 c 0
 743 290 718 224 680 167 c 0
 643 110 595 67 536 36 c 0
 478 5 414 -10 343 -10 c 0
 273 -10 214 5 165 36 c 0
504 100 m 0
 549 124 586 159 616 204 c 0
 645 250 665 304 674 365 c 0
 684 426 682 480 666 526 c 0
 652 571 626 606 588 630 c 0
 552 655 506 667 451 667 c 0
 396 667 346 655 302 630 c 0
 256 606 219 571 190 526 c 0
 161 480 141 426 131 365 c 0
 121 304 124 250 139 204 c 0
 154 159 180 124 218 100 c 0
 254 75 300 63 355 63 c 0
 410 63 459 75 504 100 c 0
600 917 m 0
 630 888 643 851 640 806 c 1
 557 806 l 1
 558 835 550 857 535 872 c 0
 520 887 498 895 469 895 c 0
 440 895 416 887 396 872 c 0
 375 857 361 835 352 806 c 1
 269 806 l 1
 280 851 305 888 344 917 c 0
 383 946 428 960 480 960 c 0
 531 960 571 946 600 917 c 0
EndSplineSet
EndChar

StartChar: Omacron
Encoding: 332 332 131
Width: 802
Flags: W
LayerCount: 2
Fore
SplineSet
165 36 m 0
 116 67 82 110 62 167 c 0
 43 224 39 290 51 365 c 0
 63 440 88 506 126 563 c 0
 163 620 211 663 269 694 c 0
 327 725 391 740 462 740 c 0
 533 740 592 725 640 694 c 0
 689 663 723 620 743 563 c 0
 763 506 767 440 755 365 c 0
 743 290 718 224 680 167 c 0
 643 110 595 67 536 36 c 0
 478 5 414 -10 343 -10 c 0
 273 -10 214 5 165 36 c 0
504 100 m 0
 549 124 586 159 616 204 c 0
 645 250 665 304 674 365 c 0
 684 426 682 480 666 526 c 0
 652 571 626 606 588 630 c 0
 552 655 506 667 451 667 c 0
 396 667 346 655 302 630 c 0
 256 606 219 571 190 526 c 0
 161 480 141 426 131 365 c 0
 121 304 124 250 139 204 c 0
 154 159 180 124 218 100 c 0
 254 75 300 63 355 63 c 0
 410 63 459 75 504 100 c 0
353 907 m 1
 708 907 l 1
 698 843 l 1
 342 843 l 1
 353 907 l 1
EndSplineSet
EndChar

StartChar: uni01EA
Encoding: 490 490 132
Width: 780
Flags: W
LayerCount: 2
Fore
SplineSet
288 -107 m 0
 285 -123 291 -135 304 -142 c 0
 317 -149 336 -153 360 -153 c 0
 393 -153 423 -147 452 -134 c 1
 456 -197 l 1
 423 -211 385 -218 344 -218 c 0
 295 -218 259 -209 238 -191 c 0
 216 -173 207 -149 212 -120 c 0
 219 -80 246 -42 293 -7 c 1
 234 0 184 20 144 52 c 0
 103 85 75 128 59 182 c 0
 43 235 40 296 51 365 c 0
 63 440 88 506 126 563 c 0
 163 620 211 663 269 694 c 0
 327 725 391 740 462 740 c 0
 533 740 592 725 640 694 c 0
 689 663 723 620 743 563 c 0
 763 506 767 440 755 365 c 0
 744 295 721 233 688 178 c 0
 654 124 611 81 559 49 c 0
 507 17 449 -2 386 -8 c 1
 325 -43 293 -76 288 -107 c 0
140 204 m 0
 154 159 180 124 218 100 c 0
 254 75 300 63 355 63 c 0
 410 63 459 75 504 100 c 0
 549 124 586 159 616 204 c 0
 645 250 665 304 674 365 c 0
 684 426 682 480 666 526 c 0
 652 571 626 606 588 630 c 0
 552 655 506 667 451 667 c 0
 396 667 346 655 302 630 c 0
 256 606 219 571 190 526 c 0
 161 480 141 426 131 365 c 0
 122 304 124 250 140 204 c 0
EndSplineSet
EndChar

StartChar: Oslash
Encoding: 216 216 133
Width: 780
Flags: W
LayerCount: 2
Fore
SplineSet
754 525 m 0
 764 477 764 424 755 365 c 0
 743 290 718 224 680 167 c 0
 643 110 595 67 536 36 c 0
 478 5 414 -10 343 -10 c 0
 268 -10 206 7 157 42 c 1
 92 -30 l 1
 46 10 l 1
 111 83 l 1
 82 116 63 157 52 205 c 0
 42 253 42 306 51 365 c 0
 63 440 88 506 126 563 c 0
 163 620 211 663 269 694 c 0
 327 725 391 740 462 740 c 0
 537 740 600 723 649 688 c 1
 713 760 l 1
 760 720 l 1
 694 647 l 1
 723 614 743 573 754 525 c 0
130 242 m 0
 136 204 148 173 167 147 c 1
 594 626 l 1
 557 653 509 667 451 667 c 0
 396 667 346 655 302 630 c 0
 256 606 219 571 190 526 c 0
 161 480 141 426 131 365 c 0
 124 320 124 278 130 242 c 0
504 100 m 0
 549 124 586 159 616 204 c 0
 645 250 665 304 674 365 c 0
 681 410 682 452 676 488 c 0
 669 526 657 557 638 583 c 1
 212 104 l 1
 249 77 297 63 355 63 c 0
 410 63 459 75 504 100 c 0
EndSplineSet
EndChar

StartChar: Oslashacute
Encoding: 510 510 134
Width: 802
Flags: W
LayerCount: 2
Fore
SplineSet
754 525 m 0
 764 477 764 424 755 365 c 0
 743 290 718 224 680 167 c 0
 643 110 595 67 536 36 c 0
 478 5 414 -10 343 -10 c 0
 268 -10 206 7 157 42 c 1
 92 -30 l 1
 46 10 l 1
 111 83 l 1
 82 116 63 157 52 205 c 0
 42 253 42 306 51 365 c 0
 63 440 88 506 126 563 c 0
 163 620 211 663 269 694 c 0
 327 725 391 740 462 740 c 0
 537 740 600 723 649 688 c 1
 713 760 l 1
 760 720 l 1
 694 647 l 1
 723 614 743 573 754 525 c 0
130 242 m 0
 136 204 148 173 167 147 c 1
 594 626 l 1
 557 653 509 667 451 667 c 0
 396 667 346 655 302 630 c 0
 256 606 219 571 190 526 c 0
 161 480 141 426 131 365 c 0
 124 320 124 278 130 242 c 0
504 100 m 0
 549 124 586 159 616 204 c 0
 645 250 665 304 674 365 c 0
 681 410 682 452 676 488 c 0
 669 526 657 557 638 583 c 1
 212 104 l 1
 249 77 297 63 355 63 c 0
 410 63 459 75 504 100 c 0
488 770 m 1
 408 770 l 1
 543 980 l 1
 642 980 l 1
 488 770 l 1
EndSplineSet
EndChar

StartChar: Otilde
Encoding: 213 213 135
Width: 802
Flags: W
LayerCount: 2
Fore
SplineSet
165 36 m 0
 116 67 82 110 62 167 c 0
 43 224 39 290 51 365 c 0
 63 440 88 506 126 563 c 0
 163 620 211 663 269 694 c 0
 327 725 391 740 462 740 c 0
 533 740 592 725 640 694 c 0
 689 663 723 620 743 563 c 0
 763 506 767 440 755 365 c 0
 743 290 718 224 680 167 c 0
 643 110 595 67 536 36 c 0
 478 5 414 -10 343 -10 c 0
 273 -10 214 5 165 36 c 0
504 100 m 0
 549 124 586 159 616 204 c 0
 645 250 665 304 674 365 c 0
 684 426 682 480 666 526 c 0
 652 571 626 606 588 630 c 0
 552 655 506 667 451 667 c 0
 396 667 346 655 302 630 c 0
 256 606 219 571 190 526 c 0
 161 480 141 426 131 365 c 0
 121 304 124 250 139 204 c 0
 154 159 180 124 218 100 c 0
 254 75 300 63 355 63 c 0
 410 63 459 75 504 100 c 0
460 843 m 0
 433 865 411 876 394 876 c 0
 383 876 375 871 368 860 c 0
 362 849 357 831 353 806 c 1
 280 806 l 1
 288 856 301 893 319 918 c 0
 337 942 361 954 391 954 c 0
 422 954 456 938 494 907 c 0
 520 885 542 874 559 874 c 0
 570 874 578 879 585 890 c 0
 592 901 597 919 601 944 c 1
 673 944 l 1
 665 894 652 857 634 832 c 0
 617 808 593 796 564 796 c 0
 534 796 499 812 460 843 c 0
EndSplineSet
EndChar

StartChar: uni022C
Encoding: 556 556 136
Width: 802
Flags: W
LayerCount: 2
Fore
SplineSet
165 36 m 0
 116 67 82 110 62 167 c 0
 43 224 39 290 51 365 c 0
 63 440 88 506 126 563 c 0
 163 620 211 663 269 694 c 0
 327 725 391 740 462 740 c 0
 533 740 592 725 640 694 c 0
 689 663 723 620 743 563 c 0
 763 506 767 440 755 365 c 0
 743 290 718 224 680 167 c 0
 643 110 595 67 536 36 c 0
 478 5 414 -10 343 -10 c 0
 273 -10 214 5 165 36 c 0
504 100 m 0
 549 124 586 159 616 204 c 0
 645 250 665 304 674 365 c 0
 684 426 682 480 666 526 c 0
 652 571 626 606 588 630 c 0
 552 655 506 667 451 667 c 0
 396 667 346 655 302 630 c 0
 256 606 219 571 190 526 c 0
 161 480 141 426 131 365 c 0
 121 304 124 250 139 204 c 0
 154 159 180 124 218 100 c 0
 254 75 300 63 355 63 c 0
 410 63 459 75 504 100 c 0
460 843 m 0
 433 865 411 876 394 876 c 0
 383 876 375 871 368 860 c 0
 362 849 357 831 353 806 c 1
 280 806 l 1
 288 856 301 893 319 918 c 0
 337 942 361 954 391 954 c 0
 422 954 456 938 494 907 c 0
 520 885 542 874 559 874 c 0
 570 874 578 879 585 890 c 0
 592 901 597 919 601 944 c 1
 673 944 l 1
 665 894 652 857 634 832 c 0
 617 808 593 796 564 796 c 0
 534 796 499 812 460 843 c 0
389 1131 m 1
 744 1131 l 1
 734 1067 l 1
 378 1067 l 1
 389 1131 l 1
EndSplineSet
EndChar

StartChar: OE
Encoding: 338 338 137
Width: 976
Flags: W
LayerCount: 2
Fore
SplineSet
620 658 m 1
 582 420 l 1
 918 420 l 1
 907 350 l 1
 571 350 l 1
 527 72 l 1
 883 72 l 1
 871 0 l 1
 437 0 l 1
 404 -7 373 -10 343 -10 c 0
 272 -10 213 5 164 36 c 0
 116 67 82 110 62 167 c 0
 43 224 39 290 51 365 c 0
 63 440 88 506 126 563 c 0
 163 620 211 663 269 694 c 0
 327 725 391 740 462 740 c 0
 492 740 522 737 553 730 c 1
 987 730 l 1
 976 658 l 1
 620 658 l 1
450 78 m 1
 540 652 l 1
 514 662 484 667 451 667 c 0
 396 667 346 655 302 630 c 0
 256 606 219 571 190 526 c 0
 161 480 141 426 131 365 c 0
 121 304 124 250 139 204 c 0
 154 159 180 124 218 100 c 0
 254 75 300 63 355 63 c 0
 389 63 421 68 450 78 c 1
EndSplineSet
EndChar

StartChar: P
Encoding: 80 80 138
Width: 577
Flags: W
LayerCount: 2
Fore
SplineSet
540 676 m 0
 582 639 598 582 586 505 c 0
 574 428 542 372 488 334 c 0
 436 298 360 279 263 279 c 2
 155 279 l 1
 111 0 l 1
 32 0 l 1
 148 730 l 1
 321 730 l 2
 424 730 496 712 540 676 c 0
436 388 m 0
 474 412 497 451 506 504 c 0
 515 557 504 596 473 620 c 0
 442 645 389 657 313 657 c 2
 215 657 l 1
 166 351 l 1
 264 351 l 2
 341 351 398 363 436 388 c 0
EndSplineSet
EndChar

StartChar: Thorn
Encoding: 222 222 139
Width: 577
Flags: W
LayerCount: 2
Fore
SplineSet
520 546 m 0
 562 509 577 452 565 375 c 0
 553 298 520 242 468 205 c 0
 414 168 339 150 242 150 c 2
 135 150 l 1
 111 0 l 1
 32 0 l 1
 148 730 l 1
 226 730 l 1
 206 600 l 1
 301 600 l 2
 404 600 477 582 520 546 c 0
416 258 m 0
 454 282 477 321 486 374 c 0
 495 427 484 466 453 490 c 0
 422 515 369 527 292 527 c 2
 194 527 l 1
 146 222 l 1
 244 222 l 2
 321 222 378 234 416 258 c 0
EndSplineSet
EndChar

StartChar: Q
Encoding: 81 81 140
Width: 787
Flags: W
LayerCount: 2
Fore
SplineSet
698 -81 m 1
 629 -127 l 1
 603 -89 565 -60 516 -40 c 0
 467 -20 409 -10 343 -10 c 0
 272 -10 213 5 164 36 c 0
 116 67 82 110 62 167 c 0
 43 224 39 290 51 365 c 0
 63 440 88 506 126 563 c 0
 163 620 211 663 269 694 c 0
 327 725 391 740 462 740 c 0
 533 740 592 725 640 694 c 0
 689 663 723 620 743 563 c 0
 763 506 767 440 755 365 c 0
 742 285 714 216 672 158 c 0
 628 100 575 57 510 30 c 1
 594 9 657 -28 698 -81 c 1
140 204 m 0
 154 159 180 124 218 100 c 0
 254 75 300 63 355 63 c 0
 410 63 459 75 504 100 c 0
 549 124 586 159 616 204 c 0
 645 250 665 304 674 365 c 0
 684 426 682 480 666 526 c 0
 652 571 626 606 588 630 c 0
 552 655 506 667 451 667 c 0
 396 667 346 655 302 630 c 0
 256 606 219 571 190 526 c 0
 161 480 141 426 131 365 c 0
 122 304 124 250 140 204 c 0
EndSplineSet
EndChar

StartChar: R
Encoding: 82 82 141
Width: 605
Flags: W
LayerCount: 2
Fore
SplineSet
229 318 m 1
 161 318 l 1
 111 0 l 1
 32 0 l 1
 148 730 l 1
 334 730 l 2
 433 730 504 714 544 681 c 0
 586 648 600 596 589 525 c 0
 578 460 551 410 508 376 c 0
 464 343 401 324 320 319 c 1
 529 0 l 1
 435 0 l 1
 229 318 l 1
172 389 m 1
 283 389 l 2
 356 389 410 399 445 420 c 0
 480 441 502 475 509 522 c 0
 516 569 506 604 477 625 c 0
 448 646 398 657 326 657 c 2
 215 657 l 1
 172 389 l 1
EndSplineSet
EndChar

StartChar: Racute
Encoding: 340 340 142
Width: 626
Flags: W
LayerCount: 2
Fore
SplineSet
229 318 m 1
 161 318 l 1
 111 0 l 1
 32 0 l 1
 148 730 l 1
 334 730 l 2
 433 730 504 714 544 681 c 0
 586 648 600 596 589 525 c 0
 578 460 551 410 508 376 c 0
 464 343 401 324 320 319 c 1
 529 0 l 1
 435 0 l 1
 229 318 l 1
172 389 m 1
 283 389 l 2
 356 389 410 399 445 420 c 0
 480 441 502 475 509 522 c 0
 516 569 506 604 477 625 c 0
 448 646 398 657 326 657 c 2
 215 657 l 1
 172 389 l 1
390 770 m 1
 310 770 l 1
 445 980 l 1
 544 980 l 1
 390 770 l 1
EndSplineSet
EndChar

StartChar: Rcaron
Encoding: 344 344 143
Width: 626
Flags: W
LayerCount: 2
Fore
SplineSet
229 318 m 1
 161 318 l 1
 111 0 l 1
 32 0 l 1
 148 730 l 1
 334 730 l 2
 433 730 504 714 544 681 c 0
 586 648 600 596 589 525 c 0
 578 460 551 410 508 376 c 0
 464 343 401 324 320 319 c 1
 529 0 l 1
 435 0 l 1
 229 318 l 1
172 389 m 1
 283 389 l 2
 356 389 410 399 445 420 c 0
 480 441 502 475 509 522 c 0
 516 569 506 604 477 625 c 0
 448 646 398 657 326 657 c 2
 215 657 l 1
 172 389 l 1
198 980 m 1
 291 980 l 1
 371 808 l 1
 373 808 l 1
 507 980 l 1
 600 980 l 1
 433 770 l 1
 298 770 l 1
 198 980 l 1
EndSplineSet
EndChar

StartChar: uni0156
Encoding: 342 342 144
Width: 626
Flags: W
LayerCount: 2
Fore
SplineSet
229 318 m 1
 161 318 l 1
 111 0 l 1
 32 0 l 1
 148 730 l 1
 334 730 l 2
 433 730 504 714 544 681 c 0
 586 648 600 596 589 525 c 0
 578 460 551 410 508 376 c 0
 464 343 401 324 320 319 c 1
 529 0 l 1
 435 0 l 1
 229 318 l 1
172 389 m 1
 283 389 l 2
 356 389 410 399 445 420 c 0
 480 441 502 475 509 522 c 0
 516 569 506 604 477 625 c 0
 448 646 398 657 326 657 c 2
 215 657 l 1
 172 389 l 1
136 -250 m 1
 57 -250 l 1
 191 -40 l 1
 290 -40 l 1
 136 -250 l 1
EndSplineSet
EndChar

StartChar: uni0210
Encoding: 528 528 145
Width: 626
Flags: W
LayerCount: 2
Fore
SplineSet
229 318 m 1
 161 318 l 1
 111 0 l 1
 32 0 l 1
 148 730 l 1
 334 730 l 2
 433 730 504 714 544 681 c 0
 586 648 600 596 589 525 c 0
 578 460 551 410 508 376 c 0
 464 343 401 324 320 319 c 1
 529 0 l 1
 435 0 l 1
 229 318 l 1
172 389 m 1
 283 389 l 2
 356 389 410 399 445 420 c 0
 480 441 502 475 509 522 c 0
 516 569 506 604 477 625 c 0
 448 646 398 657 326 657 c 2
 215 657 l 1
 172 389 l 1
154 980 m 1
 253 980 l 1
 321 770 l 1
 241 770 l 1
 154 980 l 1
360 980 m 1
 459 980 l 1
 527 770 l 1
 447 770 l 1
 360 980 l 1
EndSplineSet
EndChar

StartChar: uni0212
Encoding: 530 530 146
Width: 626
Flags: W
LayerCount: 2
Fore
SplineSet
229 318 m 1
 161 318 l 1
 111 0 l 1
 32 0 l 1
 148 730 l 1
 334 730 l 2
 433 730 504 714 544 681 c 0
 586 648 600 596 589 525 c 0
 578 460 551 410 508 376 c 0
 464 343 401 324 320 319 c 1
 529 0 l 1
 435 0 l 1
 229 318 l 1
172 389 m 1
 283 389 l 2
 356 389 410 399 445 420 c 0
 480 441 502 475 509 522 c 0
 516 569 506 604 477 625 c 0
 448 646 398 657 326 657 c 2
 215 657 l 1
 172 389 l 1
504 917 m 0
 533 888 546 851 543 806 c 1
 460 806 l 1
 461 835 453 857 438 872 c 0
 423 887 401 895 372 895 c 0
 343 895 319 887 298 872 c 0
 278 857 264 835 255 806 c 1
 172 806 l 1
 183 851 208 888 247 917 c 0
 286 946 331 960 383 960 c 0
 434 960 474 946 504 917 c 0
EndSplineSet
EndChar

StartChar: S
Encoding: 83 83 147
Width: 589
Flags: W
LayerCount: 2
Fore
SplineSet
115 6 m 0
 76 16 43 31 15 50 c 1
 54 119 l 1
 81 101 112 87 146 78 c 0
 180 68 215 63 251 63 c 0
 305 63 349 74 382 96 c 0
 416 119 436 151 443 192 c 0
 448 220 444 243 432 260 c 0
 421 278 404 292 383 302 c 0
 362 312 332 323 295 335 c 0
 246 352 206 368 176 385 c 0
 146 402 124 423 108 450 c 0
 94 476 89 509 96 549 c 0
 105 609 134 656 182 690 c 0
 229 723 291 740 368 740 c 0
 408 740 448 736 488 726 c 0
 529 718 561 706 586 691 c 1
 546 622 l 1
 524 635 496 646 462 654 c 0
 427 663 393 667 360 667 c 0
 308 667 266 657 234 636 c 0
 202 616 183 587 176 549 c 0
 172 523 176 502 187 485 c 0
 198 468 214 455 235 445 c 0
 256 435 284 424 321 413 c 0
 371 396 411 378 442 362 c 0
 472 344 495 322 510 296 c 0
 525 268 530 234 523 192 c 0
 514 129 484 79 434 44 c 0
 384 8 319 -10 240 -10 c 0
 195 -10 154 -5 115 6 c 0
EndSplineSet
EndChar

StartChar: Sacute
Encoding: 346 346 148
Width: 610
Flags: W
LayerCount: 2
Fore
SplineSet
115 6 m 0
 76 16 43 31 15 50 c 1
 54 119 l 1
 81 101 112 87 146 78 c 0
 180 68 215 63 251 63 c 0
 305 63 349 74 382 96 c 0
 416 119 436 151 443 192 c 0
 448 220 444 243 432 260 c 0
 421 278 404 292 383 302 c 0
 362 312 332 323 295 335 c 0
 246 352 206 368 176 385 c 0
 146 402 124 423 108 450 c 0
 94 476 89 509 96 549 c 0
 105 609 134 656 182 690 c 0
 229 723 291 740 368 740 c 0
 408 740 448 736 488 726 c 0
 529 718 561 706 586 691 c 1
 546 622 l 1
 524 635 496 646 462 654 c 0
 427 663 393 667 360 667 c 0
 308 667 266 657 234 636 c 0
 202 616 183 587 176 549 c 0
 172 523 176 502 187 485 c 0
 198 468 214 455 235 445 c 0
 256 435 284 424 321 413 c 0
 371 396 411 378 442 362 c 0
 472 344 495 322 510 296 c 0
 525 268 530 234 523 192 c 0
 514 129 484 79 434 44 c 0
 384 8 319 -10 240 -10 c 0
 195 -10 154 -5 115 6 c 0
389 770 m 1
 309 770 l 1
 444 980 l 1
 543 980 l 1
 389 770 l 1
EndSplineSet
EndChar

StartChar: Scaron
Encoding: 352 352 149
Width: 610
Flags: W
LayerCount: 2
Fore
SplineSet
115 6 m 0
 76 16 43 31 15 50 c 1
 54 119 l 1
 81 101 112 87 146 78 c 0
 180 68 215 63 251 63 c 0
 305 63 349 74 382 96 c 0
 416 119 436 151 443 192 c 0
 448 220 444 243 432 260 c 0
 421 278 404 292 383 302 c 0
 362 312 332 323 295 335 c 0
 246 352 206 368 176 385 c 0
 146 402 124 423 108 450 c 0
 94 476 89 509 96 549 c 0
 105 609 134 656 182 690 c 0
 229 723 291 740 368 740 c 0
 408 740 448 736 488 726 c 0
 529 718 561 706 586 691 c 1
 546 622 l 1
 524 635 496 646 462 654 c 0
 427 663 393 667 360 667 c 0
 308 667 266 657 234 636 c 0
 202 616 183 587 176 549 c 0
 172 523 176 502 187 485 c 0
 198 468 214 455 235 445 c 0
 256 435 284 424 321 413 c 0
 371 396 411 378 442 362 c 0
 472 344 495 322 510 296 c 0
 525 268 530 234 523 192 c 0
 514 129 484 79 434 44 c 0
 384 8 319 -10 240 -10 c 0
 195 -10 154 -5 115 6 c 0
197 980 m 1
 290 980 l 1
 370 808 l 1
 372 808 l 1
 506 980 l 1
 599 980 l 1
 432 770 l 1
 297 770 l 1
 197 980 l 1
EndSplineSet
EndChar

StartChar: Scedilla
Encoding: 350 350 150
Width: 589
Flags: W
LayerCount: 2
Fore
SplineSet
457 62 m 0
 420 28 372 6 313 -4 c 1
 351 -41 367 -80 360 -120 c 0
 355 -149 339 -173 312 -191 c 0
 285 -209 247 -218 198 -218 c 0
 157 -218 122 -211 93 -197 c 1
 117 -135 l 1
 143 -148 171 -154 202 -154 c 0
 226 -154 246 -150 262 -142 c 0
 278 -135 287 -123 290 -107 c 0
 292 -92 288 -77 276 -60 c 0
 266 -43 248 -27 225 -10 c 1
 184 -9 146 -3 110 7 c 0
 73 17 42 31 15 50 c 1
 54 119 l 1
 81 101 112 87 146 78 c 0
 180 68 215 63 251 63 c 0
 305 63 349 74 382 96 c 0
 416 119 436 151 443 192 c 0
 448 220 444 243 432 260 c 0
 421 278 404 292 383 302 c 0
 362 312 332 323 295 335 c 0
 246 352 206 368 176 385 c 0
 146 402 124 423 108 450 c 0
 94 476 89 509 96 549 c 0
 105 609 134 656 182 690 c 0
 229 723 291 740 368 740 c 0
 408 740 448 736 488 726 c 0
 529 718 561 706 586 691 c 1
 546 622 l 1
 524 635 496 646 462 654 c 0
 427 663 393 667 360 667 c 0
 308 667 266 657 234 636 c 0
 202 616 183 587 176 549 c 0
 172 523 176 502 187 485 c 0
 198 468 214 455 235 445 c 0
 256 435 284 424 321 413 c 0
 371 396 411 378 442 362 c 0
 472 344 495 322 510 296 c 0
 525 268 530 234 523 192 c 0
 516 139 494 96 457 62 c 0
EndSplineSet
EndChar

StartChar: Scircumflex
Encoding: 348 348 151
Width: 610
Flags: W
LayerCount: 2
Fore
SplineSet
115 6 m 0
 76 16 43 31 15 50 c 1
 54 119 l 1
 81 101 112 87 146 78 c 0
 180 68 215 63 251 63 c 0
 305 63 349 74 382 96 c 0
 416 119 436 151 443 192 c 0
 448 220 444 243 432 260 c 0
 421 278 404 292 383 302 c 0
 362 312 332 323 295 335 c 0
 246 352 206 368 176 385 c 0
 146 402 124 423 108 450 c 0
 94 476 89 509 96 549 c 0
 105 609 134 656 182 690 c 0
 229 723 291 740 368 740 c 0
 408 740 448 736 488 726 c 0
 529 718 561 706 586 691 c 1
 546 622 l 1
 524 635 496 646 462 654 c 0
 427 663 393 667 360 667 c 0
 308 667 266 657 234 636 c 0
 202 616 183 587 176 549 c 0
 172 523 176 502 187 485 c 0
 198 468 214 455 235 445 c 0
 256 435 284 424 321 413 c 0
 371 396 411 378 442 362 c 0
 472 344 495 322 510 296 c 0
 525 268 530 234 523 192 c 0
 514 129 484 79 434 44 c 0
 384 8 319 -10 240 -10 c 0
 195 -10 154 -5 115 6 c 0
330 980 m 1
 466 980 l 1
 566 770 l 1
 473 770 l 1
 393 942 l 1
 391 942 l 1
 257 770 l 1
 164 770 l 1
 330 980 l 1
EndSplineSet
EndChar

StartChar: uni0218
Encoding: 536 536 152
Width: 610
Flags: W
LayerCount: 2
Fore
SplineSet
115 6 m 0
 76 16 43 31 15 50 c 1
 54 119 l 1
 81 101 112 87 146 78 c 0
 180 68 215 63 251 63 c 0
 305 63 349 74 382 96 c 0
 416 119 436 151 443 192 c 0
 448 220 444 243 432 260 c 0
 421 278 404 292 383 302 c 0
 362 312 332 323 295 335 c 0
 246 352 206 368 176 385 c 0
 146 402 124 423 108 450 c 0
 94 476 89 509 96 549 c 0
 105 609 134 656 182 690 c 0
 229 723 291 740 368 740 c 0
 408 740 448 736 488 726 c 0
 529 718 561 706 586 691 c 1
 546 622 l 1
 524 635 496 646 462 654 c 0
 427 663 393 667 360 667 c 0
 308 667 266 657 234 636 c 0
 202 616 183 587 176 549 c 0
 172 523 176 502 187 485 c 0
 198 468 214 455 235 445 c 0
 256 435 284 424 321 413 c 0
 371 396 411 378 442 362 c 0
 472 344 495 322 510 296 c 0
 525 268 530 234 523 192 c 0
 514 129 484 79 434 44 c 0
 384 8 319 -10 240 -10 c 0
 195 -10 154 -5 115 6 c 0
135 -250 m 1
 56 -250 l 1
 190 -40 l 1
 289 -40 l 1
 135 -250 l 1
EndSplineSet
EndChar

StartChar: uni1E9E
Encoding: 7838 7838 153
Width: 645
Flags: W
LayerCount: 2
Fore
SplineSet
211 10 m 1
 234 81 l 1
 267 69 301 63 337 63 c 0
 392 63 436 74 468 96 c 0
 502 118 521 149 528 190 c 0
 535 233 524 264 496 286 c 0
 468 306 422 317 358 317 c 2
 345 317 l 1
 357 393 l 1
 513 565 l 1
 522 633 477 667 380 667 c 0
 323 667 279 654 249 628 c 0
 219 603 200 561 191 504 c 2
 111 0 l 1
 32 0 l 1
 112 504 l 2
 125 583 154 642 200 682 c 0
 246 720 310 740 392 740 c 0
 543 740 609 675 588 544 c 1
 440 381 l 1
 439 379 l 1
 502 376 549 358 578 325 c 0
 607 292 617 247 608 190 c 0
 598 125 570 76 522 42 c 0
 476 7 413 -10 336 -10 c 0
 290 -10 248 -3 211 10 c 1
EndSplineSet
EndChar

StartChar: uni018F
Encoding: 399 399 154
Width: 735
Flags: W
LayerCount: 2
Fore
SplineSet
658 643 m 0
 711 578 729 486 710 365 c 0
 697 287 673 220 638 164 c 0
 603 107 558 64 504 34 c 0
 449 5 387 -10 318 -10 c 0
 249 -10 193 5 148 34 c 0
 103 63 72 106 56 161 c 0
 38 216 36 283 48 360 c 0
 51 376 53 389 56 398 c 1
 637 398 l 1
 649 487 634 554 594 599 c 0
 552 644 486 667 393 667 c 0
 351 667 309 662 266 654 c 0
 223 644 182 632 143 615 c 1
 137 684 l 1
 175 701 217 715 263 725 c 0
 309 735 355 740 400 740 c 0
 519 740 605 708 658 643 c 0
522 130 m 0
 572 175 606 240 624 325 c 1
 122 325 l 1
 113 240 127 175 163 130 c 0
 199 85 255 63 332 63 c 0
 408 63 471 85 522 130 c 0
EndSplineSet
EndChar

StartChar: T
Encoding: 84 84 155
Width: 612
Flags: W
LayerCount: 2
Fore
SplineSet
325 657 m 1
 85 657 l 1
 96 730 l 1
 658 730 l 1
 646 657 l 1
 405 657 l 1
 301 0 l 1
 221 0 l 1
 325 657 l 1
EndSplineSet
EndChar

StartChar: Tbar
Encoding: 358 358 156
Width: 663
Flags: W
LayerCount: 2
Fore
SplineSet
672 657 m 1
 430 657 l 1
 382 348 l 1
 561 348 l 1
 550 282 l 1
 371 282 l 1
 326 0 l 1
 246 0 l 1
 291 282 l 1
 112 282 l 1
 123 348 l 1
 301 348 l 1
 350 657 l 1
 110 657 l 1
 122 730 l 1
 683 730 l 1
 672 657 l 1
EndSplineSet
EndChar

StartChar: Tcaron
Encoding: 356 356 157
Width: 629
Flags: W
LayerCount: 2
Fore
SplineSet
325 657 m 1
 85 657 l 1
 96 730 l 1
 658 730 l 1
 646 657 l 1
 405 657 l 1
 301 0 l 1
 221 0 l 1
 325 657 l 1
209 980 m 1
 302 980 l 1
 382 808 l 1
 384 808 l 1
 518 980 l 1
 611 980 l 1
 444 770 l 1
 309 770 l 1
 209 980 l 1
EndSplineSet
EndChar

StartChar: uni0162
Encoding: 354 354 158
Width: 612
Flags: W
LayerCount: 2
Fore
SplineSet
405 657 m 1
 303 14 l 1
 356 -28 378 -73 371 -120 c 0
 366 -149 350 -173 323 -191 c 0
 296 -209 258 -218 209 -218 c 0
 168 -218 132 -211 103 -197 c 1
 127 -134 l 1
 152 -147 180 -153 213 -153 c 0
 237 -153 257 -149 272 -142 c 0
 288 -135 297 -123 300 -107 c 0
 303 -90 297 -73 284 -54 c 0
 270 -36 249 -18 222 0 c 1
 221 0 l 1
 325 657 l 1
 85 657 l 1
 96 730 l 1
 658 730 l 1
 646 657 l 1
 405 657 l 1
EndSplineSet
EndChar

StartChar: uni021A
Encoding: 538 538 159
Width: 629
Flags: W
LayerCount: 2
Fore
SplineSet
325 657 m 1
 85 657 l 1
 96 730 l 1
 658 730 l 1
 646 657 l 1
 405 657 l 1
 301 0 l 1
 221 0 l 1
 325 657 l 1
147 -250 m 1
 68 -250 l 1
 202 -40 l 1
 301 -40 l 1
 147 -250 l 1
EndSplineSet
EndChar

StartChar: U
Encoding: 85 85 160
Width: 674
Flags: W
LayerCount: 2
Fore
SplineSet
102 61 m 0
 64 108 52 178 67 270 c 2
 140 730 l 1
 218 730 l 1
 147 279 l 2
 135 205 142 150 168 116 c 0
 193 80 238 63 303 63 c 0
 368 63 418 80 454 116 c 0
 490 150 514 205 526 279 c 2
 597 730 l 1
 676 730 l 1
 603 270 l 2
 588 178 554 108 502 61 c 0
 448 14 378 -10 291 -10 c 0
 203 -10 140 14 102 61 c 0
EndSplineSet
EndChar

StartChar: Uacute
Encoding: 218 218 161
Width: 699
Flags: W
LayerCount: 2
Fore
SplineSet
102 61 m 0
 64 108 52 178 67 270 c 2
 140 730 l 1
 218 730 l 1
 147 279 l 2
 135 205 142 150 168 116 c 0
 193 80 238 63 303 63 c 0
 368 63 418 80 454 116 c 0
 490 150 514 205 526 279 c 2
 597 730 l 1
 676 730 l 1
 603 270 l 2
 588 178 554 108 502 61 c 0
 448 14 378 -10 291 -10 c 0
 203 -10 140 14 102 61 c 0
436 770 m 1
 356 770 l 1
 491 980 l 1
 590 980 l 1
 436 770 l 1
EndSplineSet
EndChar

StartChar: Ubreve
Encoding: 364 364 162
Width: 699
Flags: W
LayerCount: 2
Fore
SplineSet
102 61 m 0
 64 108 52 178 67 270 c 2
 140 730 l 1
 218 730 l 1
 147 279 l 2
 135 205 142 150 168 116 c 0
 193 80 238 63 303 63 c 0
 368 63 418 80 454 116 c 0
 490 150 514 205 526 279 c 2
 597 730 l 1
 676 730 l 1
 603 270 l 2
 588 178 554 108 502 61 c 0
 448 14 378 -10 291 -10 c 0
 203 -10 140 14 102 61 c 0
290 833 m 0
 260 862 247 899 250 944 c 1
 333 944 l 1
 332 915 340 893 356 878 c 0
 371 863 393 855 422 855 c 0
 451 855 475 863 495 878 c 0
 515 893 529 915 538 944 c 1
 621 944 l 1
 610 899 585 862 546 833 c 0
 507 804 463 790 412 790 c 0
 360 790 319 804 290 833 c 0
EndSplineSet
EndChar

StartChar: Ucircumflex
Encoding: 219 219 163
Width: 699
Flags: W
LayerCount: 2
Fore
SplineSet
102 61 m 0
 64 108 52 178 67 270 c 2
 140 730 l 1
 218 730 l 1
 147 279 l 2
 135 205 142 150 168 116 c 0
 193 80 238 63 303 63 c 0
 368 63 418 80 454 116 c 0
 490 150 514 205 526 279 c 2
 597 730 l 1
 676 730 l 1
 603 270 l 2
 588 178 554 108 502 61 c 0
 448 14 378 -10 291 -10 c 0
 203 -10 140 14 102 61 c 0
377 980 m 1
 513 980 l 1
 613 770 l 1
 520 770 l 1
 440 942 l 1
 438 942 l 1
 304 770 l 1
 211 770 l 1
 377 980 l 1
EndSplineSet
EndChar

StartChar: uni0214
Encoding: 532 532 164
Width: 699
Flags: W
LayerCount: 2
Fore
SplineSet
102 61 m 0
 64 108 52 178 67 270 c 2
 140 730 l 1
 218 730 l 1
 147 279 l 2
 135 205 142 150 168 116 c 0
 193 80 238 63 303 63 c 0
 368 63 418 80 454 116 c 0
 490 150 514 205 526 279 c 2
 597 730 l 1
 676 730 l 1
 603 270 l 2
 588 178 554 108 502 61 c 0
 448 14 378 -10 291 -10 c 0
 203 -10 140 14 102 61 c 0
200 980 m 1
 299 980 l 1
 367 770 l 1
 287 770 l 1
 200 980 l 1
406 980 m 1
 505 980 l 1
 573 770 l 1
 493 770 l 1
 406 980 l 1
EndSplineSet
EndChar

StartChar: Udieresis
Encoding: 220 220 165
Width: 699
Flags: W
LayerCount: 2
Fore
SplineSet
102 61 m 0
 64 108 52 178 67 270 c 2
 140 730 l 1
 218 730 l 1
 147 279 l 2
 135 205 142 150 168 116 c 0
 193 80 238 63 303 63 c 0
 368 63 418 80 454 116 c 0
 490 150 514 205 526 279 c 2
 597 730 l 1
 676 730 l 1
 603 270 l 2
 588 178 554 108 502 61 c 0
 448 14 378 -10 291 -10 c 0
 203 -10 140 14 102 61 c 0
259 927 m 1
 361 927 l 1
 344 823 l 1
 242 823 l 1
 259 927 l 1
503 927 m 1
 605 927 l 1
 588 823 l 1
 486 823 l 1
 503 927 l 1
EndSplineSet
EndChar

StartChar: uni1EE4
Encoding: 7908 7908 166
Width: 699
Flags: W
LayerCount: 2
Fore
SplineSet
102 61 m 0
 64 108 52 178 67 270 c 2
 140 730 l 1
 218 730 l 1
 147 279 l 2
 135 205 142 150 168 116 c 0
 193 80 238 63 303 63 c 0
 368 63 418 80 454 116 c 0
 490 150 514 205 526 279 c 2
 597 730 l 1
 676 730 l 1
 603 270 l 2
 588 178 554 108 502 61 c 0
 448 14 378 -10 291 -10 c 0
 203 -10 140 14 102 61 c 0
249 -93 m 1
 351 -93 l 1
 335 -197 l 1
 233 -197 l 1
 249 -93 l 1
EndSplineSet
EndChar

StartChar: Ugrave
Encoding: 217 217 167
Width: 699
Flags: W
LayerCount: 2
Fore
SplineSet
102 61 m 0
 64 108 52 178 67 270 c 2
 140 730 l 1
 218 730 l 1
 147 279 l 2
 135 205 142 150 168 116 c 0
 193 80 238 63 303 63 c 0
 368 63 418 80 454 116 c 0
 490 150 514 205 526 279 c 2
 597 730 l 1
 676 730 l 1
 603 270 l 2
 588 178 554 108 502 61 c 0
 448 14 378 -10 291 -10 c 0
 203 -10 140 14 102 61 c 0
288 980 m 1
 387 980 l 1
 455 770 l 1
 375 770 l 1
 288 980 l 1
EndSplineSet
EndChar

StartChar: uni1EE6
Encoding: 7910 7910 168
Width: 699
Flags: W
LayerCount: 2
Fore
SplineSet
102 61 m 0
 64 108 52 178 67 270 c 2
 140 730 l 1
 218 730 l 1
 147 279 l 2
 135 205 142 150 168 116 c 0
 193 80 238 63 303 63 c 0
 368 63 418 80 454 116 c 0
 490 150 514 205 526 279 c 2
 597 730 l 1
 676 730 l 1
 603 270 l 2
 588 178 554 108 502 61 c 0
 448 14 378 -10 291 -10 c 0
 203 -10 140 14 102 61 c 0
521 837 m 0
 526 852 530 864 531 874 c 0
 534 891 530 902 520 908 c 0
 509 913 489 916 459 916 c 0
 418 916 377 910 336 899 c 1
 338 963 l 1
 384 974 433 980 486 980 c 0
 523 980 552 978 572 973 c 0
 591 968 605 960 612 949 c 0
 619 938 621 922 618 901 c 0
 616 886 612 869 605 850 c 0
 598 831 591 814 584 800 c 1
 505 800 l 1
 510 810 516 822 521 837 c 0
EndSplineSet
EndChar

StartChar: Uhorn
Encoding: 431 431 169
Width: 759
Flags: W
LayerCount: 2
Fore
SplineSet
855 731 m 0
 848 690 834 659 810 636 c 0
 788 613 758 602 723 602 c 0
 702 602 681 606 658 615 c 1
 603 270 l 2
 588 178 554 108 502 61 c 0
 448 14 378 -10 291 -10 c 0
 203 -10 140 14 102 61 c 0
 64 108 52 178 67 270 c 2
 140 730 l 1
 218 730 l 1
 147 279 l 2
 135 205 142 150 168 116 c 0
 193 80 238 63 303 63 c 0
 368 63 418 80 454 116 c 0
 490 150 514 205 526 279 c 2
 597 730 l 1
 676 730 l 1
 668 683 l 1
 681 675 694 671 709 671 c 0
 728 671 743 677 754 689 c 0
 766 701 774 718 778 741 c 0
 781 756 782 774 780 794 c 0
 780 813 777 829 774 842 c 1
 854 842 l 1
 861 804 861 767 855 731 c 0
EndSplineSet
EndChar

StartChar: uni1EE8
Encoding: 7912 7912 170
Width: 779
Flags: W
LayerCount: 2
Fore
SplineSet
855 731 m 0
 848 690 834 659 810 636 c 0
 788 613 758 602 723 602 c 0
 702 602 681 606 658 615 c 1
 603 270 l 2
 588 178 554 108 502 61 c 0
 448 14 378 -10 291 -10 c 0
 203 -10 140 14 102 61 c 0
 64 108 52 178 67 270 c 2
 140 730 l 1
 218 730 l 1
 147 279 l 2
 135 205 142 150 168 116 c 0
 193 80 238 63 303 63 c 0
 368 63 418 80 454 116 c 0
 490 150 514 205 526 279 c 2
 597 730 l 1
 676 730 l 1
 668 683 l 1
 681 675 694 671 709 671 c 0
 728 671 743 677 754 689 c 0
 766 701 774 718 778 741 c 0
 781 756 782 774 780 794 c 0
 780 813 777 829 774 842 c 1
 854 842 l 1
 861 804 861 767 855 731 c 0
436 770 m 1
 356 770 l 1
 491 980 l 1
 590 980 l 1
 436 770 l 1
EndSplineSet
EndChar

StartChar: uni1EF0
Encoding: 7920 7920 171
Width: 779
Flags: W
LayerCount: 2
Fore
SplineSet
855 731 m 0
 848 690 834 659 810 636 c 0
 788 613 758 602 723 602 c 0
 702 602 681 606 658 615 c 1
 603 270 l 2
 588 178 554 108 502 61 c 0
 448 14 378 -10 291 -10 c 0
 203 -10 140 14 102 61 c 0
 64 108 52 178 67 270 c 2
 140 730 l 1
 218 730 l 1
 147 279 l 2
 135 205 142 150 168 116 c 0
 193 80 238 63 303 63 c 0
 368 63 418 80 454 116 c 0
 490 150 514 205 526 279 c 2
 597 730 l 1
 676 730 l 1
 668 683 l 1
 681 675 694 671 709 671 c 0
 728 671 743 677 754 689 c 0
 766 701 774 718 778 741 c 0
 781 756 782 774 780 794 c 0
 780 813 777 829 774 842 c 1
 854 842 l 1
 861 804 861 767 855 731 c 0
249 -93 m 1
 351 -93 l 1
 335 -197 l 1
 233 -197 l 1
 249 -93 l 1
EndSplineSet
EndChar

StartChar: uni1EEA
Encoding: 7914 7914 172
Width: 779
Flags: W
LayerCount: 2
Fore
SplineSet
855 731 m 0
 848 690 834 659 810 636 c 0
 788 613 758 602 723 602 c 0
 702 602 681 606 658 615 c 1
 603 270 l 2
 588 178 554 108 502 61 c 0
 448 14 378 -10 291 -10 c 0
 203 -10 140 14 102 61 c 0
 64 108 52 178 67 270 c 2
 140 730 l 1
 218 730 l 1
 147 279 l 2
 135 205 142 150 168 116 c 0
 193 80 238 63 303 63 c 0
 368 63 418 80 454 116 c 0
 490 150 514 205 526 279 c 2
 597 730 l 1
 676 730 l 1
 668 683 l 1
 681 675 694 671 709 671 c 0
 728 671 743 677 754 689 c 0
 766 701 774 718 778 741 c 0
 781 756 782 774 780 794 c 0
 780 813 777 829 774 842 c 1
 854 842 l 1
 861 804 861 767 855 731 c 0
288 980 m 1
 387 980 l 1
 455 770 l 1
 375 770 l 1
 288 980 l 1
EndSplineSet
EndChar

StartChar: uni1EEC
Encoding: 7916 7916 173
Width: 779
Flags: W
LayerCount: 2
Fore
SplineSet
855 731 m 0
 848 690 834 659 810 636 c 0
 788 613 758 602 723 602 c 0
 702 602 681 606 658 615 c 1
 603 270 l 2
 588 178 554 108 502 61 c 0
 448 14 378 -10 291 -10 c 0
 203 -10 140 14 102 61 c 0
 64 108 52 178 67 270 c 2
 140 730 l 1
 218 730 l 1
 147 279 l 2
 135 205 142 150 168 116 c 0
 193 80 238 63 303 63 c 0
 368 63 418 80 454 116 c 0
 490 150 514 205 526 279 c 2
 597 730 l 1
 676 730 l 1
 668 683 l 1
 681 675 694 671 709 671 c 0
 728 671 743 677 754 689 c 0
 766 701 774 718 778 741 c 0
 781 756 782 774 780 794 c 0
 780 813 777 829 774 842 c 1
 854 842 l 1
 861 804 861 767 855 731 c 0
521 837 m 0
 526 852 530 864 531 874 c 0
 534 891 530 902 520 908 c 0
 509 913 489 916 459 916 c 0
 418 916 377 910 336 899 c 1
 338 963 l 1
 384 974 433 980 486 980 c 0
 523 980 552 978 572 973 c 0
 591 968 605 960 612 949 c 0
 619 938 621 922 618 901 c 0
 616 886 612 869 605 850 c 0
 598 831 591 814 584 800 c 1
 505 800 l 1
 510 810 516 822 521 837 c 0
EndSplineSet
EndChar

StartChar: uni1EEE
Encoding: 7918 7918 174
Width: 779
Flags: W
LayerCount: 2
Fore
SplineSet
855 731 m 0
 848 690 834 659 810 636 c 0
 788 613 758 602 723 602 c 0
 702 602 681 606 658 615 c 1
 603 270 l 2
 588 178 554 108 502 61 c 0
 448 14 378 -10 291 -10 c 0
 203 -10 140 14 102 61 c 0
 64 108 52 178 67 270 c 2
 140 730 l 1
 218 730 l 1
 147 279 l 2
 135 205 142 150 168 116 c 0
 193 80 238 63 303 63 c 0
 368 63 418 80 454 116 c 0
 490 150 514 205 526 279 c 2
 597 730 l 1
 676 730 l 1
 668 683 l 1
 681 675 694 671 709 671 c 0
 728 671 743 677 754 689 c 0
 766 701 774 718 778 741 c 0
 781 756 782 774 780 794 c 0
 780 813 777 829 774 842 c 1
 854 842 l 1
 861 804 861 767 855 731 c 0
409 843 m 0
 382 865 360 876 343 876 c 0
 332 876 324 871 318 860 c 0
 311 849 306 831 302 806 c 1
 229 806 l 1
 237 856 250 893 268 918 c 0
 286 942 310 954 340 954 c 0
 371 954 405 938 443 907 c 0
 469 885 491 874 508 874 c 0
 519 874 527 879 534 890 c 0
 541 901 546 919 550 944 c 1
 622 944 l 1
 614 894 601 857 584 832 c 0
 566 808 542 796 513 796 c 0
 483 796 448 812 409 843 c 0
EndSplineSet
EndChar

StartChar: Uhungarumlaut
Encoding: 368 368 175
Width: 699
Flags: W
LayerCount: 2
Fore
SplineSet
102 61 m 0
 64 108 52 178 67 270 c 2
 140 730 l 1
 218 730 l 1
 147 279 l 2
 135 205 142 150 168 116 c 0
 193 80 238 63 303 63 c 0
 368 63 418 80 454 116 c 0
 490 150 514 205 526 279 c 2
 597 730 l 1
 676 730 l 1
 603 270 l 2
 588 178 554 108 502 61 c 0
 448 14 378 -10 291 -10 c 0
 203 -10 140 14 102 61 c 0
336 770 m 1
 256 770 l 1
 391 980 l 1
 490 980 l 1
 336 770 l 1
546 770 m 1
 466 770 l 1
 601 980 l 1
 700 980 l 1
 546 770 l 1
EndSplineSet
EndChar

StartChar: uni0216
Encoding: 534 534 176
Width: 699
Flags: W
LayerCount: 2
Fore
SplineSet
102 61 m 0
 64 108 52 178 67 270 c 2
 140 730 l 1
 218 730 l 1
 147 279 l 2
 135 205 142 150 168 116 c 0
 193 80 238 63 303 63 c 0
 368 63 418 80 454 116 c 0
 490 150 514 205 526 279 c 2
 597 730 l 1
 676 730 l 1
 603 270 l 2
 588 178 554 108 502 61 c 0
 448 14 378 -10 291 -10 c 0
 203 -10 140 14 102 61 c 0
550 917 m 0
 579 888 592 851 589 806 c 1
 506 806 l 1
 507 835 499 857 484 872 c 0
 469 887 447 895 418 895 c 0
 389 895 365 887 344 872 c 0
 324 857 310 835 301 806 c 1
 218 806 l 1
 229 851 254 888 293 917 c 0
 332 946 377 960 429 960 c 0
 480 960 520 946 550 917 c 0
EndSplineSet
EndChar

StartChar: Umacron
Encoding: 362 362 177
Width: 699
Flags: W
LayerCount: 2
Fore
SplineSet
102 61 m 0
 64 108 52 178 67 270 c 2
 140 730 l 1
 218 730 l 1
 147 279 l 2
 135 205 142 150 168 116 c 0
 193 80 238 63 303 63 c 0
 368 63 418 80 454 116 c 0
 490 150 514 205 526 279 c 2
 597 730 l 1
 676 730 l 1
 603 270 l 2
 588 178 554 108 502 61 c 0
 448 14 378 -10 291 -10 c 0
 203 -10 140 14 102 61 c 0
302 907 m 1
 657 907 l 1
 647 843 l 1
 291 843 l 1
 302 907 l 1
EndSplineSet
EndChar

StartChar: Uogonek
Encoding: 370 370 178
Width: 674
Flags: W
LayerCount: 2
Fore
SplineSet
331 -46 m 0
 313 -64 303 -81 300 -97 c 0
 297 -113 303 -125 316 -132 c 0
 329 -139 348 -143 372 -143 c 0
 405 -143 435 -137 464 -124 c 1
 468 -187 l 1
 435 -201 397 -208 356 -208 c 0
 307 -208 271 -199 250 -181 c 0
 228 -163 219 -139 224 -110 c 0
 229 -75 251 -41 289 -10 c 1
 202 -9 139 15 102 62 c 0
 64 109 52 179 67 270 c 2
 140 730 l 1
 218 730 l 1
 147 279 l 2
 135 205 142 150 168 116 c 0
 193 80 238 63 303 63 c 0
 368 63 418 80 454 116 c 0
 490 150 514 205 526 279 c 2
 597 730 l 1
 676 730 l 1
 603 270 l 2
 592 200 570 143 536 98 c 0
 504 54 460 23 405 6 c 1
 374 -11 349 -29 331 -46 c 0
EndSplineSet
EndChar

StartChar: Uring
Encoding: 366 366 179
Width: 699
Flags: W
LayerCount: 2
Fore
SplineSet
102 61 m 0
 64 108 52 178 67 270 c 2
 140 730 l 1
 218 730 l 1
 147 279 l 2
 135 205 142 150 168 116 c 0
 193 80 238 63 303 63 c 0
 368 63 418 80 454 116 c 0
 490 150 514 205 526 279 c 2
 597 730 l 1
 676 730 l 1
 603 270 l 2
 588 178 554 108 502 61 c 0
 448 14 378 -10 291 -10 c 0
 203 -10 140 14 102 61 c 0
378 747 m 0
 360 760 346 777 336 799 c 0
 328 821 325 845 329 870 c 0
 333 895 343 919 359 941 c 0
 375 963 394 980 418 993 c 0
 440 1006 465 1012 491 1012 c 0
 516 1012 538 1006 557 993 c 0
 576 980 590 963 599 941 c 0
 608 919 610 895 606 870 c 0
 602 845 592 821 576 799 c 0
 561 777 541 760 518 747 c 0
 495 734 471 728 446 728 c 0
 420 728 398 734 378 747 c 0
515 812 m 0
 533 828 544 847 548 870 c 0
 551 893 546 912 534 928 c 0
 520 944 503 952 481 952 c 0
 459 952 439 944 420 928 c 0
 402 912 391 893 388 870 c 0
 385 847 390 828 402 812 c 0
 416 796 433 788 455 788 c 0
 477 788 497 796 515 812 c 0
EndSplineSet
EndChar

StartChar: Utilde
Encoding: 360 360 180
Width: 699
Flags: W
LayerCount: 2
Fore
SplineSet
102 61 m 0
 64 108 52 178 67 270 c 2
 140 730 l 1
 218 730 l 1
 147 279 l 2
 135 205 142 150 168 116 c 0
 193 80 238 63 303 63 c 0
 368 63 418 80 454 116 c 0
 490 150 514 205 526 279 c 2
 597 730 l 1
 676 730 l 1
 603 270 l 2
 588 178 554 108 502 61 c 0
 448 14 378 -10 291 -10 c 0
 203 -10 140 14 102 61 c 0
409 843 m 0
 382 865 360 876 343 876 c 0
 332 876 324 871 318 860 c 0
 311 849 306 831 302 806 c 1
 229 806 l 1
 237 856 250 893 268 918 c 0
 286 942 310 954 340 954 c 0
 371 954 405 938 443 907 c 0
 469 885 491 874 508 874 c 0
 519 874 527 879 534 890 c 0
 541 901 546 919 550 944 c 1
 622 944 l 1
 614 894 601 857 584 832 c 0
 566 808 542 796 513 796 c 0
 483 796 448 812 409 843 c 0
EndSplineSet
EndChar

StartChar: V
Encoding: 86 86 181
Width: 649
Flags: W
LayerCount: 2
Fore
SplineSet
83 730 m 1
 170 730 l 1
 292 80 l 1
 294 80 l 1
 621 730 l 1
 708 730 l 1
 332 0 l 1
 228 0 l 1
 83 730 l 1
EndSplineSet
EndChar

StartChar: W
Encoding: 87 87 182
Width: 894
Flags: W
LayerCount: 2
Fore
SplineSet
507 644 m 1
 505 644 l 1
 256 0 l 1
 157 0 l 1
 96 730 l 1
 176 730 l 1
 219 86 l 1
 220 86 l 1
 469 730 l 1
 571 730 l 1
 617 86 l 1
 619 86 l 1
 865 730 l 1
 943 730 l 1
 651 0 l 1
 552 0 l 1
 507 644 l 1
EndSplineSet
EndChar

StartChar: Wacute
Encoding: 7810 7810 183
Width: 917
Flags: W
LayerCount: 2
Fore
SplineSet
507 644 m 1
 505 644 l 1
 256 0 l 1
 157 0 l 1
 96 730 l 1
 176 730 l 1
 219 86 l 1
 220 86 l 1
 469 730 l 1
 571 730 l 1
 617 86 l 1
 619 86 l 1
 865 730 l 1
 943 730 l 1
 651 0 l 1
 552 0 l 1
 507 644 l 1
545 770 m 1
 465 770 l 1
 600 980 l 1
 699 980 l 1
 545 770 l 1
EndSplineSet
EndChar

StartChar: Wcircumflex
Encoding: 372 372 184
Width: 917
Flags: W
LayerCount: 2
Fore
SplineSet
507 644 m 1
 505 644 l 1
 256 0 l 1
 157 0 l 1
 96 730 l 1
 176 730 l 1
 219 86 l 1
 220 86 l 1
 469 730 l 1
 571 730 l 1
 617 86 l 1
 619 86 l 1
 865 730 l 1
 943 730 l 1
 651 0 l 1
 552 0 l 1
 507 644 l 1
485 980 m 1
 621 980 l 1
 721 770 l 1
 628 770 l 1
 548 942 l 1
 546 942 l 1
 412 770 l 1
 319 770 l 1
 485 980 l 1
EndSplineSet
EndChar

StartChar: Wdieresis
Encoding: 7812 7812 185
Width: 917
Flags: W
LayerCount: 2
Fore
SplineSet
507 644 m 1
 505 644 l 1
 256 0 l 1
 157 0 l 1
 96 730 l 1
 176 730 l 1
 219 86 l 1
 220 86 l 1
 469 730 l 1
 571 730 l 1
 617 86 l 1
 619 86 l 1
 865 730 l 1
 943 730 l 1
 651 0 l 1
 552 0 l 1
 507 644 l 1
368 927 m 1
 470 927 l 1
 453 823 l 1
 351 823 l 1
 368 927 l 1
612 927 m 1
 714 927 l 1
 697 823 l 1
 595 823 l 1
 612 927 l 1
EndSplineSet
EndChar

StartChar: Wgrave
Encoding: 7808 7808 186
Width: 917
Flags: W
LayerCount: 2
Fore
SplineSet
507 644 m 1
 505 644 l 1
 256 0 l 1
 157 0 l 1
 96 730 l 1
 176 730 l 1
 219 86 l 1
 220 86 l 1
 469 730 l 1
 571 730 l 1
 617 86 l 1
 619 86 l 1
 865 730 l 1
 943 730 l 1
 651 0 l 1
 552 0 l 1
 507 644 l 1
397 980 m 1
 496 980 l 1
 564 770 l 1
 484 770 l 1
 397 980 l 1
EndSplineSet
EndChar

StartChar: X
Encoding: 88 88 187
Width: 667
Flags: W
LayerCount: 2
Fore
SplineSet
290 368 m 1
 121 730 l 1
 210 730 l 1
 353 416 l 1
 355 416 l 1
 598 730 l 1
 687 730 l 1
 404 368 l 1
 576 0 l 1
 487 0 l 1
 340 320 l 1
 338 320 l 1
 91 0 l 1
 1 0 l 1
 290 368 l 1
EndSplineSet
EndChar

StartChar: Y
Encoding: 89 89 188
Width: 629
Flags: W
LayerCount: 2
Fore
SplineSet
277 302 m 1
 78 730 l 1
 168 730 l 1
 329 377 l 1
 331 377 l 1
 602 730 l 1
 692 730 l 1
 358 302 l 1
 310 0 l 1
 229 0 l 1
 277 302 l 1
EndSplineSet
EndChar

StartChar: Yacute
Encoding: 221 221 189
Width: 643
Flags: W
LayerCount: 2
Fore
SplineSet
277 302 m 1
 78 730 l 1
 168 730 l 1
 329 377 l 1
 331 377 l 1
 602 730 l 1
 692 730 l 1
 358 302 l 1
 310 0 l 1
 229 0 l 1
 277 302 l 1
408 770 m 1
 328 770 l 1
 463 980 l 1
 562 980 l 1
 408 770 l 1
EndSplineSet
EndChar

StartChar: Ycircumflex
Encoding: 374 374 190
Width: 643
Flags: W
LayerCount: 2
Fore
SplineSet
277 302 m 1
 78 730 l 1
 168 730 l 1
 329 377 l 1
 331 377 l 1
 602 730 l 1
 692 730 l 1
 358 302 l 1
 310 0 l 1
 229 0 l 1
 277 302 l 1
349 980 m 1
 485 980 l 1
 585 770 l 1
 492 770 l 1
 412 942 l 1
 410 942 l 1
 276 770 l 1
 183 770 l 1
 349 980 l 1
EndSplineSet
EndChar

StartChar: Ydieresis
Encoding: 376 376 191
Width: 643
Flags: W
LayerCount: 2
Fore
SplineSet
277 302 m 1
 78 730 l 1
 168 730 l 1
 329 377 l 1
 331 377 l 1
 602 730 l 1
 692 730 l 1
 358 302 l 1
 310 0 l 1
 229 0 l 1
 277 302 l 1
231 927 m 1
 333 927 l 1
 316 823 l 1
 214 823 l 1
 231 927 l 1
475 927 m 1
 577 927 l 1
 560 823 l 1
 458 823 l 1
 475 927 l 1
EndSplineSet
EndChar

StartChar: uni1EF4
Encoding: 7924 7924 192
Width: 643
Flags: W
LayerCount: 2
Fore
SplineSet
277 302 m 1
 78 730 l 1
 168 730 l 1
 329 377 l 1
 331 377 l 1
 602 730 l 1
 692 730 l 1
 358 302 l 1
 310 0 l 1
 229 0 l 1
 277 302 l 1
221 -93 m 1
 323 -93 l 1
 307 -197 l 1
 205 -197 l 1
 221 -93 l 1
EndSplineSet
EndChar

StartChar: Ygrave
Encoding: 7922 7922 193
Width: 643
Flags: W
LayerCount: 2
Fore
SplineSet
277 302 m 1
 78 730 l 1
 168 730 l 1
 329 377 l 1
 331 377 l 1
 602 730 l 1
 692 730 l 1
 358 302 l 1
 310 0 l 1
 229 0 l 1
 277 302 l 1
260 980 m 1
 359 980 l 1
 427 770 l 1
 347 770 l 1
 260 980 l 1
EndSplineSet
EndChar

StartChar: uni1EF6
Encoding: 7926 7926 194
Width: 643
Flags: W
LayerCount: 2
Fore
SplineSet
277 302 m 1
 78 730 l 1
 168 730 l 1
 329 377 l 1
 331 377 l 1
 602 730 l 1
 692 730 l 1
 358 302 l 1
 310 0 l 1
 229 0 l 1
 277 302 l 1
493 837 m 0
 498 852 502 864 503 874 c 0
 506 891 502 902 492 908 c 0
 481 913 461 916 431 916 c 0
 390 916 349 910 308 899 c 1
 310 963 l 1
 356 974 405 980 458 980 c 0
 495 980 524 978 544 973 c 0
 563 968 577 960 584 949 c 0
 591 938 593 922 590 901 c 0
 588 886 584 869 577 850 c 0
 570 831 563 814 556 800 c 1
 477 800 l 1
 482 810 488 822 493 837 c 0
EndSplineSet
EndChar

StartChar: uni0232
Encoding: 562 562 195
Width: 643
Flags: W
LayerCount: 2
Fore
SplineSet
277 302 m 1
 78 730 l 1
 168 730 l 1
 329 377 l 1
 331 377 l 1
 602 730 l 1
 692 730 l 1
 358 302 l 1
 310 0 l 1
 229 0 l 1
 277 302 l 1
274 907 m 1
 629 907 l 1
 619 843 l 1
 263 843 l 1
 274 907 l 1
EndSplineSet
EndChar

StartChar: uni1EF8
Encoding: 7928 7928 196
Width: 643
Flags: W
LayerCount: 2
Fore
SplineSet
277 302 m 1
 78 730 l 1
 168 730 l 1
 329 377 l 1
 331 377 l 1
 602 730 l 1
 692 730 l 1
 358 302 l 1
 310 0 l 1
 229 0 l 1
 277 302 l 1
381 843 m 0
 354 865 332 876 315 876 c 0
 304 876 296 871 290 860 c 0
 283 849 278 831 274 806 c 1
 201 806 l 1
 209 856 222 893 240 918 c 0
 258 942 282 954 312 954 c 0
 343 954 377 938 415 907 c 0
 441 885 463 874 480 874 c 0
 491 874 499 879 506 890 c 0
 513 901 518 919 522 944 c 1
 594 944 l 1
 586 894 573 857 556 832 c 0
 538 808 514 796 485 796 c 0
 455 796 420 812 381 843 c 0
EndSplineSet
EndChar

StartChar: Z
Encoding: 90 90 197
Width: 613
Flags: W
LayerCount: 2
Fore
SplineSet
28 73 m 1
 514 655 l 1
 514 657 l 1
 121 657 l 1
 133 730 l 1
 623 730 l 1
 611 657 l 1
 126 75 l 1
 125 73 l 1
 518 73 l 1
 507 0 l 1
 17 0 l 1
 28 73 l 1
EndSplineSet
EndChar

StartChar: Zacute
Encoding: 377 377 198
Width: 636
Flags: W
LayerCount: 2
Fore
SplineSet
28 73 m 1
 514 655 l 1
 514 657 l 1
 121 657 l 1
 133 730 l 1
 623 730 l 1
 611 657 l 1
 126 75 l 1
 125 73 l 1
 518 73 l 1
 507 0 l 1
 17 0 l 1
 28 73 l 1
405 770 m 1
 325 770 l 1
 460 980 l 1
 559 980 l 1
 405 770 l 1
EndSplineSet
EndChar

StartChar: Zcaron
Encoding: 381 381 199
Width: 636
Flags: W
LayerCount: 2
Fore
SplineSet
28 73 m 1
 514 655 l 1
 514 657 l 1
 121 657 l 1
 133 730 l 1
 623 730 l 1
 611 657 l 1
 126 75 l 1
 125 73 l 1
 518 73 l 1
 507 0 l 1
 17 0 l 1
 28 73 l 1
213 980 m 1
 306 980 l 1
 386 808 l 1
 388 808 l 1
 522 980 l 1
 615 980 l 1
 448 770 l 1
 313 770 l 1
 213 980 l 1
EndSplineSet
EndChar

StartChar: Zdotaccent
Encoding: 379 379 200
Width: 636
Flags: W
LayerCount: 2
Fore
SplineSet
28 73 m 1
 514 655 l 1
 514 657 l 1
 121 657 l 1
 133 730 l 1
 623 730 l 1
 611 657 l 1
 126 75 l 1
 125 73 l 1
 518 73 l 1
 507 0 l 1
 17 0 l 1
 28 73 l 1
379 927 m 1
 481 927 l 1
 465 823 l 1
 363 823 l 1
 379 927 l 1
EndSplineSet
EndChar

StartChar: a
Encoding: 97 97 201
Width: 502
Flags: W
LayerCount: 2
Fore
SplineSet
398 510 m 0
 424 497 440 475 447 446 c 0
 454 416 454 376 447 326 c 2
 395 0 l 1
 324 0 l 1
 336 77 l 1
 334 77 l 1
 312 50 284 29 250 14 c 0
 216 -2 180 -10 143 -10 c 0
 93 -10 56 4 31 32 c 0
 6 59 -2 97 5 144 c 0
 14 205 47 252 103 284 c 0
 159 318 234 334 328 334 c 2
 374 334 l 1
 379 367 379 393 374 412 c 0
 369 430 360 443 344 451 c 0
 330 459 307 463 277 463 c 0
 212 463 149 448 87 419 c 1
 76 481 l 1
 144 514 216 530 292 530 c 0
 338 530 374 523 398 510 c 0
252 76 m 0
 279 89 301 108 320 130 c 0
 338 154 349 178 353 205 c 2
 363 270 l 1
 318 270 l 2
 248 270 192 260 152 239 c 0
 110 218 87 189 80 150 c 0
 75 121 81 98 98 81 c 0
 115 64 139 55 171 55 c 0
 199 55 226 62 252 76 c 0
EndSplineSet
EndChar

StartChar: aacute
Encoding: 225 225 202
Width: 535
Flags: W
LayerCount: 2
Fore
SplineSet
398 510 m 0
 424 497 440 475 447 446 c 0
 454 416 454 376 447 326 c 2
 395 0 l 1
 324 0 l 1
 336 77 l 1
 334 77 l 1
 312 50 284 29 250 14 c 0
 216 -2 180 -10 143 -10 c 0
 93 -10 56 4 31 32 c 0
 6 59 -2 97 5 144 c 0
 14 205 47 252 103 284 c 0
 159 318 234 334 328 334 c 2
 374 334 l 1
 379 367 379 393 374 412 c 0
 369 430 360 443 344 451 c 0
 330 459 307 463 277 463 c 0
 212 463 149 448 87 419 c 1
 76 481 l 1
 144 514 216 530 292 530 c 0
 338 530 374 523 398 510 c 0
252 76 m 0
 279 89 301 108 320 130 c 0
 338 154 349 178 353 205 c 2
 363 270 l 1
 318 270 l 2
 248 270 192 260 152 239 c 0
 110 218 87 189 80 150 c 0
 75 121 81 98 98 81 c 0
 115 64 139 55 171 55 c 0
 199 55 226 62 252 76 c 0
315 560 m 1
 235 560 l 1
 370 770 l 1
 469 770 l 1
 315 560 l 1
EndSplineSet
EndChar

StartChar: abreve
Encoding: 259 259 203
Width: 535
Flags: W
LayerCount: 2
Fore
SplineSet
398 510 m 0
 424 497 440 475 447 446 c 0
 454 416 454 376 447 326 c 2
 395 0 l 1
 324 0 l 1
 336 77 l 1
 334 77 l 1
 312 50 284 29 250 14 c 0
 216 -2 180 -10 143 -10 c 0
 93 -10 56 4 31 32 c 0
 6 59 -2 97 5 144 c 0
 14 205 47 252 103 284 c 0
 159 318 234 334 328 334 c 2
 374 334 l 1
 379 367 379 393 374 412 c 0
 369 430 360 443 344 451 c 0
 330 459 307 463 277 463 c 0
 212 463 149 448 87 419 c 1
 76 481 l 1
 144 514 216 530 292 530 c 0
 338 530 374 523 398 510 c 0
252 76 m 0
 279 89 301 108 320 130 c 0
 338 154 349 178 353 205 c 2
 363 270 l 1
 318 270 l 2
 248 270 192 260 152 239 c 0
 110 218 87 189 80 150 c 0
 75 121 81 98 98 81 c 0
 115 64 139 55 171 55 c 0
 199 55 226 62 252 76 c 0
168 623 m 0
 138 652 125 689 128 734 c 1
 211 734 l 1
 210 705 218 683 234 668 c 0
 249 653 271 645 300 645 c 0
 329 645 353 653 373 668 c 0
 393 683 407 705 416 734 c 1
 499 734 l 1
 488 689 463 652 424 623 c 0
 385 594 341 580 290 580 c 0
 238 580 197 594 168 623 c 0
EndSplineSet
EndChar

StartChar: uni1EAF
Encoding: 7855 7855 204
Width: 535
Flags: W
LayerCount: 2
Fore
SplineSet
398 510 m 0
 424 497 440 475 447 446 c 0
 454 416 454 376 447 326 c 2
 395 0 l 1
 324 0 l 1
 336 77 l 1
 334 77 l 1
 312 50 284 29 250 14 c 0
 216 -2 180 -10 143 -10 c 0
 93 -10 56 4 31 32 c 0
 6 59 -2 97 5 144 c 0
 14 205 47 252 103 284 c 0
 159 318 234 334 328 334 c 2
 374 334 l 1
 379 367 379 393 374 412 c 0
 369 430 360 443 344 451 c 0
 330 459 307 463 277 463 c 0
 212 463 149 448 87 419 c 1
 76 481 l 1
 144 514 216 530 292 530 c 0
 338 530 374 523 398 510 c 0
252 76 m 0
 279 89 301 108 320 130 c 0
 338 154 349 178 353 205 c 2
 363 270 l 1
 318 270 l 2
 248 270 192 260 152 239 c 0
 110 218 87 189 80 150 c 0
 75 121 81 98 98 81 c 0
 115 64 139 55 171 55 c 0
 199 55 226 62 252 76 c 0
168 623 m 0
 138 652 125 689 128 734 c 1
 211 734 l 1
 210 705 218 683 234 668 c 0
 249 653 271 645 300 645 c 0
 329 645 353 653 373 668 c 0
 393 683 407 705 416 734 c 1
 499 734 l 1
 488 689 463 652 424 623 c 0
 385 594 341 580 290 580 c 0
 238 580 197 594 168 623 c 0
340 720 m 1
 260 720 l 1
 395 930 l 1
 494 930 l 1
 340 720 l 1
EndSplineSet
EndChar

StartChar: uni1EB7
Encoding: 7863 7863 205
Width: 535
Flags: W
LayerCount: 2
Fore
SplineSet
398 510 m 0
 424 497 440 475 447 446 c 0
 454 416 454 376 447 326 c 2
 395 0 l 1
 324 0 l 1
 336 77 l 1
 334 77 l 1
 312 50 284 29 250 14 c 0
 216 -2 180 -10 143 -10 c 0
 93 -10 56 4 31 32 c 0
 6 59 -2 97 5 144 c 0
 14 205 47 252 103 284 c 0
 159 318 234 334 328 334 c 2
 374 334 l 1
 379 367 379 393 374 412 c 0
 369 430 360 443 344 451 c 0
 330 459 307 463 277 463 c 0
 212 463 149 448 87 419 c 1
 76 481 l 1
 144 514 216 530 292 530 c 0
 338 530 374 523 398 510 c 0
252 76 m 0
 279 89 301 108 320 130 c 0
 338 154 349 178 353 205 c 2
 363 270 l 1
 318 270 l 2
 248 270 192 260 152 239 c 0
 110 218 87 189 80 150 c 0
 75 121 81 98 98 81 c 0
 115 64 139 55 171 55 c 0
 199 55 226 62 252 76 c 0
160 -93 m 1
 262 -93 l 1
 246 -197 l 1
 144 -197 l 1
 160 -93 l 1
168 623 m 0
 138 652 125 689 128 734 c 1
 211 734 l 1
 210 705 218 683 234 668 c 0
 249 653 271 645 300 645 c 0
 329 645 353 653 373 668 c 0
 393 683 407 705 416 734 c 1
 499 734 l 1
 488 689 463 652 424 623 c 0
 385 594 341 580 290 580 c 0
 238 580 197 594 168 623 c 0
EndSplineSet
EndChar

StartChar: uni1EB1
Encoding: 7857 7857 206
Width: 535
Flags: W
LayerCount: 2
Fore
SplineSet
398 510 m 0
 424 497 440 475 447 446 c 0
 454 416 454 376 447 326 c 2
 395 0 l 1
 324 0 l 1
 336 77 l 1
 334 77 l 1
 312 50 284 29 250 14 c 0
 216 -2 180 -10 143 -10 c 0
 93 -10 56 4 31 32 c 0
 6 59 -2 97 5 144 c 0
 14 205 47 252 103 284 c 0
 159 318 234 334 328 334 c 2
 374 334 l 1
 379 367 379 393 374 412 c 0
 369 430 360 443 344 451 c 0
 330 459 307 463 277 463 c 0
 212 463 149 448 87 419 c 1
 76 481 l 1
 144 514 216 530 292 530 c 0
 338 530 374 523 398 510 c 0
252 76 m 0
 279 89 301 108 320 130 c 0
 338 154 349 178 353 205 c 2
 363 270 l 1
 318 270 l 2
 248 270 192 260 152 239 c 0
 110 218 87 189 80 150 c 0
 75 121 81 98 98 81 c 0
 115 64 139 55 171 55 c 0
 199 55 226 62 252 76 c 0
168 623 m 0
 138 652 125 689 128 734 c 1
 211 734 l 1
 210 705 218 683 234 668 c 0
 249 653 271 645 300 645 c 0
 329 645 353 653 373 668 c 0
 393 683 407 705 416 734 c 1
 499 734 l 1
 488 689 463 652 424 623 c 0
 385 594 341 580 290 580 c 0
 238 580 197 594 168 623 c 0
191 930 m 1
 290 930 l 1
 358 720 l 1
 278 720 l 1
 191 930 l 1
EndSplineSet
EndChar

StartChar: uni1EB3
Encoding: 7859 7859 207
Width: 501
Flags: W
LayerCount: 2
Fore
SplineSet
370 666 m 0
 388 679 403 699 412 724 c 1
 363 724 l 1
 368 734 374 746 378 761 c 0
 384 776 387 788 389 798 c 0
 392 815 388 826 378 832 c 0
 368 837 348 840 319 840 c 0
 280 840 240 834 200 823 c 1
 203 887 l 1
 248 898 295 904 345 904 c 0
 381 904 409 902 428 897 c 0
 447 892 460 884 467 873 c 0
 474 862 475 846 472 825 c 0
 470 812 466 797 461 780 c 0
 456 763 450 748 443 734 c 1
 495 734 l 1
 484 689 460 652 422 623 c 0
 385 594 341 580 292 580 c 0
 242 580 203 594 174 623 c 0
 146 652 134 689 137 734 c 1
 217 734 l 1
 216 705 224 683 238 668 c 0
 254 653 275 645 302 645 c 0
 328 645 350 652 370 666 c 0
398 510 m 0
 422 497 439 475 446 446 c 0
 453 416 453 376 445 326 c 2
 394 0 l 1
 322 0 l 1
 335 77 l 1
 333 77 l 1
 311 50 283 29 249 14 c 0
 215 -2 179 -10 142 -10 c 0
 92 -10 55 4 30 32 c 0
 6 59 -2 97 5 144 c 0
 14 205 47 252 102 284 c 0
 158 318 233 334 327 334 c 2
 372 334 l 1
 377 367 377 393 372 412 c 0
 368 430 358 443 344 451 c 0
 328 459 306 463 277 463 c 0
 213 463 150 448 87 419 c 1
 76 481 l 1
 144 514 216 530 292 530 c 0
 337 530 372 523 398 510 c 0
252 76 m 0
 278 89 300 108 318 130 c 0
 337 154 348 178 352 205 c 2
 362 270 l 1
 317 270 l 2
 247 270 192 260 151 239 c 0
 110 218 87 189 80 150 c 0
 75 121 81 98 98 81 c 0
 115 64 139 55 170 55 c 0
 198 55 225 62 252 76 c 0
EndSplineSet
EndChar

StartChar: uni1EB5
Encoding: 7861 7861 208
Width: 535
Flags: W
LayerCount: 2
Fore
SplineSet
398 510 m 0
 424 497 440 475 447 446 c 0
 454 416 454 376 447 326 c 2
 395 0 l 1
 324 0 l 1
 336 77 l 1
 334 77 l 1
 312 50 284 29 250 14 c 0
 216 -2 180 -10 143 -10 c 0
 93 -10 56 4 31 32 c 0
 6 59 -2 97 5 144 c 0
 14 205 47 252 103 284 c 0
 159 318 234 334 328 334 c 2
 374 334 l 1
 379 367 379 393 374 412 c 0
 369 430 360 443 344 451 c 0
 330 459 307 463 277 463 c 0
 212 463 149 448 87 419 c 1
 76 481 l 1
 144 514 216 530 292 530 c 0
 338 530 374 523 398 510 c 0
252 76 m 0
 279 89 301 108 320 130 c 0
 338 154 349 178 353 205 c 2
 363 270 l 1
 318 270 l 2
 248 270 192 260 152 239 c 0
 110 218 87 189 80 150 c 0
 75 121 81 98 98 81 c 0
 115 64 139 55 171 55 c 0
 199 55 226 62 252 76 c 0
168 623 m 0
 138 652 125 689 128 734 c 1
 211 734 l 1
 210 705 218 683 234 668 c 0
 249 653 271 645 300 645 c 0
 329 645 353 653 373 668 c 0
 393 683 407 705 416 734 c 1
 499 734 l 1
 488 689 463 652 424 623 c 0
 385 594 341 580 290 580 c 0
 238 580 197 594 168 623 c 0
318 830 m 0
 291 852 269 863 252 863 c 0
 241 863 233 858 226 847 c 0
 220 836 215 818 211 793 c 1
 138 793 l 1
 146 843 159 880 177 904 c 0
 195 929 219 941 249 941 c 0
 280 941 314 925 352 894 c 0
 378 872 400 861 417 861 c 0
 428 861 436 866 443 877 c 0
 450 888 455 906 459 931 c 1
 531 931 l 1
 523 881 510 844 492 820 c 0
 475 795 451 783 422 783 c 0
 392 783 357 799 318 830 c 0
EndSplineSet
EndChar

StartChar: acircumflex
Encoding: 226 226 209
Width: 535
Flags: W
LayerCount: 2
Fore
SplineSet
398 510 m 0
 424 497 440 475 447 446 c 0
 454 416 454 376 447 326 c 2
 395 0 l 1
 324 0 l 1
 336 77 l 1
 334 77 l 1
 312 50 284 29 250 14 c 0
 216 -2 180 -10 143 -10 c 0
 93 -10 56 4 31 32 c 0
 6 59 -2 97 5 144 c 0
 14 205 47 252 103 284 c 0
 159 318 234 334 328 334 c 2
 374 334 l 1
 379 367 379 393 374 412 c 0
 369 430 360 443 344 451 c 0
 330 459 307 463 277 463 c 0
 212 463 149 448 87 419 c 1
 76 481 l 1
 144 514 216 530 292 530 c 0
 338 530 374 523 398 510 c 0
252 76 m 0
 279 89 301 108 320 130 c 0
 338 154 349 178 353 205 c 2
 363 270 l 1
 318 270 l 2
 248 270 192 260 152 239 c 0
 110 218 87 189 80 150 c 0
 75 121 81 98 98 81 c 0
 115 64 139 55 171 55 c 0
 199 55 226 62 252 76 c 0
255 770 m 1
 391 770 l 1
 491 560 l 1
 398 560 l 1
 318 732 l 1
 316 732 l 1
 182 560 l 1
 89 560 l 1
 255 770 l 1
EndSplineSet
EndChar

StartChar: uni1EA5
Encoding: 7845 7845 210
Width: 535
Flags: W
LayerCount: 2
Fore
SplineSet
398 510 m 0
 424 497 440 475 447 446 c 0
 454 416 454 376 447 326 c 2
 395 0 l 1
 324 0 l 1
 336 77 l 1
 334 77 l 1
 312 50 284 29 250 14 c 0
 216 -2 180 -10 143 -10 c 0
 93 -10 56 4 31 32 c 0
 6 59 -2 97 5 144 c 0
 14 205 47 252 103 284 c 0
 159 318 234 334 328 334 c 2
 374 334 l 1
 379 367 379 393 374 412 c 0
 369 430 360 443 344 451 c 0
 330 459 307 463 277 463 c 0
 212 463 149 448 87 419 c 1
 76 481 l 1
 144 514 216 530 292 530 c 0
 338 530 374 523 398 510 c 0
252 76 m 0
 279 89 301 108 320 130 c 0
 338 154 349 178 353 205 c 2
 363 270 l 1
 318 270 l 2
 248 270 192 260 152 239 c 0
 110 218 87 189 80 150 c 0
 75 121 81 98 98 81 c 0
 115 64 139 55 171 55 c 0
 199 55 226 62 252 76 c 0
255 770 m 1
 391 770 l 1
 491 560 l 1
 398 560 l 1
 318 732 l 1
 316 732 l 1
 182 560 l 1
 89 560 l 1
 255 770 l 1
541 740 m 1
 461 740 l 1
 596 950 l 1
 695 950 l 1
 541 740 l 1
EndSplineSet
EndChar

StartChar: uni1EAD
Encoding: 7853 7853 211
Width: 535
Flags: W
LayerCount: 2
Fore
SplineSet
398 510 m 0
 424 497 440 475 447 446 c 0
 454 416 454 376 447 326 c 2
 395 0 l 1
 324 0 l 1
 336 77 l 1
 334 77 l 1
 312 50 284 29 250 14 c 0
 216 -2 180 -10 143 -10 c 0
 93 -10 56 4 31 32 c 0
 6 59 -2 97 5 144 c 0
 14 205 47 252 103 284 c 0
 159 318 234 334 328 334 c 2
 374 334 l 1
 379 367 379 393 374 412 c 0
 369 430 360 443 344 451 c 0
 330 459 307 463 277 463 c 0
 212 463 149 448 87 419 c 1
 76 481 l 1
 144 514 216 530 292 530 c 0
 338 530 374 523 398 510 c 0
252 76 m 0
 279 89 301 108 320 130 c 0
 338 154 349 178 353 205 c 2
 363 270 l 1
 318 270 l 2
 248 270 192 260 152 239 c 0
 110 218 87 189 80 150 c 0
 75 121 81 98 98 81 c 0
 115 64 139 55 171 55 c 0
 199 55 226 62 252 76 c 0
160 -93 m 1
 262 -93 l 1
 246 -197 l 1
 144 -197 l 1
 160 -93 l 1
255 770 m 1
 391 770 l 1
 491 560 l 1
 398 560 l 1
 318 732 l 1
 316 732 l 1
 182 560 l 1
 89 560 l 1
 255 770 l 1
EndSplineSet
EndChar

StartChar: uni1EA7
Encoding: 7847 7847 212
Width: 535
Flags: W
LayerCount: 2
Fore
SplineSet
398 510 m 0
 424 497 440 475 447 446 c 0
 454 416 454 376 447 326 c 2
 395 0 l 1
 324 0 l 1
 336 77 l 1
 334 77 l 1
 312 50 284 29 250 14 c 0
 216 -2 180 -10 143 -10 c 0
 93 -10 56 4 31 32 c 0
 6 59 -2 97 5 144 c 0
 14 205 47 252 103 284 c 0
 159 318 234 334 328 334 c 2
 374 334 l 1
 379 367 379 393 374 412 c 0
 369 430 360 443 344 451 c 0
 330 459 307 463 277 463 c 0
 212 463 149 448 87 419 c 1
 76 481 l 1
 144 514 216 530 292 530 c 0
 338 530 374 523 398 510 c 0
252 76 m 0
 279 89 301 108 320 130 c 0
 338 154 349 178 353 205 c 2
 363 270 l 1
 318 270 l 2
 248 270 192 260 152 239 c 0
 110 218 87 189 80 150 c 0
 75 121 81 98 98 81 c 0
 115 64 139 55 171 55 c 0
 199 55 226 62 252 76 c 0
255 770 m 1
 391 770 l 1
 491 560 l 1
 398 560 l 1
 318 732 l 1
 316 732 l 1
 182 560 l 1
 89 560 l 1
 255 770 l 1
-2 950 m 1
 97 950 l 1
 165 740 l 1
 85 740 l 1
 -2 950 l 1
EndSplineSet
EndChar

StartChar: uni1EA9
Encoding: 7849 7849 213
Width: 535
Flags: W
LayerCount: 2
Fore
SplineSet
398 510 m 0
 424 497 440 475 447 446 c 0
 454 416 454 376 447 326 c 2
 395 0 l 1
 324 0 l 1
 336 77 l 1
 334 77 l 1
 312 50 284 29 250 14 c 0
 216 -2 180 -10 143 -10 c 0
 93 -10 56 4 31 32 c 0
 6 59 -2 97 5 144 c 0
 14 205 47 252 103 284 c 0
 159 318 234 334 328 334 c 2
 374 334 l 1
 379 367 379 393 374 412 c 0
 369 430 360 443 344 451 c 0
 330 459 307 463 277 463 c 0
 212 463 149 448 87 419 c 1
 76 481 l 1
 144 514 216 530 292 530 c 0
 338 530 374 523 398 510 c 0
252 76 m 0
 279 89 301 108 320 130 c 0
 338 154 349 178 353 205 c 2
 363 270 l 1
 318 270 l 2
 248 270 192 260 152 239 c 0
 110 218 87 189 80 150 c 0
 75 121 81 98 98 81 c 0
 115 64 139 55 171 55 c 0
 199 55 226 62 252 76 c 0
255 770 m 1
 391 770 l 1
 491 560 l 1
 398 560 l 1
 318 732 l 1
 316 732 l 1
 182 560 l 1
 89 560 l 1
 255 770 l 1
494 757 m 0
 499 772 503 784 504 794 c 0
 507 811 503 822 492 828 c 0
 482 833 462 836 432 836 c 0
 391 836 350 830 309 819 c 1
 311 883 l 1
 357 894 406 900 459 900 c 0
 496 900 525 898 544 893 c 0
 564 888 578 880 585 869 c 0
 592 858 594 842 591 821 c 0
 589 806 585 789 578 770 c 0
 571 751 564 734 557 720 c 1
 478 720 l 1
 483 730 489 742 494 757 c 0
EndSplineSet
EndChar

StartChar: uni1EAB
Encoding: 7851 7851 214
Width: 535
Flags: W
LayerCount: 2
Fore
SplineSet
398 510 m 0
 424 497 440 475 447 446 c 0
 454 416 454 376 447 326 c 2
 395 0 l 1
 324 0 l 1
 336 77 l 1
 334 77 l 1
 312 50 284 29 250 14 c 0
 216 -2 180 -10 143 -10 c 0
 93 -10 56 4 31 32 c 0
 6 59 -2 97 5 144 c 0
 14 205 47 252 103 284 c 0
 159 318 234 334 328 334 c 2
 374 334 l 1
 379 367 379 393 374 412 c 0
 369 430 360 443 344 451 c 0
 330 459 307 463 277 463 c 0
 212 463 149 448 87 419 c 1
 76 481 l 1
 144 514 216 530 292 530 c 0
 338 530 374 523 398 510 c 0
252 76 m 0
 279 89 301 108 320 130 c 0
 338 154 349 178 353 205 c 2
 363 270 l 1
 318 270 l 2
 248 270 192 260 152 239 c 0
 110 218 87 189 80 150 c 0
 75 121 81 98 98 81 c 0
 115 64 139 55 171 55 c 0
 199 55 226 62 252 76 c 0
255 770 m 1
 391 770 l 1
 491 560 l 1
 398 560 l 1
 318 732 l 1
 316 732 l 1
 182 560 l 1
 89 560 l 1
 255 770 l 1
318 830 m 0
 291 852 269 863 252 863 c 0
 241 863 233 858 226 847 c 0
 220 836 215 818 211 793 c 1
 138 793 l 1
 146 843 159 880 177 904 c 0
 195 929 219 941 249 941 c 0
 280 941 314 925 352 894 c 0
 378 872 400 861 417 861 c 0
 428 861 436 866 443 877 c 0
 450 888 455 906 459 931 c 1
 531 931 l 1
 523 881 510 844 492 820 c 0
 475 795 451 783 422 783 c 0
 392 783 357 799 318 830 c 0
EndSplineSet
EndChar

StartChar: uni0201
Encoding: 513 513 215
Width: 535
Flags: W
LayerCount: 2
Fore
SplineSet
398 510 m 0
 424 497 440 475 447 446 c 0
 454 416 454 376 447 326 c 2
 395 0 l 1
 324 0 l 1
 336 77 l 1
 334 77 l 1
 312 50 284 29 250 14 c 0
 216 -2 180 -10 143 -10 c 0
 93 -10 56 4 31 32 c 0
 6 59 -2 97 5 144 c 0
 14 205 47 252 103 284 c 0
 159 318 234 334 328 334 c 2
 374 334 l 1
 379 367 379 393 374 412 c 0
 369 430 360 443 344 451 c 0
 330 459 307 463 277 463 c 0
 212 463 149 448 87 419 c 1
 76 481 l 1
 144 514 216 530 292 530 c 0
 338 530 374 523 398 510 c 0
252 76 m 0
 279 89 301 108 320 130 c 0
 338 154 349 178 353 205 c 2
 363 270 l 1
 318 270 l 2
 248 270 192 260 152 239 c 0
 110 218 87 189 80 150 c 0
 75 121 81 98 98 81 c 0
 115 64 139 55 171 55 c 0
 199 55 226 62 252 76 c 0
78 770 m 1
 177 770 l 1
 245 560 l 1
 165 560 l 1
 78 770 l 1
284 770 m 1
 383 770 l 1
 451 560 l 1
 371 560 l 1
 284 770 l 1
EndSplineSet
EndChar

StartChar: adieresis
Encoding: 228 228 216
Width: 535
Flags: W
LayerCount: 2
Fore
SplineSet
398 510 m 0
 424 497 440 475 447 446 c 0
 454 416 454 376 447 326 c 2
 395 0 l 1
 324 0 l 1
 336 77 l 1
 334 77 l 1
 312 50 284 29 250 14 c 0
 216 -2 180 -10 143 -10 c 0
 93 -10 56 4 31 32 c 0
 6 59 -2 97 5 144 c 0
 14 205 47 252 103 284 c 0
 159 318 234 334 328 334 c 2
 374 334 l 1
 379 367 379 393 374 412 c 0
 369 430 360 443 344 451 c 0
 330 459 307 463 277 463 c 0
 212 463 149 448 87 419 c 1
 76 481 l 1
 144 514 216 530 292 530 c 0
 338 530 374 523 398 510 c 0
252 76 m 0
 279 89 301 108 320 130 c 0
 338 154 349 178 353 205 c 2
 363 270 l 1
 318 270 l 2
 248 270 192 260 152 239 c 0
 110 218 87 189 80 150 c 0
 75 121 81 98 98 81 c 0
 115 64 139 55 171 55 c 0
 199 55 226 62 252 76 c 0
137 717 m 1
 239 717 l 1
 222 613 l 1
 120 613 l 1
 137 717 l 1
381 717 m 1
 483 717 l 1
 466 613 l 1
 364 613 l 1
 381 717 l 1
EndSplineSet
EndChar

StartChar: uni1EA1
Encoding: 7841 7841 217
Width: 535
Flags: W
LayerCount: 2
Fore
SplineSet
398 510 m 0
 424 497 440 475 447 446 c 0
 454 416 454 376 447 326 c 2
 395 0 l 1
 324 0 l 1
 336 77 l 1
 334 77 l 1
 312 50 284 29 250 14 c 0
 216 -2 180 -10 143 -10 c 0
 93 -10 56 4 31 32 c 0
 6 59 -2 97 5 144 c 0
 14 205 47 252 103 284 c 0
 159 318 234 334 328 334 c 2
 374 334 l 1
 379 367 379 393 374 412 c 0
 369 430 360 443 344 451 c 0
 330 459 307 463 277 463 c 0
 212 463 149 448 87 419 c 1
 76 481 l 1
 144 514 216 530 292 530 c 0
 338 530 374 523 398 510 c 0
252 76 m 0
 279 89 301 108 320 130 c 0
 338 154 349 178 353 205 c 2
 363 270 l 1
 318 270 l 2
 248 270 192 260 152 239 c 0
 110 218 87 189 80 150 c 0
 75 121 81 98 98 81 c 0
 115 64 139 55 171 55 c 0
 199 55 226 62 252 76 c 0
160 -93 m 1
 262 -93 l 1
 246 -197 l 1
 144 -197 l 1
 160 -93 l 1
EndSplineSet
EndChar

StartChar: agrave
Encoding: 224 224 218
Width: 535
Flags: W
LayerCount: 2
Fore
SplineSet
398 510 m 0
 424 497 440 475 447 446 c 0
 454 416 454 376 447 326 c 2
 395 0 l 1
 324 0 l 1
 336 77 l 1
 334 77 l 1
 312 50 284 29 250 14 c 0
 216 -2 180 -10 143 -10 c 0
 93 -10 56 4 31 32 c 0
 6 59 -2 97 5 144 c 0
 14 205 47 252 103 284 c 0
 159 318 234 334 328 334 c 2
 374 334 l 1
 379 367 379 393 374 412 c 0
 369 430 360 443 344 451 c 0
 330 459 307 463 277 463 c 0
 212 463 149 448 87 419 c 1
 76 481 l 1
 144 514 216 530 292 530 c 0
 338 530 374 523 398 510 c 0
252 76 m 0
 279 89 301 108 320 130 c 0
 338 154 349 178 353 205 c 2
 363 270 l 1
 318 270 l 2
 248 270 192 260 152 239 c 0
 110 218 87 189 80 150 c 0
 75 121 81 98 98 81 c 0
 115 64 139 55 171 55 c 0
 199 55 226 62 252 76 c 0
166 770 m 1
 265 770 l 1
 333 560 l 1
 253 560 l 1
 166 770 l 1
EndSplineSet
EndChar

StartChar: uni1EA3
Encoding: 7843 7843 219
Width: 535
Flags: W
LayerCount: 2
Fore
SplineSet
398 510 m 0
 424 497 440 475 447 446 c 0
 454 416 454 376 447 326 c 2
 395 0 l 1
 324 0 l 1
 336 77 l 1
 334 77 l 1
 312 50 284 29 250 14 c 0
 216 -2 180 -10 143 -10 c 0
 93 -10 56 4 31 32 c 0
 6 59 -2 97 5 144 c 0
 14 205 47 252 103 284 c 0
 159 318 234 334 328 334 c 2
 374 334 l 1
 379 367 379 393 374 412 c 0
 369 430 360 443 344 451 c 0
 330 459 307 463 277 463 c 0
 212 463 149 448 87 419 c 1
 76 481 l 1
 144 514 216 530 292 530 c 0
 338 530 374 523 398 510 c 0
252 76 m 0
 279 89 301 108 320 130 c 0
 338 154 349 178 353 205 c 2
 363 270 l 1
 318 270 l 2
 248 270 192 260 152 239 c 0
 110 218 87 189 80 150 c 0
 75 121 81 98 98 81 c 0
 115 64 139 55 171 55 c 0
 199 55 226 62 252 76 c 0
399 627 m 0
 404 642 408 654 409 664 c 0
 412 681 408 692 398 698 c 0
 387 703 367 706 337 706 c 0
 296 706 255 700 214 689 c 1
 216 753 l 1
 262 764 311 770 364 770 c 0
 401 770 430 768 450 763 c 0
 469 758 483 750 490 739 c 0
 497 728 499 712 496 691 c 0
 494 676 490 659 483 640 c 0
 476 621 469 604 462 590 c 1
 383 590 l 1
 388 600 394 612 399 627 c 0
EndSplineSet
EndChar

StartChar: uni0203
Encoding: 515 515 220
Width: 535
Flags: W
LayerCount: 2
Fore
SplineSet
398 510 m 0
 424 497 440 475 447 446 c 0
 454 416 454 376 447 326 c 2
 395 0 l 1
 324 0 l 1
 336 77 l 1
 334 77 l 1
 312 50 284 29 250 14 c 0
 216 -2 180 -10 143 -10 c 0
 93 -10 56 4 31 32 c 0
 6 59 -2 97 5 144 c 0
 14 205 47 252 103 284 c 0
 159 318 234 334 328 334 c 2
 374 334 l 1
 379 367 379 393 374 412 c 0
 369 430 360 443 344 451 c 0
 330 459 307 463 277 463 c 0
 212 463 149 448 87 419 c 1
 76 481 l 1
 144 514 216 530 292 530 c 0
 338 530 374 523 398 510 c 0
252 76 m 0
 279 89 301 108 320 130 c 0
 338 154 349 178 353 205 c 2
 363 270 l 1
 318 270 l 2
 248 270 192 260 152 239 c 0
 110 218 87 189 80 150 c 0
 75 121 81 98 98 81 c 0
 115 64 139 55 171 55 c 0
 199 55 226 62 252 76 c 0
428 707 m 0
 457 678 470 641 467 596 c 1
 384 596 l 1
 385 625 377 647 362 662 c 0
 347 677 325 685 296 685 c 0
 267 685 243 677 222 662 c 0
 202 647 188 625 179 596 c 1
 96 596 l 1
 107 641 132 678 171 707 c 0
 210 736 255 750 307 750 c 0
 358 750 398 736 428 707 c 0
EndSplineSet
EndChar

StartChar: amacron
Encoding: 257 257 221
Width: 535
Flags: W
LayerCount: 2
Fore
SplineSet
398 510 m 0
 424 497 440 475 447 446 c 0
 454 416 454 376 447 326 c 2
 395 0 l 1
 324 0 l 1
 336 77 l 1
 334 77 l 1
 312 50 284 29 250 14 c 0
 216 -2 180 -10 143 -10 c 0
 93 -10 56 4 31 32 c 0
 6 59 -2 97 5 144 c 0
 14 205 47 252 103 284 c 0
 159 318 234 334 328 334 c 2
 374 334 l 1
 379 367 379 393 374 412 c 0
 369 430 360 443 344 451 c 0
 330 459 307 463 277 463 c 0
 212 463 149 448 87 419 c 1
 76 481 l 1
 144 514 216 530 292 530 c 0
 338 530 374 523 398 510 c 0
252 76 m 0
 279 89 301 108 320 130 c 0
 338 154 349 178 353 205 c 2
 363 270 l 1
 318 270 l 2
 248 270 192 260 152 239 c 0
 110 218 87 189 80 150 c 0
 75 121 81 98 98 81 c 0
 115 64 139 55 171 55 c 0
 199 55 226 62 252 76 c 0
180 697 m 1
 535 697 l 1
 525 633 l 1
 169 633 l 1
 180 697 l 1
EndSplineSet
EndChar

StartChar: aogonek
Encoding: 261 261 222
Width: 505
Flags: W
LayerCount: 2
Fore
SplineSet
448 -197 m 1
 415 -211 379 -218 339 -218 c 0
 292 -218 258 -209 237 -191 c 0
 216 -173 208 -149 213 -120 c 0
 220 -72 258 -26 325 17 c 1
 335 77 l 1
 333 77 l 1
 311 50 283 29 249 14 c 0
 215 -2 179 -10 142 -10 c 0
 92 -10 55 4 30 32 c 0
 6 59 -2 97 5 144 c 0
 14 205 47 252 103 284 c 0
 159 318 234 334 327 334 c 2
 373 334 l 1
 378 367 378 393 374 412 c 0
 369 430 359 443 344 451 c 0
 329 459 306 463 277 463 c 0
 212 463 149 448 87 419 c 1
 76 481 l 1
 144 514 216 530 292 530 c 0
 337 530 372 523 398 510 c 0
 422 497 439 475 446 446 c 0
 454 416 454 376 446 326 c 2
 394 0 l 1
 361 -18 336 -36 318 -54 c 0
 299 -73 289 -90 286 -107 c 0
 283 -123 288 -135 301 -142 c 0
 314 -149 332 -153 355 -153 c 0
 386 -153 416 -147 444 -134 c 1
 448 -197 l 1
252 76 m 0
 279 89 301 108 319 130 c 0
 337 154 348 178 352 205 c 2
 363 270 l 1
 317 270 l 2
 247 270 192 260 151 239 c 0
 110 218 87 189 80 150 c 0
 75 121 81 98 98 81 c 0
 115 64 139 55 170 55 c 0
 198 55 225 62 252 76 c 0
EndSplineSet
EndChar

StartChar: aring
Encoding: 229 229 223
Width: 501
Flags: W
LayerCount: 2
Fore
SplineSet
435 472 m 0
 452 441 456 392 446 326 c 2
 394 0 l 1
 322 0 l 1
 335 77 l 1
 333 77 l 1
 311 50 283 29 249 14 c 0
 215 -2 179 -10 142 -10 c 0
 92 -10 55 4 30 32 c 0
 6 59 -2 97 5 144 c 0
 14 205 47 252 102 284 c 0
 158 318 233 334 327 334 c 2
 373 334 l 1
 378 367 378 393 373 412 c 0
 368 430 358 443 344 451 c 0
 328 459 306 463 277 463 c 0
 213 463 150 448 87 419 c 1
 76 481 l 1
 127 506 181 521 237 527 c 1
 213 537 195 554 182 578 c 0
 170 603 167 630 172 660 c 0
 176 685 186 709 201 731 c 0
 216 753 235 770 258 783 c 0
 280 796 303 802 328 802 c 0
 352 802 373 796 392 783 c 0
 411 770 424 753 432 731 c 0
 441 709 443 685 439 660 c 0
 434 631 422 604 404 580 c 0
 384 556 361 539 334 528 c 1
 384 522 418 503 435 472 c 0
242 602 m 0
 255 586 272 578 293 578 c 0
 314 578 334 586 351 602 c 0
 368 618 379 637 383 660 c 0
 386 683 382 702 370 718 c 0
 357 734 340 742 319 742 c 0
 298 742 278 734 260 718 c 0
 242 702 231 683 228 660 c 0
 225 637 229 618 242 602 c 0
252 76 m 0
 278 89 300 108 318 130 c 0
 337 154 348 178 352 205 c 2
 362 270 l 1
 317 270 l 2
 247 270 192 260 151 239 c 0
 110 218 87 189 80 150 c 0
 75 121 81 98 98 81 c 0
 115 64 139 55 170 55 c 0
 198 55 225 62 252 76 c 0
EndSplineSet
EndChar

StartChar: aringacute
Encoding: 507 507 224
Width: 501
Flags: W
LayerCount: 2
Fore
SplineSet
435 472 m 0
 452 441 456 392 446 326 c 2
 394 0 l 1
 322 0 l 1
 335 77 l 1
 333 77 l 1
 311 50 283 29 249 14 c 0
 215 -2 179 -10 142 -10 c 0
 92 -10 55 4 30 32 c 0
 6 59 -2 97 5 144 c 0
 14 205 47 252 102 284 c 0
 158 318 233 334 327 334 c 2
 373 334 l 1
 378 367 378 393 373 412 c 0
 368 430 358 443 344 451 c 0
 328 459 306 463 277 463 c 0
 213 463 150 448 87 419 c 1
 76 481 l 1
 127 506 181 521 237 527 c 1
 213 537 195 554 182 578 c 0
 170 603 167 630 172 660 c 0
 175 683 183 704 196 724 c 0
 209 743 224 760 242 773 c 1
 367 973 l 1
 462 973 l 1
 341 801 l 1
 374 798 400 782 420 756 c 0
 438 728 445 697 439 660 c 0
 434 631 422 604 404 580 c 0
 384 556 361 539 334 528 c 1
 384 522 418 503 435 472 c 0
242 602 m 0
 255 586 272 578 293 578 c 0
 314 578 334 586 351 602 c 0
 368 618 379 637 383 660 c 0
 386 683 382 702 370 718 c 0
 357 734 340 742 319 742 c 0
 298 742 278 734 260 718 c 0
 242 702 231 683 228 660 c 0
 225 637 229 618 242 602 c 0
252 76 m 0
 278 89 300 108 318 130 c 0
 337 154 348 178 352 205 c 2
 362 270 l 1
 317 270 l 2
 247 270 192 260 151 239 c 0
 110 218 87 189 80 150 c 0
 75 121 81 98 98 81 c 0
 115 64 139 55 170 55 c 0
 198 55 225 62 252 76 c 0
EndSplineSet
EndChar

StartChar: atilde
Encoding: 227 227 225
Width: 535
Flags: W
LayerCount: 2
Fore
SplineSet
398 510 m 0
 424 497 440 475 447 446 c 0
 454 416 454 376 447 326 c 2
 395 0 l 1
 324 0 l 1
 336 77 l 1
 334 77 l 1
 312 50 284 29 250 14 c 0
 216 -2 180 -10 143 -10 c 0
 93 -10 56 4 31 32 c 0
 6 59 -2 97 5 144 c 0
 14 205 47 252 103 284 c 0
 159 318 234 334 328 334 c 2
 374 334 l 1
 379 367 379 393 374 412 c 0
 369 430 360 443 344 451 c 0
 330 459 307 463 277 463 c 0
 212 463 149 448 87 419 c 1
 76 481 l 1
 144 514 216 530 292 530 c 0
 338 530 374 523 398 510 c 0
252 76 m 0
 279 89 301 108 320 130 c 0
 338 154 349 178 353 205 c 2
 363 270 l 1
 318 270 l 2
 248 270 192 260 152 239 c 0
 110 218 87 189 80 150 c 0
 75 121 81 98 98 81 c 0
 115 64 139 55 171 55 c 0
 199 55 226 62 252 76 c 0
287 633 m 0
 260 655 238 666 221 666 c 0
 210 666 202 661 196 650 c 0
 189 639 184 621 180 596 c 1
 107 596 l 1
 115 646 128 683 146 708 c 0
 164 732 188 744 218 744 c 0
 249 744 283 728 321 697 c 0
 347 675 369 664 386 664 c 0
 397 664 405 669 412 680 c 0
 419 691 424 709 428 734 c 1
 500 734 l 1
 492 684 479 647 462 622 c 0
 444 598 420 586 391 586 c 0
 361 586 326 602 287 633 c 0
EndSplineSet
EndChar

StartChar: ae
Encoding: 230 230 226
Width: 844
Flags: W
LayerCount: 2
Fore
SplineSet
801 229 m 1
 429 229 l 1
 422 172 432 130 456 100 c 0
 482 72 521 57 576 57 c 0
 603 57 630 60 658 67 c 0
 686 74 711 83 734 94 c 1
 743 33 l 1
 716 20 687 9 656 2 c 0
 624 -6 592 -10 561 -10 c 0
 514 -10 474 -1 442 16 c 0
 411 34 388 60 373 94 c 1
 348 61 318 35 280 17 c 0
 244 -1 202 -10 157 -10 c 0
 103 -10 62 4 36 31 c 0
 8 58 -1 96 6 143 c 0
 16 204 49 252 104 284 c 0
 160 318 235 334 328 334 c 2
 374 334 l 1
 379 367 379 393 374 412 c 0
 370 431 360 444 344 452 c 0
 329 459 306 463 276 463 c 0
 212 463 149 448 87 419 c 1
 76 481 l 1
 144 514 216 530 292 530 c 0
 335 530 369 524 394 511 c 0
 419 498 435 478 444 450 c 1
 492 503 554 530 630 530 c 0
 701 530 751 507 782 460 c 0
 813 414 821 347 807 260 c 0
 804 245 802 235 801 229 c 1
440 293 m 1
 742 293 l 1
 755 408 714 465 620 465 c 0
 525 465 465 408 440 293 c 1
363 270 m 1
 318 270 l 2
 247 270 192 260 150 239 c 0
 110 218 86 188 80 149 c 0
 75 120 81 98 98 80 c 0
 115 64 139 55 171 55 c 0
 199 55 226 62 252 76 c 0
 279 89 301 108 320 130 c 0
 338 154 349 178 353 205 c 2
 363 270 l 1
EndSplineSet
EndChar

StartChar: aeacute
Encoding: 509 509 227
Width: 894
Flags: W
LayerCount: 2
Fore
SplineSet
801 229 m 1
 429 229 l 1
 422 172 432 130 456 100 c 0
 482 72 521 57 576 57 c 0
 603 57 630 60 658 67 c 0
 686 74 711 83 734 94 c 1
 743 33 l 1
 716 20 687 9 656 2 c 0
 624 -6 592 -10 561 -10 c 0
 514 -10 474 -1 442 16 c 0
 411 34 388 60 373 94 c 1
 348 61 318 35 280 17 c 0
 244 -1 202 -10 157 -10 c 0
 103 -10 62 4 36 31 c 0
 8 58 -1 96 6 143 c 0
 16 204 49 252 104 284 c 0
 160 318 235 334 328 334 c 2
 374 334 l 1
 379 367 379 393 374 412 c 0
 370 431 360 444 344 452 c 0
 329 459 306 463 276 463 c 0
 212 463 149 448 87 419 c 1
 76 481 l 1
 144 514 216 530 292 530 c 0
 335 530 369 524 394 511 c 0
 419 498 435 478 444 450 c 1
 492 503 554 530 630 530 c 0
 701 530 751 507 782 460 c 0
 813 414 821 347 807 260 c 0
 804 245 802 235 801 229 c 1
440 293 m 1
 742 293 l 1
 755 408 714 465 620 465 c 0
 525 465 465 408 440 293 c 1
363 270 m 1
 318 270 l 2
 247 270 192 260 150 239 c 0
 110 218 86 188 80 149 c 0
 75 120 81 98 98 80 c 0
 115 64 139 55 171 55 c 0
 199 55 226 62 252 76 c 0
 279 89 301 108 320 130 c 0
 338 154 349 178 353 205 c 2
 363 270 l 1
501 560 m 1
 421 560 l 1
 556 770 l 1
 655 770 l 1
 501 560 l 1
EndSplineSet
EndChar

StartChar: b
Encoding: 98 98 228
Width: 545
Flags: W
LayerCount: 2
Fore
SplineSet
484 460 m 0
 511 412 517 346 504 260 c 0
 491 174 463 108 422 60 c 0
 380 14 328 -10 267 -10 c 0
 231 -10 199 -2 172 14 c 0
 144 29 123 51 110 80 c 1
 108 80 l 1
 96 0 l 1
 24 0 l 1
 143 750 l 1
 217 750 l 1
 168 440 l 1
 170 440 l 1
 191 469 218 491 250 506 c 0
 282 522 316 530 352 530 c 0
 414 530 458 506 484 460 c 0
368 111 m 0
 398 147 418 197 428 260 c 0
 438 323 434 373 414 409 c 0
 396 445 365 463 322 463 c 0
 294 463 267 455 242 440 c 0
 216 424 194 402 177 375 c 0
 160 348 148 317 143 283 c 2
 136 237 l 2
 131 203 132 172 141 145 c 0
 150 118 164 96 185 80 c 0
 206 65 230 57 258 57 c 0
 301 57 337 75 368 111 c 0
EndSplineSet
EndChar

StartChar: c
Encoding: 99 99 229
Width: 491
Flags: W
LayerCount: 2
Fore
SplineSet
66 62 m 0
 29 109 18 175 31 260 c 0
 44 345 77 411 128 458 c 0
 179 506 245 530 324 530 c 0
 378 530 425 518 466 493 c 1
 434 432 l 1
 397 453 358 463 317 463 c 0
 260 463 213 445 176 410 c 0
 139 375 115 325 105 260 c 0
 95 195 103 145 128 110 c 0
 154 75 195 57 252 57 c 0
 294 57 337 67 380 88 c 1
 392 27 l 1
 343 2 292 -10 238 -10 c 0
 159 -10 102 14 66 62 c 0
EndSplineSet
EndChar

StartChar: cacute
Encoding: 263 263 230
Width: 523
Flags: W
LayerCount: 2
Fore
SplineSet
66 62 m 0
 29 109 18 175 31 260 c 0
 44 345 77 411 128 458 c 0
 179 506 245 530 324 530 c 0
 378 530 425 518 466 493 c 1
 434 432 l 1
 397 453 358 463 317 463 c 0
 260 463 213 445 176 410 c 0
 139 375 115 325 105 260 c 0
 95 195 103 145 128 110 c 0
 154 75 195 57 252 57 c 0
 294 57 337 67 380 88 c 1
 392 27 l 1
 343 2 292 -10 238 -10 c 0
 159 -10 102 14 66 62 c 0
329 560 m 1
 249 560 l 1
 384 770 l 1
 483 770 l 1
 329 560 l 1
EndSplineSet
EndChar

StartChar: ccaron
Encoding: 269 269 231
Width: 523
Flags: W
LayerCount: 2
Fore
SplineSet
66 62 m 0
 29 109 18 175 31 260 c 0
 44 345 77 411 128 458 c 0
 179 506 245 530 324 530 c 0
 378 530 425 518 466 493 c 1
 434 432 l 1
 397 453 358 463 317 463 c 0
 260 463 213 445 176 410 c 0
 139 375 115 325 105 260 c 0
 95 195 103 145 128 110 c 0
 154 75 195 57 252 57 c 0
 294 57 337 67 380 88 c 1
 392 27 l 1
 343 2 292 -10 238 -10 c 0
 159 -10 102 14 66 62 c 0
137 770 m 1
 230 770 l 1
 310 598 l 1
 312 598 l 1
 446 770 l 1
 539 770 l 1
 372 560 l 1
 237 560 l 1
 137 770 l 1
EndSplineSet
EndChar

StartChar: ccedilla
Encoding: 231 231 232
Width: 491
Flags: W
LayerCount: 2
Fore
SplineSet
391 27 m 1
 357 10 321 -2 284 -7 c 1
 318 -43 332 -81 325 -120 c 0
 320 -149 305 -173 278 -191 c 0
 252 -209 215 -218 168 -218 c 0
 129 -218 95 -211 67 -197 c 1
 90 -135 l 1
 115 -148 143 -154 172 -154 c 0
 195 -154 215 -150 230 -142 c 0
 246 -135 255 -123 258 -107 c 0
 261 -92 256 -76 245 -58 c 0
 234 -42 216 -24 192 -7 c 1
 129 2 84 30 56 76 c 0
 27 123 19 184 31 260 c 0
 44 345 77 411 128 458 c 0
 179 506 244 530 323 530 c 0
 376 530 424 518 465 493 c 1
 434 432 l 1
 397 453 358 463 316 463 c 0
 259 463 212 445 176 410 c 0
 138 375 115 325 105 260 c 0
 95 195 103 145 128 110 c 0
 154 75 195 57 252 57 c 0
 294 57 336 67 379 88 c 1
 391 27 l 1
EndSplineSet
EndChar

StartChar: ccircumflex
Encoding: 265 265 233
Width: 523
Flags: W
LayerCount: 2
Fore
SplineSet
66 62 m 0
 29 109 18 175 31 260 c 0
 44 345 77 411 128 458 c 0
 179 506 245 530 324 530 c 0
 378 530 425 518 466 493 c 1
 434 432 l 1
 397 453 358 463 317 463 c 0
 260 463 213 445 176 410 c 0
 139 375 115 325 105 260 c 0
 95 195 103 145 128 110 c 0
 154 75 195 57 252 57 c 0
 294 57 337 67 380 88 c 1
 392 27 l 1
 343 2 292 -10 238 -10 c 0
 159 -10 102 14 66 62 c 0
269 770 m 1
 405 770 l 1
 505 560 l 1
 412 560 l 1
 332 732 l 1
 330 732 l 1
 196 560 l 1
 103 560 l 1
 269 770 l 1
EndSplineSet
EndChar

StartChar: cdotaccent
Encoding: 267 267 234
Width: 523
Flags: W
LayerCount: 2
Fore
SplineSet
66 62 m 0
 29 109 18 175 31 260 c 0
 44 345 77 411 128 458 c 0
 179 506 245 530 324 530 c 0
 378 530 425 518 466 493 c 1
 434 432 l 1
 397 453 358 463 317 463 c 0
 260 463 213 445 176 410 c 0
 139 375 115 325 105 260 c 0
 95 195 103 145 128 110 c 0
 154 75 195 57 252 57 c 0
 294 57 337 67 380 88 c 1
 392 27 l 1
 343 2 292 -10 238 -10 c 0
 159 -10 102 14 66 62 c 0
303 717 m 1
 405 717 l 1
 389 613 l 1
 287 613 l 1
 303 717 l 1
EndSplineSet
EndChar

StartChar: d
Encoding: 100 100 235
Width: 545
Flags: W
LayerCount: 2
Fore
SplineSet
550 750 m 1
 431 0 l 1
 360 0 l 1
 373 80 l 1
 371 80 l 1
 349 51 322 29 289 14 c 0
 256 -2 222 -10 186 -10 c 0
 124 -10 80 14 54 60 c 0
 27 108 21 174 34 260 c 0
 47 346 75 412 116 460 c 0
 158 506 210 530 271 530 c 0
 307 530 338 522 366 506 c 0
 392 491 412 469 425 440 c 1
 427 440 l 1
 476 750 l 1
 550 750 l 1
296 80 m 0
 322 96 344 118 361 145 c 0
 378 172 390 203 395 237 c 2
 402 283 l 2
 407 317 406 348 397 375 c 0
 388 402 374 424 353 440 c 0
 332 455 308 463 280 463 c 0
 237 463 200 445 170 409 c 0
 140 373 120 323 110 260 c 0
 100 197 104 147 124 111 c 0
 142 75 173 57 216 57 c 0
 244 57 271 65 296 80 c 0
EndSplineSet
EndChar

StartChar: eth
Encoding: 240 240 236
Width: 548
Flags: W
LayerCount: 2
Fore
SplineSet
442 619 m 1
 471 569 490 512 500 449 c 0
 511 386 511 321 500 254 c 0
 487 171 456 106 408 60 c 0
 359 13 298 -10 224 -10 c 0
 150 -10 96 12 61 56 c 0
 26 101 15 162 28 241 c 0
 40 316 70 374 116 416 c 0
 164 459 222 480 291 480 c 0
 352 480 398 463 427 428 c 1
 429 429 l 1
 419 492 399 546 370 591 c 1
 138 500 l 1
 123 563 l 1
 330 644 l 1
 289 687 244 714 194 724 c 1
 220 790 l 1
 292 777 354 738 405 674 c 1
 568 738 l 1
 583 675 l 1
 442 619 l 1
360 106 m 0
 393 138 415 183 424 241 c 0
 433 296 426 339 403 368 c 0
 380 398 343 413 291 413 c 0
 239 413 197 398 164 368 c 0
 131 339 111 296 102 241 c 0
 93 183 100 138 123 106 c 0
 146 73 183 57 234 57 c 0
 285 57 327 73 360 106 c 0
EndSplineSet
EndChar

StartChar: dcaron
Encoding: 271 271 237
Width: 769
Flags: W
LayerCount: 2
Fore
SplineSet
550 750 m 1
 431 0 l 1
 360 0 l 1
 373 80 l 1
 371 80 l 1
 349 51 322 29 289 14 c 0
 256 -2 222 -10 186 -10 c 0
 124 -10 80 14 54 60 c 0
 27 108 21 174 34 260 c 0
 47 346 75 412 116 460 c 0
 158 506 210 530 271 530 c 0
 307 530 338 522 366 506 c 0
 392 491 412 469 425 440 c 1
 427 440 l 1
 476 750 l 1
 550 750 l 1
296 80 m 0
 322 96 344 118 361 145 c 0
 378 172 390 203 395 237 c 2
 402 283 l 2
 407 317 406 348 397 375 c 0
 388 402 374 424 353 440 c 0
 332 455 308 463 280 463 c 0
 237 463 200 445 170 409 c 0
 140 373 120 323 110 260 c 0
 100 197 104 147 124 111 c 0
 142 75 173 57 216 57 c 0
 244 57 271 65 296 80 c 0
710 770 m 1
 802 770 l 1
 644 470 l 1
 572 470 l 1
 710 770 l 1
EndSplineSet
EndChar

StartChar: dcroat
Encoding: 273 273 238
Width: 609
Flags: W
LayerCount: 2
Fore
SplineSet
633 592 m 1
 525 592 l 1
 431 0 l 1
 360 0 l 1
 373 80 l 1
 371 80 l 1
 349 51 322 29 289 14 c 0
 256 -2 222 -10 186 -10 c 0
 124 -10 80 14 54 60 c 0
 27 108 21 174 34 260 c 0
 47 346 75 412 116 460 c 0
 158 506 210 530 271 530 c 0
 307 530 338 522 366 506 c 0
 392 491 412 469 425 440 c 1
 427 440 l 1
 451 592 l 1
 234 592 l 1
 245 658 l 1
 461 658 l 1
 476 750 l 1
 550 750 l 1
 536 658 l 1
 643 658 l 1
 633 592 l 1
296 80 m 0
 322 96 344 118 361 145 c 0
 378 172 390 203 395 237 c 2
 402 283 l 2
 407 317 406 348 397 375 c 0
 388 402 374 424 353 440 c 0
 332 455 308 463 280 463 c 0
 237 463 200 445 170 409 c 0
 140 373 120 323 110 260 c 0
 100 197 104 147 124 111 c 0
 142 75 173 57 216 57 c 0
 244 57 271 65 296 80 c 0
EndSplineSet
EndChar

StartChar: uni01C6
Encoding: 454 454 239
Width: 1090
Flags: W
LayerCount: 2
Fore
SplineSet
550 750 m 1
 431 0 l 1
 360 0 l 1
 373 80 l 1
 371 80 l 1
 349 51 322 29 289 14 c 0
 256 -2 222 -10 186 -10 c 0
 124 -10 80 14 54 60 c 0
 27 108 21 174 34 260 c 0
 47 346 75 412 116 460 c 0
 158 506 210 530 271 530 c 0
 307 530 338 522 366 506 c 0
 392 491 412 469 425 440 c 1
 427 440 l 1
 476 750 l 1
 550 750 l 1
296 80 m 0
 322 96 344 118 361 145 c 0
 378 172 390 203 395 237 c 2
 402 283 l 2
 407 317 406 348 397 375 c 0
 388 402 374 424 353 440 c 0
 332 455 308 463 280 463 c 0
 237 463 200 445 170 409 c 0
 140 373 120 323 110 260 c 0
 100 197 104 147 124 111 c 0
 142 75 173 57 216 57 c 0
 244 57 271 65 296 80 c 0
595 67 m 1
 944 451 l 1
 945 453 l 1
 656 453 l 1
 667 520 l 1
 1049 520 l 1
 1039 453 l 1
 689 69 l 1
 689 67 l 1
 978 67 l 1
 967 0 l 1
 584 0 l 1
 595 67 l 1
697 770 m 1
 790 770 l 1
 870 598 l 1
 872 598 l 1
 1006 770 l 1
 1099 770 l 1
 932 560 l 1
 797 560 l 1
 697 770 l 1
EndSplineSet
EndChar

StartChar: e
Encoding: 101 101 240
Width: 513
Flags: W
LayerCount: 2
Fore
SplineSet
471 229 m 1
 99 229 l 1
 86 114 138 57 255 57 c 0
 306 57 356 68 405 89 c 1
 414 26 l 1
 359 2 302 -10 241 -10 c 0
 160 -10 102 13 65 60 c 0
 28 107 17 173 31 260 c 0
 44 345 75 412 122 459 c 0
 169 506 229 530 300 530 c 0
 371 530 421 507 452 460 c 0
 482 413 490 347 477 260 c 2
 471 229 l 1
110 293 m 1
 411 293 l 1
 424 408 383 465 289 465 c 0
 194 465 135 408 110 293 c 1
EndSplineSet
EndChar

StartChar: eacute
Encoding: 233 233 241
Width: 545
Flags: W
LayerCount: 2
Fore
SplineSet
471 229 m 1
 99 229 l 1
 86 114 138 57 255 57 c 0
 306 57 356 68 405 89 c 1
 414 26 l 1
 359 2 302 -10 241 -10 c 0
 160 -10 102 13 65 60 c 0
 28 107 17 173 31 260 c 0
 44 345 75 412 122 459 c 0
 169 506 229 530 300 530 c 0
 371 530 421 507 452 460 c 0
 482 413 490 347 477 260 c 2
 471 229 l 1
110 293 m 1
 411 293 l 1
 424 408 383 465 289 465 c 0
 194 465 135 408 110 293 c 1
330 560 m 1
 250 560 l 1
 385 770 l 1
 484 770 l 1
 330 560 l 1
EndSplineSet
EndChar

StartChar: ebreve
Encoding: 277 277 242
Width: 545
Flags: W
LayerCount: 2
Fore
SplineSet
471 229 m 1
 99 229 l 1
 86 114 138 57 255 57 c 0
 306 57 356 68 405 89 c 1
 414 26 l 1
 359 2 302 -10 241 -10 c 0
 160 -10 102 13 65 60 c 0
 28 107 17 173 31 260 c 0
 44 345 75 412 122 459 c 0
 169 506 229 530 300 530 c 0
 371 530 421 507 452 460 c 0
 482 413 490 347 477 260 c 2
 471 229 l 1
110 293 m 1
 411 293 l 1
 424 408 383 465 289 465 c 0
 194 465 135 408 110 293 c 1
182 623 m 0
 153 652 140 689 143 734 c 1
 226 734 l 1
 225 705 233 683 248 668 c 0
 264 653 286 645 315 645 c 0
 344 645 368 653 388 668 c 0
 408 683 422 705 431 734 c 1
 514 734 l 1
 503 689 478 652 439 623 c 0
 400 594 356 580 305 580 c 0
 253 580 212 594 182 623 c 0
EndSplineSet
EndChar

StartChar: ecaron
Encoding: 283 283 243
Width: 545
Flags: W
LayerCount: 2
Fore
SplineSet
471 229 m 1
 99 229 l 1
 86 114 138 57 255 57 c 0
 306 57 356 68 405 89 c 1
 414 26 l 1
 359 2 302 -10 241 -10 c 0
 160 -10 102 13 65 60 c 0
 28 107 17 173 31 260 c 0
 44 345 75 412 122 459 c 0
 169 506 229 530 300 530 c 0
 371 530 421 507 452 460 c 0
 482 413 490 347 477 260 c 2
 471 229 l 1
110 293 m 1
 411 293 l 1
 424 408 383 465 289 465 c 0
 194 465 135 408 110 293 c 1
138 770 m 1
 231 770 l 1
 311 598 l 1
 313 598 l 1
 447 770 l 1
 540 770 l 1
 373 560 l 1
 238 560 l 1
 138 770 l 1
EndSplineSet
EndChar

StartChar: ecircumflex
Encoding: 234 234 244
Width: 545
Flags: W
LayerCount: 2
Fore
SplineSet
471 229 m 1
 99 229 l 1
 86 114 138 57 255 57 c 0
 306 57 356 68 405 89 c 1
 414 26 l 1
 359 2 302 -10 241 -10 c 0
 160 -10 102 13 65 60 c 0
 28 107 17 173 31 260 c 0
 44 345 75 412 122 459 c 0
 169 506 229 530 300 530 c 0
 371 530 421 507 452 460 c 0
 482 413 490 347 477 260 c 2
 471 229 l 1
110 293 m 1
 411 293 l 1
 424 408 383 465 289 465 c 0
 194 465 135 408 110 293 c 1
270 770 m 1
 406 770 l 1
 506 560 l 1
 413 560 l 1
 333 732 l 1
 331 732 l 1
 197 560 l 1
 104 560 l 1
 270 770 l 1
EndSplineSet
EndChar

StartChar: uni1EBF
Encoding: 7871 7871 245
Width: 545
Flags: W
LayerCount: 2
Fore
SplineSet
471 229 m 1
 99 229 l 1
 86 114 138 57 255 57 c 0
 306 57 356 68 405 89 c 1
 414 26 l 1
 359 2 302 -10 241 -10 c 0
 160 -10 102 13 65 60 c 0
 28 107 17 173 31 260 c 0
 44 345 75 412 122 459 c 0
 169 506 229 530 300 530 c 0
 371 530 421 507 452 460 c 0
 482 413 490 347 477 260 c 2
 471 229 l 1
110 293 m 1
 411 293 l 1
 424 408 383 465 289 465 c 0
 194 465 135 408 110 293 c 1
270 770 m 1
 406 770 l 1
 506 560 l 1
 413 560 l 1
 333 732 l 1
 331 732 l 1
 197 560 l 1
 104 560 l 1
 270 770 l 1
556 740 m 1
 476 740 l 1
 611 950 l 1
 710 950 l 1
 556 740 l 1
EndSplineSet
EndChar

StartChar: uni1EC7
Encoding: 7879 7879 246
Width: 545
Flags: W
LayerCount: 2
Fore
SplineSet
471 229 m 1
 99 229 l 1
 86 114 138 57 255 57 c 0
 306 57 356 68 405 89 c 1
 414 26 l 1
 359 2 302 -10 241 -10 c 0
 160 -10 102 13 65 60 c 0
 28 107 17 173 31 260 c 0
 44 345 75 412 122 459 c 0
 169 506 229 530 300 530 c 0
 371 530 421 507 452 460 c 0
 482 413 490 347 477 260 c 2
 471 229 l 1
110 293 m 1
 411 293 l 1
 424 408 383 465 289 465 c 0
 194 465 135 408 110 293 c 1
175 -93 m 1
 277 -93 l 1
 261 -197 l 1
 159 -197 l 1
 175 -93 l 1
270 770 m 1
 406 770 l 1
 506 560 l 1
 413 560 l 1
 333 732 l 1
 331 732 l 1
 197 560 l 1
 104 560 l 1
 270 770 l 1
EndSplineSet
EndChar

StartChar: uni1EC1
Encoding: 7873 7873 247
Width: 545
Flags: W
LayerCount: 2
Fore
SplineSet
471 229 m 1
 99 229 l 1
 86 114 138 57 255 57 c 0
 306 57 356 68 405 89 c 1
 414 26 l 1
 359 2 302 -10 241 -10 c 0
 160 -10 102 13 65 60 c 0
 28 107 17 173 31 260 c 0
 44 345 75 412 122 459 c 0
 169 506 229 530 300 530 c 0
 371 530 421 507 452 460 c 0
 482 413 490 347 477 260 c 2
 471 229 l 1
110 293 m 1
 411 293 l 1
 424 408 383 465 289 465 c 0
 194 465 135 408 110 293 c 1
270 770 m 1
 406 770 l 1
 506 560 l 1
 413 560 l 1
 333 732 l 1
 331 732 l 1
 197 560 l 1
 104 560 l 1
 270 770 l 1
13 950 m 1
 112 950 l 1
 180 740 l 1
 100 740 l 1
 13 950 l 1
EndSplineSet
EndChar

StartChar: uni1EC3
Encoding: 7875 7875 248
Width: 545
Flags: W
LayerCount: 2
Fore
SplineSet
471 229 m 1
 99 229 l 1
 86 114 138 57 255 57 c 0
 306 57 356 68 405 89 c 1
 414 26 l 1
 359 2 302 -10 241 -10 c 0
 160 -10 102 13 65 60 c 0
 28 107 17 173 31 260 c 0
 44 345 75 412 122 459 c 0
 169 506 229 530 300 530 c 0
 371 530 421 507 452 460 c 0
 482 413 490 347 477 260 c 2
 471 229 l 1
110 293 m 1
 411 293 l 1
 424 408 383 465 289 465 c 0
 194 465 135 408 110 293 c 1
270 770 m 1
 406 770 l 1
 506 560 l 1
 413 560 l 1
 333 732 l 1
 331 732 l 1
 197 560 l 1
 104 560 l 1
 270 770 l 1
509 757 m 0
 514 772 518 784 519 794 c 0
 522 811 518 822 508 828 c 0
 497 833 477 836 447 836 c 0
 406 836 365 830 324 819 c 1
 326 883 l 1
 372 894 421 900 474 900 c 0
 511 900 540 898 560 893 c 0
 579 888 593 880 600 869 c 0
 607 858 609 842 606 821 c 0
 604 806 600 789 593 770 c 0
 586 751 579 734 572 720 c 1
 493 720 l 1
 498 730 504 742 509 757 c 0
EndSplineSet
EndChar

StartChar: uni1EC5
Encoding: 7877 7877 249
Width: 545
Flags: W
LayerCount: 2
Fore
SplineSet
471 229 m 1
 99 229 l 1
 86 114 138 57 255 57 c 0
 306 57 356 68 405 89 c 1
 414 26 l 1
 359 2 302 -10 241 -10 c 0
 160 -10 102 13 65 60 c 0
 28 107 17 173 31 260 c 0
 44 345 75 412 122 459 c 0
 169 506 229 530 300 530 c 0
 371 530 421 507 452 460 c 0
 482 413 490 347 477 260 c 2
 471 229 l 1
110 293 m 1
 411 293 l 1
 424 408 383 465 289 465 c 0
 194 465 135 408 110 293 c 1
270 770 m 1
 406 770 l 1
 506 560 l 1
 413 560 l 1
 333 732 l 1
 331 732 l 1
 197 560 l 1
 104 560 l 1
 270 770 l 1
333 830 m 0
 306 852 284 863 267 863 c 0
 256 863 248 858 242 847 c 0
 235 836 230 818 226 793 c 1
 153 793 l 1
 161 843 174 880 192 904 c 0
 210 929 234 941 264 941 c 0
 295 941 329 925 367 894 c 0
 393 872 415 861 432 861 c 0
 443 861 451 866 458 877 c 0
 465 888 470 906 474 931 c 1
 546 931 l 1
 538 881 525 844 508 820 c 0
 490 795 466 783 437 783 c 0
 407 783 372 799 333 830 c 0
EndSplineSet
EndChar

StartChar: uni0205
Encoding: 517 517 250
Width: 545
Flags: W
LayerCount: 2
Fore
SplineSet
471 229 m 1
 99 229 l 1
 86 114 138 57 255 57 c 0
 306 57 356 68 405 89 c 1
 414 26 l 1
 359 2 302 -10 241 -10 c 0
 160 -10 102 13 65 60 c 0
 28 107 17 173 31 260 c 0
 44 345 75 412 122 459 c 0
 169 506 229 530 300 530 c 0
 371 530 421 507 452 460 c 0
 482 413 490 347 477 260 c 2
 471 229 l 1
110 293 m 1
 411 293 l 1
 424 408 383 465 289 465 c 0
 194 465 135 408 110 293 c 1
93 770 m 1
 192 770 l 1
 260 560 l 1
 180 560 l 1
 93 770 l 1
299 770 m 1
 398 770 l 1
 466 560 l 1
 386 560 l 1
 299 770 l 1
EndSplineSet
EndChar

StartChar: edieresis
Encoding: 235 235 251
Width: 545
Flags: W
LayerCount: 2
Fore
SplineSet
471 229 m 1
 99 229 l 1
 86 114 138 57 255 57 c 0
 306 57 356 68 405 89 c 1
 414 26 l 1
 359 2 302 -10 241 -10 c 0
 160 -10 102 13 65 60 c 0
 28 107 17 173 31 260 c 0
 44 345 75 412 122 459 c 0
 169 506 229 530 300 530 c 0
 371 530 421 507 452 460 c 0
 482 413 490 347 477 260 c 2
 471 229 l 1
110 293 m 1
 411 293 l 1
 424 408 383 465 289 465 c 0
 194 465 135 408 110 293 c 1
152 717 m 1
 254 717 l 1
 237 613 l 1
 135 613 l 1
 152 717 l 1
396 717 m 1
 498 717 l 1
 481 613 l 1
 379 613 l 1
 396 717 l 1
EndSplineSet
EndChar

StartChar: edotaccent
Encoding: 279 279 252
Width: 545
Flags: W
LayerCount: 2
Fore
SplineSet
471 229 m 1
 99 229 l 1
 86 114 138 57 255 57 c 0
 306 57 356 68 405 89 c 1
 414 26 l 1
 359 2 302 -10 241 -10 c 0
 160 -10 102 13 65 60 c 0
 28 107 17 173 31 260 c 0
 44 345 75 412 122 459 c 0
 169 506 229 530 300 530 c 0
 371 530 421 507 452 460 c 0
 482 413 490 347 477 260 c 2
 471 229 l 1
110 293 m 1
 411 293 l 1
 424 408 383 465 289 465 c 0
 194 465 135 408 110 293 c 1
304 717 m 1
 406 717 l 1
 390 613 l 1
 288 613 l 1
 304 717 l 1
EndSplineSet
EndChar

StartChar: uni1EB9
Encoding: 7865 7865 253
Width: 545
Flags: W
LayerCount: 2
Fore
SplineSet
471 229 m 1
 99 229 l 1
 86 114 138 57 255 57 c 0
 306 57 356 68 405 89 c 1
 414 26 l 1
 359 2 302 -10 241 -10 c 0
 160 -10 102 13 65 60 c 0
 28 107 17 173 31 260 c 0
 44 345 75 412 122 459 c 0
 169 506 229 530 300 530 c 0
 371 530 421 507 452 460 c 0
 482 413 490 347 477 260 c 2
 471 229 l 1
110 293 m 1
 411 293 l 1
 424 408 383 465 289 465 c 0
 194 465 135 408 110 293 c 1
175 -93 m 1
 277 -93 l 1
 261 -197 l 1
 159 -197 l 1
 175 -93 l 1
EndSplineSet
EndChar

StartChar: egrave
Encoding: 232 232 254
Width: 545
Flags: W
LayerCount: 2
Fore
SplineSet
471 229 m 1
 99 229 l 1
 86 114 138 57 255 57 c 0
 306 57 356 68 405 89 c 1
 414 26 l 1
 359 2 302 -10 241 -10 c 0
 160 -10 102 13 65 60 c 0
 28 107 17 173 31 260 c 0
 44 345 75 412 122 459 c 0
 169 506 229 530 300 530 c 0
 371 530 421 507 452 460 c 0
 482 413 490 347 477 260 c 2
 471 229 l 1
110 293 m 1
 411 293 l 1
 424 408 383 465 289 465 c 0
 194 465 135 408 110 293 c 1
181 770 m 1
 280 770 l 1
 348 560 l 1
 268 560 l 1
 181 770 l 1
EndSplineSet
EndChar

StartChar: uni1EBB
Encoding: 7867 7867 255
Width: 545
Flags: W
LayerCount: 2
Fore
SplineSet
471 229 m 1
 99 229 l 1
 86 114 138 57 255 57 c 0
 306 57 356 68 405 89 c 1
 414 26 l 1
 359 2 302 -10 241 -10 c 0
 160 -10 102 13 65 60 c 0
 28 107 17 173 31 260 c 0
 44 345 75 412 122 459 c 0
 169 506 229 530 300 530 c 0
 371 530 421 507 452 460 c 0
 482 413 490 347 477 260 c 2
 471 229 l 1
110 293 m 1
 411 293 l 1
 424 408 383 465 289 465 c 0
 194 465 135 408 110 293 c 1
414 627 m 0
 419 642 423 654 424 664 c 0
 427 681 423 692 412 698 c 0
 402 703 382 706 352 706 c 0
 311 706 270 700 229 689 c 1
 231 753 l 1
 277 764 326 770 379 770 c 0
 416 770 445 768 464 763 c 0
 484 758 498 750 505 739 c 0
 512 728 514 712 511 691 c 0
 509 676 505 659 498 640 c 0
 491 621 484 604 477 590 c 1
 398 590 l 1
 403 600 409 612 414 627 c 0
EndSplineSet
EndChar

StartChar: uni0207
Encoding: 519 519 256
Width: 545
Flags: W
LayerCount: 2
Fore
SplineSet
471 229 m 1
 99 229 l 1
 86 114 138 57 255 57 c 0
 306 57 356 68 405 89 c 1
 414 26 l 1
 359 2 302 -10 241 -10 c 0
 160 -10 102 13 65 60 c 0
 28 107 17 173 31 260 c 0
 44 345 75 412 122 459 c 0
 169 506 229 530 300 530 c 0
 371 530 421 507 452 460 c 0
 482 413 490 347 477 260 c 2
 471 229 l 1
110 293 m 1
 411 293 l 1
 424 408 383 465 289 465 c 0
 194 465 135 408 110 293 c 1
442 707 m 0
 472 678 485 641 482 596 c 1
 399 596 l 1
 400 625 392 647 377 662 c 0
 362 677 340 685 311 685 c 0
 282 685 258 677 238 662 c 0
 217 647 203 625 194 596 c 1
 111 596 l 1
 122 641 147 678 186 707 c 0
 225 736 270 750 322 750 c 0
 373 750 413 736 442 707 c 0
EndSplineSet
EndChar

StartChar: emacron
Encoding: 275 275 257
Width: 545
Flags: W
LayerCount: 2
Fore
SplineSet
471 229 m 1
 99 229 l 1
 86 114 138 57 255 57 c 0
 306 57 356 68 405 89 c 1
 414 26 l 1
 359 2 302 -10 241 -10 c 0
 160 -10 102 13 65 60 c 0
 28 107 17 173 31 260 c 0
 44 345 75 412 122 459 c 0
 169 506 229 530 300 530 c 0
 371 530 421 507 452 460 c 0
 482 413 490 347 477 260 c 2
 471 229 l 1
110 293 m 1
 411 293 l 1
 424 408 383 465 289 465 c 0
 194 465 135 408 110 293 c 1
195 697 m 1
 550 697 l 1
 540 633 l 1
 184 633 l 1
 195 697 l 1
EndSplineSet
EndChar

StartChar: eogonek
Encoding: 281 281 258
Width: 514
Flags: W
LayerCount: 2
Fore
SplineSet
467 -167 m 1
 434 -181 398 -188 359 -188 c 0
 312 -188 278 -179 257 -161 c 0
 236 -143 228 -119 233 -90 c 0
 238 -61 252 -34 277 -8 c 1
 260 -9 248 -10 241 -10 c 0
 160 -10 102 13 65 60 c 0
 28 107 17 173 31 260 c 0
 44 345 75 412 122 459 c 0
 169 506 228 530 299 530 c 0
 370 530 420 507 451 460 c 0
 482 413 490 347 476 260 c 2
 470 229 l 1
 99 229 l 1
 86 114 138 57 255 57 c 0
 306 57 356 68 405 89 c 1
 413 30 l 1
 414 30 l 1
 414 30 l 1
 413 29 l 1
 413 26 l 2
 410 24 406 22 402 22 c 0
 399 20 396 19 393 18 c 0
 367 2 346 -14 332 -30 c 0
 316 -47 308 -62 306 -77 c 0
 303 -93 308 -105 321 -112 c 0
 334 -119 352 -123 375 -123 c 0
 406 -123 436 -117 464 -104 c 1
 467 -167 l 1
110 293 m 1
 411 293 l 1
 424 408 383 465 289 465 c 0
 194 465 135 408 110 293 c 1
EndSplineSet
EndChar

StartChar: uni1EBD
Encoding: 7869 7869 259
Width: 545
Flags: W
LayerCount: 2
Fore
SplineSet
471 229 m 1
 99 229 l 1
 86 114 138 57 255 57 c 0
 306 57 356 68 405 89 c 1
 414 26 l 1
 359 2 302 -10 241 -10 c 0
 160 -10 102 13 65 60 c 0
 28 107 17 173 31 260 c 0
 44 345 75 412 122 459 c 0
 169 506 229 530 300 530 c 0
 371 530 421 507 452 460 c 0
 482 413 490 347 477 260 c 2
 471 229 l 1
110 293 m 1
 411 293 l 1
 424 408 383 465 289 465 c 0
 194 465 135 408 110 293 c 1
302 633 m 0
 275 655 253 666 236 666 c 0
 225 666 217 661 210 650 c 0
 204 639 199 621 195 596 c 1
 122 596 l 1
 130 646 143 683 161 708 c 0
 179 732 203 744 233 744 c 0
 264 744 298 728 336 697 c 0
 362 675 384 664 401 664 c 0
 412 664 420 669 427 680 c 0
 434 691 439 709 443 734 c 1
 515 734 l 1
 507 684 494 647 476 622 c 0
 459 598 435 586 406 586 c 0
 376 586 341 602 302 633 c 0
EndSplineSet
EndChar

StartChar: uni0259
Encoding: 601 601 260
Width: 514
Flags: W
LayerCount: 2
Fore
SplineSet
441 460 m 0
 477 413 488 347 475 260 c 0
 462 175 432 108 384 61 c 0
 338 14 278 -10 206 -10 c 0
 135 -10 85 13 54 60 c 0
 23 107 15 173 29 260 c 0
 30 269 33 279 36 291 c 1
 407 291 l 1
 419 406 367 463 251 463 c 0
 199 463 149 452 100 431 c 1
 92 494 l 1
 118 505 146 514 176 520 c 0
 206 527 236 530 266 530 c 0
 347 530 405 507 441 460 c 0
396 227 m 1
 94 227 l 1
 81 112 122 55 216 55 c 0
 311 55 371 112 396 227 c 1
EndSplineSet
EndChar

StartChar: f
Encoding: 102 102 261
Width: 418
Flags: W
LayerCount: 2
Fore
SplineSet
48 453 m 1
 58 520 l 1
 194 520 l 1
 205 587 l 2
 223 702 281 760 378 760 c 0
 409 760 440 755 470 745 c 1
 447 680 l 1
 426 689 403 693 378 693 c 0
 348 693 326 685 311 669 c 0
 296 653 286 626 280 587 c 2
 269 520 l 1
 429 520 l 1
 418 453 l 1
 259 453 l 1
 187 0 l 1
 112 0 l 1
 184 453 l 1
 48 453 l 1
EndSplineSet
EndChar

StartChar: g
Encoding: 103 103 262
Width: 545
Flags: W
LayerCount: 2
Fore
SplineSet
513 520 m 1
 437 40 l 2
 408 -140 315 -230 156 -230 c 0
 93 -230 34 -216 -23 -189 c 1
 6 -127 l 1
 54 -151 104 -163 157 -163 c 0
 216 -163 263 -146 296 -114 c 0
 329 -80 352 -29 363 40 c 2
 369 80 l 1
 367 80 l 1
 346 51 320 29 288 14 c 0
 256 -2 222 -10 186 -10 c 0
 124 -10 80 14 54 60 c 0
 27 108 21 174 34 260 c 0
 47 346 75 412 116 460 c 0
 158 506 210 530 271 530 c 0
 307 530 339 522 366 506 c 0
 393 491 414 469 427 440 c 1
 429 440 l 1
 442 520 l 1
 513 520 l 1
296 80 m 0
 321 96 343 118 360 145 c 0
 377 172 389 203 394 237 c 2
 401 283 l 2
 406 317 405 348 396 375 c 0
 387 402 373 424 352 440 c 0
 332 455 308 463 280 463 c 0
 237 463 200 445 170 408 c 0
 139 372 119 323 109 260 c 0
 99 197 104 148 123 112 c 0
 142 75 173 57 216 57 c 0
 244 57 271 65 296 80 c 0
EndSplineSet
EndChar

StartChar: gbreve
Encoding: 287 287 263
Width: 581
Flags: W
LayerCount: 2
Fore
SplineSet
513 520 m 1
 437 40 l 2
 408 -140 315 -230 156 -230 c 0
 93 -230 34 -216 -23 -189 c 1
 6 -127 l 1
 54 -151 104 -163 157 -163 c 0
 216 -163 263 -146 296 -114 c 0
 329 -80 352 -29 363 40 c 2
 369 80 l 1
 367 80 l 1
 346 51 320 29 288 14 c 0
 256 -2 222 -10 186 -10 c 0
 124 -10 80 14 54 60 c 0
 27 108 21 174 34 260 c 0
 47 346 75 412 116 460 c 0
 158 506 210 530 271 530 c 0
 307 530 339 522 366 506 c 0
 393 491 414 469 427 440 c 1
 429 440 l 1
 442 520 l 1
 513 520 l 1
296 80 m 0
 321 96 343 118 360 145 c 0
 377 172 389 203 394 237 c 2
 401 283 l 2
 406 317 405 348 396 375 c 0
 387 402 373 424 352 440 c 0
 332 455 308 463 280 463 c 0
 237 463 200 445 170 408 c 0
 139 372 119 323 109 260 c 0
 99 197 104 148 123 112 c 0
 142 75 173 57 216 57 c 0
 244 57 271 65 296 80 c 0
194 623 m 0
 164 652 151 689 154 734 c 1
 237 734 l 1
 236 705 244 683 260 668 c 0
 275 653 297 645 326 645 c 0
 355 645 379 653 399 668 c 0
 419 683 433 705 442 734 c 1
 525 734 l 1
 514 689 489 652 450 623 c 0
 411 594 367 580 316 580 c 0
 264 580 223 594 194 623 c 0
EndSplineSet
EndChar

StartChar: gcaron
Encoding: 487 487 264
Width: 581
Flags: W
LayerCount: 2
Fore
SplineSet
513 520 m 1
 437 40 l 2
 408 -140 315 -230 156 -230 c 0
 93 -230 34 -216 -23 -189 c 1
 6 -127 l 1
 54 -151 104 -163 157 -163 c 0
 216 -163 263 -146 296 -114 c 0
 329 -80 352 -29 363 40 c 2
 369 80 l 1
 367 80 l 1
 346 51 320 29 288 14 c 0
 256 -2 222 -10 186 -10 c 0
 124 -10 80 14 54 60 c 0
 27 108 21 174 34 260 c 0
 47 346 75 412 116 460 c 0
 158 506 210 530 271 530 c 0
 307 530 339 522 366 506 c 0
 393 491 414 469 427 440 c 1
 429 440 l 1
 442 520 l 1
 513 520 l 1
296 80 m 0
 321 96 343 118 360 145 c 0
 377 172 389 203 394 237 c 2
 401 283 l 2
 406 317 405 348 396 375 c 0
 387 402 373 424 352 440 c 0
 332 455 308 463 280 463 c 0
 237 463 200 445 170 408 c 0
 139 372 119 323 109 260 c 0
 99 197 104 148 123 112 c 0
 142 75 173 57 216 57 c 0
 244 57 271 65 296 80 c 0
148 770 m 1
 241 770 l 1
 321 598 l 1
 323 598 l 1
 457 770 l 1
 550 770 l 1
 383 560 l 1
 248 560 l 1
 148 770 l 1
EndSplineSet
EndChar

StartChar: gcircumflex
Encoding: 285 285 265
Width: 581
Flags: W
LayerCount: 2
Fore
SplineSet
513 520 m 1
 437 40 l 2
 408 -140 315 -230 156 -230 c 0
 93 -230 34 -216 -23 -189 c 1
 6 -127 l 1
 54 -151 104 -163 157 -163 c 0
 216 -163 263 -146 296 -114 c 0
 329 -80 352 -29 363 40 c 2
 369 80 l 1
 367 80 l 1
 346 51 320 29 288 14 c 0
 256 -2 222 -10 186 -10 c 0
 124 -10 80 14 54 60 c 0
 27 108 21 174 34 260 c 0
 47 346 75 412 116 460 c 0
 158 506 210 530 271 530 c 0
 307 530 339 522 366 506 c 0
 393 491 414 469 427 440 c 1
 429 440 l 1
 442 520 l 1
 513 520 l 1
296 80 m 0
 321 96 343 118 360 145 c 0
 377 172 389 203 394 237 c 2
 401 283 l 2
 406 317 405 348 396 375 c 0
 387 402 373 424 352 440 c 0
 332 455 308 463 280 463 c 0
 237 463 200 445 170 408 c 0
 139 372 119 323 109 260 c 0
 99 197 104 148 123 112 c 0
 142 75 173 57 216 57 c 0
 244 57 271 65 296 80 c 0
281 770 m 1
 417 770 l 1
 517 560 l 1
 424 560 l 1
 344 732 l 1
 342 732 l 1
 208 560 l 1
 115 560 l 1
 281 770 l 1
EndSplineSet
EndChar

StartChar: uni0123
Encoding: 291 291 266
Width: 581
Flags: W
LayerCount: 2
Fore
SplineSet
513 520 m 1
 437 40 l 2
 408 -140 315 -230 156 -230 c 0
 93 -230 34 -216 -23 -189 c 1
 6 -127 l 1
 54 -151 104 -163 157 -163 c 0
 216 -163 263 -146 296 -114 c 0
 329 -80 352 -29 363 40 c 2
 369 80 l 1
 367 80 l 1
 346 51 320 29 288 14 c 0
 256 -2 222 -10 186 -10 c 0
 124 -10 80 14 54 60 c 0
 27 108 21 174 34 260 c 0
 47 346 75 412 116 460 c 0
 158 506 210 530 271 530 c 0
 307 530 339 522 366 506 c 0
 393 491 414 469 427 440 c 1
 429 440 l 1
 442 520 l 1
 513 520 l 1
296 80 m 0
 321 96 343 118 360 145 c 0
 377 172 389 203 394 237 c 2
 401 283 l 2
 406 317 405 348 396 375 c 0
 387 402 373 424 352 440 c 0
 332 455 308 463 280 463 c 0
 237 463 200 445 170 408 c 0
 139 372 119 323 109 260 c 0
 99 197 104 148 123 112 c 0
 142 75 173 57 216 57 c 0
 244 57 271 65 296 80 c 0
405 770 m 1
 484 770 l 1
 350 560 l 1
 251 560 l 1
 405 770 l 1
EndSplineSet
EndChar

StartChar: gdotaccent
Encoding: 289 289 267
Width: 581
Flags: W
LayerCount: 2
Fore
SplineSet
513 520 m 1
 437 40 l 2
 408 -140 315 -230 156 -230 c 0
 93 -230 34 -216 -23 -189 c 1
 6 -127 l 1
 54 -151 104 -163 157 -163 c 0
 216 -163 263 -146 296 -114 c 0
 329 -80 352 -29 363 40 c 2
 369 80 l 1
 367 80 l 1
 346 51 320 29 288 14 c 0
 256 -2 222 -10 186 -10 c 0
 124 -10 80 14 54 60 c 0
 27 108 21 174 34 260 c 0
 47 346 75 412 116 460 c 0
 158 506 210 530 271 530 c 0
 307 530 339 522 366 506 c 0
 393 491 414 469 427 440 c 1
 429 440 l 1
 442 520 l 1
 513 520 l 1
296 80 m 0
 321 96 343 118 360 145 c 0
 377 172 389 203 394 237 c 2
 401 283 l 2
 406 317 405 348 396 375 c 0
 387 402 373 424 352 440 c 0
 332 455 308 463 280 463 c 0
 237 463 200 445 170 408 c 0
 139 372 119 323 109 260 c 0
 99 197 104 148 123 112 c 0
 142 75 173 57 216 57 c 0
 244 57 271 65 296 80 c 0
315 717 m 1
 417 717 l 1
 401 613 l 1
 299 613 l 1
 315 717 l 1
EndSplineSet
EndChar

StartChar: h
Encoding: 104 104 268
Width: 549
Flags: W
LayerCount: 2
Fore
SplineSet
492 320 m 2
 442 0 l 1
 366 0 l 1
 415 306 l 2
 424 359 422 398 408 424 c 0
 396 450 372 463 339 463 c 0
 310 463 281 454 252 436 c 0
 224 419 200 396 180 366 c 0
 160 338 147 306 142 273 c 2
 98 0 l 1
 24 0 l 1
 143 750 l 1
 217 750 l 1
 167 433 l 1
 169 433 l 1
 193 463 223 487 258 504 c 0
 293 521 330 530 368 530 c 0
 473 530 514 460 492 320 c 2
EndSplineSet
EndChar

StartChar: hbar
Encoding: 295 295 269
Width: 612
Flags: W
LayerCount: 2
Fore
SplineSet
542 478 m 0
 563 443 567 391 556 320 c 2
 505 0 l 1
 431 0 l 1
 479 306 l 2
 488 359 486 398 473 424 c 0
 460 450 437 463 404 463 c 0
 375 463 346 454 317 436 c 0
 288 419 264 396 244 366 c 0
 224 338 211 306 206 273 c 2
 163 0 l 1
 89 0 l 1
 183 592 l 1
 75 592 l 1
 86 658 l 1
 193 658 l 1
 208 750 l 1
 282 750 l 1
 267 658 l 1
 484 658 l 1
 473 592 l 1
 257 592 l 1
 232 433 l 1
 233 433 l 1
 256 463 286 487 322 504 c 0
 357 521 394 530 433 530 c 0
 485 530 521 513 542 478 c 0
EndSplineSet
EndChar

StartChar: hcircumflex
Encoding: 293 293 270
Width: 586
Flags: W
LayerCount: 2
Fore
SplineSet
492 320 m 2
 442 0 l 1
 366 0 l 1
 415 306 l 2
 424 359 422 398 408 424 c 0
 396 450 372 463 339 463 c 0
 310 463 281 454 252 436 c 0
 224 419 200 396 180 366 c 0
 160 338 147 306 142 273 c 2
 98 0 l 1
 24 0 l 1
 143 750 l 1
 217 750 l 1
 167 433 l 1
 169 433 l 1
 193 463 223 487 258 504 c 0
 293 521 330 530 368 530 c 0
 473 530 514 460 492 320 c 2
314 1000 m 1
 450 1000 l 1
 550 790 l 1
 457 790 l 1
 377 962 l 1
 375 962 l 1
 241 790 l 1
 148 790 l 1
 314 1000 l 1
EndSplineSet
EndChar

StartChar: i
Encoding: 105 105 271
Width: 240
Flags: W
LayerCount: 2
Fore
SplineSet
148 737 m 1
 236 737 l 1
 221 643 l 1
 133 643 l 1
 148 737 l 1
120 520 m 1
 196 520 l 1
 113 0 l 1
 38 0 l 1
 120 520 l 1
EndSplineSet
EndChar

StartChar: dotlessi
Encoding: 305 305 272
Width: 228
Flags: W
LayerCount: 2
Fore
SplineSet
114 520 m 1
 189 520 l 1
 107 0 l 1
 31 0 l 1
 114 520 l 1
EndSplineSet
EndChar

StartChar: iacute
Encoding: 237 237 273
Width: 248
Flags: W
LayerCount: 2
Fore
SplineSet
114 520 m 1
 189 520 l 1
 107 0 l 1
 31 0 l 1
 114 520 l 1
178 560 m 1
 98 560 l 1
 233 770 l 1
 332 770 l 1
 178 560 l 1
EndSplineSet
EndChar

StartChar: ibreve
Encoding: 301 301 274
Width: 248
Flags: W
LayerCount: 2
Fore
SplineSet
114 520 m 1
 189 520 l 1
 107 0 l 1
 31 0 l 1
 114 520 l 1
30 623 m 0
 1 652 -12 689 -9 734 c 1
 74 734 l 1
 73 705 81 683 96 668 c 0
 112 653 134 645 163 645 c 0
 192 645 216 653 236 668 c 0
 256 683 270 705 279 734 c 1
 362 734 l 1
 351 689 326 652 287 623 c 0
 248 594 204 580 153 580 c 0
 101 580 60 594 30 623 c 0
EndSplineSet
EndChar

StartChar: icircumflex
Encoding: 238 238 275
Width: 248
Flags: W
LayerCount: 2
Fore
SplineSet
114 520 m 1
 189 520 l 1
 107 0 l 1
 31 0 l 1
 114 520 l 1
118 770 m 1
 254 770 l 1
 354 560 l 1
 261 560 l 1
 181 732 l 1
 179 732 l 1
 45 560 l 1
 -48 560 l 1
 118 770 l 1
EndSplineSet
EndChar

StartChar: uni0209
Encoding: 521 521 276
Width: 248
Flags: W
LayerCount: 2
Fore
SplineSet
114 520 m 1
 189 520 l 1
 107 0 l 1
 31 0 l 1
 114 520 l 1
-59 770 m 1
 40 770 l 1
 108 560 l 1
 28 560 l 1
 -59 770 l 1
147 770 m 1
 246 770 l 1
 314 560 l 1
 234 560 l 1
 147 770 l 1
EndSplineSet
EndChar

StartChar: idieresis
Encoding: 239 239 277
Width: 248
Flags: W
LayerCount: 2
Fore
SplineSet
114 520 m 1
 189 520 l 1
 107 0 l 1
 31 0 l 1
 114 520 l 1
0 717 m 1
 102 717 l 1
 85 613 l 1
 -17 613 l 1
 0 717 l 1
244 717 m 1
 346 717 l 1
 329 613 l 1
 227 613 l 1
 244 717 l 1
EndSplineSet
EndChar

StartChar: i.loclTRK
Encoding: 1114113 -1 278
Width: 248
Flags: W
LayerCount: 2
Fore
SplineSet
114 520 m 1
 189 520 l 1
 107 0 l 1
 31 0 l 1
 114 520 l 1
152 717 m 1
 254 717 l 1
 238 613 l 1
 136 613 l 1
 152 717 l 1
EndSplineSet
EndChar

StartChar: uni1ECB
Encoding: 7883 7883 279
Width: 261
Flags: W
LayerCount: 2
Fore
SplineSet
148 737 m 1
 236 737 l 1
 221 643 l 1
 133 643 l 1
 148 737 l 1
120 520 m 1
 196 520 l 1
 113 0 l 1
 38 0 l 1
 120 520 l 1
30 -93 m 1
 132 -93 l 1
 116 -197 l 1
 14 -197 l 1
 30 -93 l 1
EndSplineSet
EndChar

StartChar: igrave
Encoding: 236 236 280
Width: 248
Flags: W
LayerCount: 2
Fore
SplineSet
114 520 m 1
 189 520 l 1
 107 0 l 1
 31 0 l 1
 114 520 l 1
29 770 m 1
 128 770 l 1
 196 560 l 1
 116 560 l 1
 29 770 l 1
EndSplineSet
EndChar

StartChar: uni1EC9
Encoding: 7881 7881 281
Width: 248
Flags: W
LayerCount: 2
Fore
SplineSet
114 520 m 1
 189 520 l 1
 107 0 l 1
 31 0 l 1
 114 520 l 1
262 627 m 0
 267 642 271 654 272 664 c 0
 275 681 271 692 260 698 c 0
 250 703 230 706 200 706 c 0
 159 706 118 700 77 689 c 1
 79 753 l 1
 125 764 174 770 227 770 c 0
 264 770 293 768 312 763 c 0
 332 758 346 750 353 739 c 0
 360 728 362 712 359 691 c 0
 357 676 353 659 346 640 c 0
 339 621 332 604 325 590 c 1
 246 590 l 1
 251 600 257 612 262 627 c 0
EndSplineSet
EndChar

StartChar: uni020B
Encoding: 523 523 282
Width: 248
Flags: W
LayerCount: 2
Fore
SplineSet
114 520 m 1
 189 520 l 1
 107 0 l 1
 31 0 l 1
 114 520 l 1
290 707 m 0
 320 678 333 641 330 596 c 1
 247 596 l 1
 248 625 240 647 225 662 c 0
 210 677 188 685 159 685 c 0
 130 685 106 677 86 662 c 0
 65 647 51 625 42 596 c 1
 -41 596 l 1
 -30 641 -5 678 34 707 c 0
 73 736 118 750 170 750 c 0
 221 750 261 736 290 707 c 0
EndSplineSet
EndChar

StartChar: imacron
Encoding: 299 299 283
Width: 248
Flags: W
LayerCount: 2
Fore
SplineSet
114 520 m 1
 189 520 l 1
 107 0 l 1
 31 0 l 1
 114 520 l 1
43 697 m 1
 398 697 l 1
 388 633 l 1
 32 633 l 1
 43 697 l 1
EndSplineSet
EndChar

StartChar: iogonek
Encoding: 303 303 284
Width: 234
Flags: W
LayerCount: 2
Fore
SplineSet
234 717 m 1
 218 613 l 1
 120 613 l 1
 137 717 l 1
 234 717 l 1
163 -197 m 1
 130 -211 94 -218 55 -218 c 0
 8 -218 -26 -209 -47 -191 c 0
 -68 -173 -76 -149 -71 -120 c 0
 -64 -73 -28 -28 36 14 c 1
 117 520 l 1
 192 520 l 1
 109 0 l 1
 77 -18 52 -36 33 -54 c 0
 14 -73 4 -90 1 -107 c 0
 -2 -123 4 -135 16 -142 c 0
 30 -149 47 -153 70 -153 c 0
 101 -153 131 -147 159 -134 c 1
 163 -197 l 1
EndSplineSet
EndChar

StartChar: itilde
Encoding: 297 297 285
Width: 248
Flags: W
LayerCount: 2
Fore
SplineSet
114 520 m 1
 189 520 l 1
 107 0 l 1
 31 0 l 1
 114 520 l 1
150 633 m 0
 123 655 101 666 84 666 c 0
 73 666 65 661 58 650 c 0
 52 639 47 621 43 596 c 1
 -30 596 l 1
 -22 646 -9 683 9 708 c 0
 27 732 51 744 81 744 c 0
 112 744 146 728 184 697 c 0
 210 675 232 664 249 664 c 0
 260 664 268 669 275 680 c 0
 282 691 287 709 291 734 c 1
 363 734 l 1
 355 684 342 647 324 622 c 0
 307 598 283 586 254 586 c 0
 224 586 189 602 150 633 c 0
EndSplineSet
EndChar

StartChar: j
Encoding: 106 106 286
Width: 299
Flags: W
LayerCount: 2
Fore
SplineSet
207 737 m 1
 295 737 l 1
 280 643 l 1
 192 643 l 1
 207 737 l 1
0 -150 m 0
 29 -140 51 -124 65 -100 c 0
 79 -75 90 -38 98 13 c 2
 179 520 l 1
 254 520 l 1
 174 13 l 2
 164 -52 148 -101 126 -136 c 0
 105 -170 73 -194 32 -208 c 0
 -9 -223 -67 -230 -140 -230 c 1
 -133 -163 l 1
 -74 -163 -29 -158 0 -150 c 0
EndSplineSet
EndChar

StartChar: uni0237
Encoding: 567 567 287
Width: 293
Flags: W
LayerCount: 2
Fore
SplineSet
0 -150 m 0
 29 -140 51 -124 65 -100 c 0
 79 -75 90 -38 98 13 c 2
 179 520 l 1
 254 520 l 1
 174 13 l 2
 164 -52 148 -101 126 -136 c 0
 105 -170 73 -194 32 -208 c 0
 -9 -223 -67 -230 -140 -230 c 1
 -133 -163 l 1
 -74 -163 -29 -158 0 -150 c 0
EndSplineSet
EndChar

StartChar: jcircumflex
Encoding: 309 309 288
Width: 310
Flags: W
LayerCount: 2
Fore
SplineSet
0 -150 m 0
 29 -140 51 -124 65 -100 c 0
 79 -75 90 -38 98 13 c 2
 179 520 l 1
 254 520 l 1
 174 13 l 2
 164 -52 148 -101 126 -136 c 0
 105 -170 73 -194 32 -208 c 0
 -9 -223 -67 -230 -140 -230 c 1
 -133 -163 l 1
 -74 -163 -29 -158 0 -150 c 0
149 770 m 1
 285 770 l 1
 385 560 l 1
 292 560 l 1
 212 732 l 1
 210 732 l 1
 76 560 l 1
 -17 560 l 1
 149 770 l 1
EndSplineSet
EndChar

StartChar: k
Encoding: 107 107 289
Width: 521
Flags: W
LayerCount: 2
Fore
SplineSet
143 750 m 1
 217 750 l 1
 145 296 l 1
 147 296 l 1
 420 520 l 1
 519 520 l 1
 209 270 l 1
 448 0 l 1
 349 0 l 1
 139 244 l 1
 137 244 l 1
 98 0 l 1
 24 0 l 1
 143 750 l 1
EndSplineSet
EndChar

StartChar: uni0137
Encoding: 311 311 290
Width: 554
Flags: W
LayerCount: 2
Fore
SplineSet
143 750 m 1
 217 750 l 1
 145 296 l 1
 147 296 l 1
 420 520 l 1
 519 520 l 1
 209 270 l 1
 448 0 l 1
 349 0 l 1
 139 244 l 1
 137 244 l 1
 98 0 l 1
 24 0 l 1
 143 750 l 1
79 -250 m 1
 0 -250 l 1
 134 -40 l 1
 233 -40 l 1
 79 -250 l 1
EndSplineSet
EndChar

StartChar: kgreenlandic
Encoding: 312 312 291
Width: 521
Flags: W
LayerCount: 2
Fore
SplineSet
107 520 m 1
 181 520 l 1
 145 296 l 1
 147 296 l 1
 420 520 l 1
 519 520 l 1
 209 270 l 1
 448 0 l 1
 349 0 l 1
 139 244 l 1
 137 244 l 1
 98 0 l 1
 24 0 l 1
 107 520 l 1
EndSplineSet
EndChar

StartChar: l
Encoding: 108 108 292
Width: 296
Flags: W
LayerCount: 2
Fore
SplineSet
150 750 m 1
 225 750 l 1
 132 167 l 2
 125 120 126 88 134 73 c 0
 144 58 164 50 196 50 c 0
 225 50 254 56 282 67 c 1
 284 8 l 1
 250 -4 214 -10 177 -10 c 0
 124 -10 88 2 70 26 c 0
 51 51 47 93 56 153 c 2
 150 750 l 1
EndSplineSet
EndChar

StartChar: lacute
Encoding: 314 314 293
Width: 296
Flags: W
LayerCount: 2
Fore
SplineSet
150 750 m 1
 225 750 l 1
 132 167 l 2
 125 120 126 88 134 73 c 0
 144 58 164 50 196 50 c 0
 225 50 254 56 282 67 c 1
 284 8 l 1
 250 -4 214 -10 177 -10 c 0
 124 -10 88 2 70 26 c 0
 51 51 47 93 56 153 c 2
 150 750 l 1
214 790 m 1
 134 790 l 1
 269 1000 l 1
 368 1000 l 1
 214 790 l 1
EndSplineSet
EndChar

StartChar: lcaron
Encoding: 318 318 294
Width: 436
Flags: W
LayerCount: 2
Fore
SplineSet
150 750 m 1
 225 750 l 1
 132 167 l 2
 125 120 126 88 134 73 c 0
 144 58 164 50 196 50 c 0
 225 50 254 56 282 67 c 1
 284 8 l 1
 250 -4 214 -10 177 -10 c 0
 124 -10 88 2 70 26 c 0
 51 51 47 93 56 153 c 2
 150 750 l 1
377 770 m 1
 469 770 l 1
 311 470 l 1
 239 470 l 1
 377 770 l 1
EndSplineSet
EndChar

StartChar: uni013C
Encoding: 316 316 295
Width: 296
Flags: W
LayerCount: 2
Fore
SplineSet
150 750 m 1
 225 750 l 1
 132 167 l 2
 125 120 126 88 134 73 c 0
 144 58 164 50 196 50 c 0
 225 50 254 56 282 67 c 1
 284 8 l 1
 250 -4 214 -10 177 -10 c 0
 124 -10 88 2 70 26 c 0
 51 51 47 93 56 153 c 2
 150 750 l 1
57 -250 m 1
 -22 -250 l 1
 112 -40 l 1
 211 -40 l 1
 57 -250 l 1
EndSplineSet
EndChar

StartChar: ldot
Encoding: 320 320 296
Width: 408
Flags: W
LayerCount: 2
Fore
SplineSet
150 750 m 1
 225 750 l 1
 132 167 l 2
 125 120 126 88 134 73 c 0
 144 58 164 50 196 50 c 0
 225 50 254 56 282 67 c 1
 284 8 l 1
 250 -4 214 -10 177 -10 c 0
 124 -10 88 2 70 26 c 0
 51 51 47 93 56 153 c 2
 150 750 l 1
278 429 m 1
 382 429 l 1
 365 322 l 1
 262 322 l 1
 278 429 l 1
EndSplineSet
EndChar

StartChar: uni01C9
Encoding: 457 457 297
Width: 563
Flags: W
LayerCount: 2
Fore
SplineSet
150 750 m 1
 225 750 l 1
 132 167 l 2
 125 120 126 88 134 73 c 0
 144 58 164 50 196 50 c 0
 225 50 254 56 282 67 c 1
 284 8 l 1
 250 -4 214 -10 177 -10 c 0
 124 -10 88 2 70 26 c 0
 51 51 47 93 56 153 c 2
 150 750 l 1
453 737 m 1
 541 737 l 1
 526 643 l 1
 438 643 l 1
 453 737 l 1
246 -150 m 0
 275 -140 297 -124 311 -100 c 0
 325 -75 336 -38 344 13 c 2
 425 520 l 1
 500 520 l 1
 420 13 l 2
 410 -52 394 -101 372 -136 c 0
 351 -170 319 -194 278 -208 c 0
 237 -223 179 -230 106 -230 c 1
 113 -163 l 1
 172 -163 217 -158 246 -150 c 0
EndSplineSet
EndChar

StartChar: lslash
Encoding: 322 322 298
Width: 403
Flags: W
LayerCount: 2
Fore
SplineSet
414 415 m 1
 32 253 l 1
 16 315 l 1
 399 477 l 1
 414 415 l 1
239 750 m 1
 314 750 l 1
 221 167 l 2
 214 120 214 88 224 73 c 0
 232 58 253 50 285 50 c 0
 314 50 343 56 371 67 c 1
 373 8 l 1
 339 -4 303 -10 266 -10 c 0
 213 -10 177 2 158 26 c 0
 140 51 136 93 145 153 c 2
 239 750 l 1
EndSplineSet
EndChar

StartChar: m
Encoding: 109 109 299
Width: 766
Flags: W
LayerCount: 2
Fore
SplineSet
702 478 m 0
 718 444 720 391 709 320 c 2
 658 0 l 1
 585 0 l 1
 633 306 l 2
 641 357 640 396 631 423 c 0
 622 450 604 463 577 463 c 0
 555 463 533 455 511 438 c 0
 489 422 470 400 454 373 c 0
 438 346 428 316 423 285 c 2
 378 0 l 1
 305 0 l 1
 353 306 l 2
 361 357 360 396 351 423 c 0
 342 450 323 463 296 463 c 0
 273 463 251 454 229 436 c 0
 207 419 188 395 172 365 c 0
 156 335 145 302 140 266 c 2
 97 0 l 1
 24 0 l 1
 107 520 l 1
 176 520 l 1
 164 440 l 1
 166 440 l 1
 187 469 211 491 240 506 c 0
 268 522 297 530 328 530 c 0
 387 530 422 500 433 440 c 1
 433 440 l 1
 455 468 482 490 514 506 c 0
 545 522 577 530 610 530 c 0
 655 530 685 513 702 478 c 0
EndSplineSet
EndChar

StartChar: n
Encoding: 110 110 300
Width: 549
Flags: W
LayerCount: 2
Fore
SplineSet
492 320 m 2
 442 0 l 1
 366 0 l 1
 415 306 l 2
 432 411 405 463 336 463 c 0
 307 463 278 454 250 437 c 0
 223 420 199 396 180 367 c 0
 160 338 147 306 142 273 c 2
 98 0 l 1
 24 0 l 1
 107 520 l 1
 178 520 l 1
 164 433 l 1
 166 433 l 1
 190 463 220 487 254 504 c 0
 290 521 326 530 365 530 c 0
 472 530 514 460 492 320 c 2
EndSplineSet
EndChar

StartChar: nacute
Encoding: 324 324 301
Width: 586
Flags: W
LayerCount: 2
Fore
SplineSet
492 320 m 2
 442 0 l 1
 366 0 l 1
 415 306 l 2
 432 411 405 463 336 463 c 0
 307 463 278 454 250 437 c 0
 223 420 199 396 180 367 c 0
 160 338 147 306 142 273 c 2
 98 0 l 1
 24 0 l 1
 107 520 l 1
 178 520 l 1
 164 433 l 1
 166 433 l 1
 190 463 220 487 254 504 c 0
 290 521 326 530 365 530 c 0
 472 530 514 460 492 320 c 2
347 560 m 1
 267 560 l 1
 402 770 l 1
 501 770 l 1
 347 560 l 1
EndSplineSet
EndChar

StartChar: ncaron
Encoding: 328 328 302
Width: 586
Flags: W
LayerCount: 2
Fore
SplineSet
492 320 m 2
 442 0 l 1
 366 0 l 1
 415 306 l 2
 432 411 405 463 336 463 c 0
 307 463 278 454 250 437 c 0
 223 420 199 396 180 367 c 0
 160 338 147 306 142 273 c 2
 98 0 l 1
 24 0 l 1
 107 520 l 1
 178 520 l 1
 164 433 l 1
 166 433 l 1
 190 463 220 487 254 504 c 0
 290 521 326 530 365 530 c 0
 472 530 514 460 492 320 c 2
155 770 m 1
 248 770 l 1
 328 598 l 1
 330 598 l 1
 464 770 l 1
 557 770 l 1
 390 560 l 1
 255 560 l 1
 155 770 l 1
EndSplineSet
EndChar

StartChar: uni0146
Encoding: 326 326 303
Width: 586
Flags: W
LayerCount: 2
Fore
SplineSet
492 320 m 2
 442 0 l 1
 366 0 l 1
 415 306 l 2
 432 411 405 463 336 463 c 0
 307 463 278 454 250 437 c 0
 223 420 199 396 180 367 c 0
 160 338 147 306 142 273 c 2
 98 0 l 1
 24 0 l 1
 107 520 l 1
 178 520 l 1
 164 433 l 1
 166 433 l 1
 190 463 220 487 254 504 c 0
 290 521 326 530 365 530 c 0
 472 530 514 460 492 320 c 2
126 -250 m 1
 47 -250 l 1
 181 -40 l 1
 280 -40 l 1
 126 -250 l 1
EndSplineSet
EndChar

StartChar: eng
Encoding: 331 331 304
Width: 548
Flags: W
LayerCount: 2
Fore
SplineSet
491 320 m 2
 435 -38 l 2
 425 -101 405 -146 376 -175 c 0
 347 -204 305 -218 251 -218 c 0
 220 -218 189 -213 157 -202 c 1
 180 -135 l 1
 203 -144 226 -148 249 -148 c 0
 282 -148 308 -140 326 -122 c 0
 343 -106 355 -77 361 -38 c 2
 416 307 l 2
 433 411 406 463 336 463 c 0
 307 463 278 454 250 437 c 0
 223 420 199 396 180 367 c 0
 160 338 147 306 142 273 c 2
 98 0 l 1
 24 0 l 1
 107 520 l 1
 178 520 l 1
 163 425 l 1
 165 425 l 1
 189 458 219 483 254 502 c 0
 289 521 326 530 365 530 c 0
 471 530 513 460 491 320 c 2
EndSplineSet
EndChar

StartChar: uni01CC
Encoding: 460 460 305
Width: 902
Flags: W
LayerCount: 2
Fore
SplineSet
492 320 m 2
 442 0 l 1
 366 0 l 1
 415 306 l 2
 432 411 405 463 336 463 c 0
 307 463 278 454 250 437 c 0
 223 420 199 396 180 367 c 0
 160 338 147 306 142 273 c 2
 98 0 l 1
 24 0 l 1
 107 520 l 1
 178 520 l 1
 164 433 l 1
 166 433 l 1
 190 463 220 487 254 504 c 0
 290 521 326 530 365 530 c 0
 472 530 514 460 492 320 c 2
793 737 m 1
 881 737 l 1
 866 643 l 1
 778 643 l 1
 793 737 l 1
586 -150 m 0
 615 -140 637 -124 651 -100 c 0
 665 -75 676 -38 684 13 c 2
 765 520 l 1
 840 520 l 1
 760 13 l 2
 750 -52 734 -101 712 -136 c 0
 691 -170 659 -194 618 -208 c 0
 577 -223 519 -230 446 -230 c 1
 453 -163 l 1
 512 -163 557 -158 586 -150 c 0
EndSplineSet
EndChar

StartChar: ntilde
Encoding: 241 241 306
Width: 586
Flags: W
LayerCount: 2
Fore
SplineSet
492 320 m 2
 442 0 l 1
 366 0 l 1
 415 306 l 2
 432 411 405 463 336 463 c 0
 307 463 278 454 250 437 c 0
 223 420 199 396 180 367 c 0
 160 338 147 306 142 273 c 2
 98 0 l 1
 24 0 l 1
 107 520 l 1
 178 520 l 1
 164 433 l 1
 166 433 l 1
 190 463 220 487 254 504 c 0
 290 521 326 530 365 530 c 0
 472 530 514 460 492 320 c 2
319 633 m 0
 292 655 270 666 253 666 c 0
 242 666 234 661 228 650 c 0
 221 639 216 621 212 596 c 1
 139 596 l 1
 147 646 160 683 178 708 c 0
 196 732 220 744 250 744 c 0
 281 744 315 728 353 697 c 0
 379 675 401 664 418 664 c 0
 429 664 437 669 444 680 c 0
 451 691 456 709 460 734 c 1
 532 734 l 1
 524 684 511 647 494 622 c 0
 476 598 452 586 423 586 c 0
 393 586 358 602 319 633 c 0
EndSplineSet
EndChar

StartChar: o
Encoding: 111 111 307
Width: 534
Flags: W
LayerCount: 2
Fore
SplineSet
60 61 m 0
 27 108 17 175 31 260 c 0
 44 345 75 412 124 459 c 0
 173 506 233 530 306 530 c 0
 379 530 433 506 466 458 c 0
 499 411 509 345 496 260 c 0
 483 175 452 109 404 62 c 0
 355 14 294 -10 221 -10 c 0
 148 -10 94 14 60 61 c 0
357 110 m 0
 390 144 411 195 421 260 c 0
 432 325 426 376 404 410 c 0
 383 446 347 463 296 463 c 0
 245 463 204 446 170 410 c 0
 138 376 116 325 105 260 c 0
 94 195 100 144 122 110 c 0
 145 74 181 57 232 57 c 0
 283 57 324 74 357 110 c 0
EndSplineSet
EndChar

StartChar: oacute
Encoding: 243 243 308
Width: 567
Flags: W
LayerCount: 2
Fore
SplineSet
60 61 m 0
 27 108 17 175 31 260 c 0
 44 345 75 412 124 459 c 0
 173 506 233 530 306 530 c 0
 379 530 433 506 466 458 c 0
 499 411 509 345 496 260 c 0
 483 175 452 109 404 62 c 0
 355 14 294 -10 221 -10 c 0
 148 -10 94 14 60 61 c 0
357 110 m 0
 390 144 411 195 421 260 c 0
 432 325 426 376 404 410 c 0
 383 446 347 463 296 463 c 0
 245 463 204 446 170 410 c 0
 138 376 116 325 105 260 c 0
 94 195 100 144 122 110 c 0
 145 74 181 57 232 57 c 0
 283 57 324 74 357 110 c 0
337 560 m 1
 257 560 l 1
 392 770 l 1
 491 770 l 1
 337 560 l 1
EndSplineSet
EndChar

StartChar: obreve
Encoding: 335 335 309
Width: 567
Flags: W
LayerCount: 2
Fore
SplineSet
60 61 m 0
 27 108 17 175 31 260 c 0
 44 345 75 412 124 459 c 0
 173 506 233 530 306 530 c 0
 379 530 433 506 466 458 c 0
 499 411 509 345 496 260 c 0
 483 175 452 109 404 62 c 0
 355 14 294 -10 221 -10 c 0
 148 -10 94 14 60 61 c 0
357 110 m 0
 390 144 411 195 421 260 c 0
 432 325 426 376 404 410 c 0
 383 446 347 463 296 463 c 0
 245 463 204 446 170 410 c 0
 138 376 116 325 105 260 c 0
 94 195 100 144 122 110 c 0
 145 74 181 57 232 57 c 0
 283 57 324 74 357 110 c 0
190 623 m 0
 161 652 148 689 151 734 c 1
 234 734 l 1
 233 705 241 683 256 668 c 0
 272 653 294 645 323 645 c 0
 352 645 376 653 396 668 c 0
 416 683 430 705 439 734 c 1
 522 734 l 1
 511 689 486 652 447 623 c 0
 408 594 364 580 313 580 c 0
 261 580 220 594 190 623 c 0
EndSplineSet
EndChar

